G04 MADE WITH FRITZING*
G04 WWW.FRITZING.ORG*
G04 DOUBLE SIDED*
G04 HOLES PLATED*
G04 CONTOUR ON CENTER OF CONTOUR VECTOR*
%ASAXBY*%
%FSLAX23Y23*%
%MOIN*%
%OFA0B0*%
%SFA1.0B1.0*%
%ADD10C,0.101181*%
%ADD11C,0.080000*%
%ADD12C,0.096000*%
%ADD13C,0.057244*%
%ADD14C,0.088000*%
%ADD15C,0.085000*%
%ADD16C,0.135984*%
%ADD17R,0.079972X0.080000*%
%ADD18R,0.087630X0.087806*%
%ADD19R,0.085000X0.085000*%
%LNMASK1*%
G90*
G70*
G54D10*
X1541Y131D03*
X1341Y131D03*
X616Y2231D03*
X816Y2231D03*
X266Y681D03*
X266Y881D03*
X266Y1081D03*
X266Y1306D03*
X266Y1506D03*
X266Y1706D03*
G54D11*
X566Y1881D03*
X566Y1781D03*
X566Y1681D03*
X566Y1581D03*
X566Y1481D03*
X566Y1381D03*
X566Y1281D03*
X566Y1181D03*
X566Y1081D03*
X566Y981D03*
X566Y881D03*
X566Y781D03*
X566Y681D03*
X566Y581D03*
X566Y481D03*
X1166Y1881D03*
X1166Y1781D03*
X1166Y1681D03*
X1166Y1581D03*
X1166Y1481D03*
X1166Y1381D03*
X1166Y1281D03*
X1166Y1181D03*
X1166Y1081D03*
X1166Y981D03*
X1166Y881D03*
X1166Y781D03*
X1166Y681D03*
X1166Y581D03*
X1166Y481D03*
G54D12*
X1850Y1153D03*
X1653Y1054D03*
X1653Y956D03*
X1653Y1251D03*
X1653Y1350D03*
G54D13*
X1850Y956D03*
X1948Y956D03*
X1948Y1350D03*
X1850Y1350D03*
X1653Y1153D03*
G54D12*
X1850Y1153D03*
X1653Y1054D03*
X1653Y956D03*
X1653Y1251D03*
X1653Y1350D03*
G54D13*
X1850Y956D03*
X1948Y956D03*
X1948Y1350D03*
X1850Y1350D03*
X1653Y1153D03*
G54D12*
X1850Y1653D03*
X1653Y1554D03*
X1653Y1456D03*
X1653Y1751D03*
X1653Y1850D03*
G54D13*
X1850Y1456D03*
X1948Y1456D03*
X1948Y1850D03*
X1850Y1850D03*
X1653Y1653D03*
G54D12*
X1850Y1653D03*
X1653Y1554D03*
X1653Y1456D03*
X1653Y1751D03*
X1653Y1850D03*
G54D13*
X1850Y1456D03*
X1948Y1456D03*
X1948Y1850D03*
X1850Y1850D03*
X1653Y1653D03*
G54D14*
X1914Y396D03*
X1914Y756D03*
X1314Y756D03*
X1314Y396D03*
G54D15*
X1841Y156D03*
X1841Y256D03*
G54D16*
X816Y156D03*
X1741Y2131D03*
G54D15*
X1415Y2105D03*
X1315Y2105D03*
X1415Y1855D03*
X1315Y1855D03*
X1415Y905D03*
X1415Y1205D03*
X1415Y1355D03*
X1415Y1655D03*
X1315Y905D03*
X1315Y1205D03*
X1315Y1355D03*
X1315Y1655D03*
X966Y2231D03*
X1266Y2231D03*
X266Y2231D03*
X266Y2031D03*
X266Y131D03*
X266Y331D03*
X441Y1856D03*
X141Y1856D03*
X441Y506D03*
X141Y506D03*
G54D17*
X566Y1881D03*
G54D18*
X1314Y756D03*
X1314Y397D03*
X1915Y396D03*
X1915Y756D03*
G54D19*
X1841Y156D03*
X1415Y2105D03*
X1415Y1855D03*
X266Y2231D03*
X266Y131D03*
G04 End of Mask1*
M02*