G04 MADE WITH FRITZING*
G04 WWW.FRITZING.ORG*
G04 DOUBLE SIDED*
G04 HOLES PLATED*
G04 CONTOUR ON CENTER OF CONTOUR VECTOR*
%ASAXBY*%
%FSLAX23Y23*%
%MOIN*%
%OFA0B0*%
%SFA1.0B1.0*%
%ADD10C,0.075000*%
%ADD11C,0.091181*%
%ADD12C,0.070000*%
%ADD13C,0.086000*%
%ADD14C,0.078000*%
%ADD15R,0.069972X0.070000*%
%ADD16R,0.077630X0.077806*%
%ADD17R,0.075000X0.075000*%
%ADD18C,0.040000*%
%ADD19C,0.024000*%
%ADD20R,0.001000X0.001000*%
%LNCOPPER1*%
G90*
G70*
G54D10*
X381Y2262D03*
X1339Y1995D03*
X232Y1914D03*
X1768Y2249D03*
X1333Y1537D03*
X815Y2091D03*
G54D11*
X1541Y131D03*
X1341Y131D03*
X616Y2231D03*
X816Y2231D03*
X266Y681D03*
X266Y881D03*
X266Y1081D03*
X266Y1306D03*
X266Y1506D03*
X266Y1706D03*
G54D12*
X566Y1881D03*
X566Y1781D03*
X566Y1681D03*
X566Y1581D03*
X566Y1481D03*
X566Y1381D03*
X566Y1281D03*
X566Y1181D03*
X566Y1081D03*
X566Y981D03*
X566Y881D03*
X566Y781D03*
X566Y681D03*
X566Y581D03*
X566Y481D03*
X1166Y1881D03*
X1166Y1781D03*
X1166Y1681D03*
X1166Y1581D03*
X1166Y1481D03*
X1166Y1381D03*
X1166Y1281D03*
X1166Y1181D03*
X1166Y1081D03*
X1166Y981D03*
X1166Y881D03*
X1166Y781D03*
X1166Y681D03*
X1166Y581D03*
X1166Y481D03*
G54D13*
X1850Y1153D03*
X1653Y1054D03*
X1653Y956D03*
X1653Y1251D03*
X1653Y1350D03*
X1850Y1153D03*
X1653Y1054D03*
X1653Y956D03*
X1653Y1251D03*
X1653Y1350D03*
X1850Y1653D03*
X1653Y1554D03*
X1653Y1456D03*
X1653Y1751D03*
X1653Y1850D03*
X1850Y1653D03*
X1653Y1554D03*
X1653Y1456D03*
X1653Y1751D03*
X1653Y1850D03*
G54D14*
X1914Y396D03*
X1914Y756D03*
X1314Y756D03*
X1314Y396D03*
G54D10*
X1841Y156D03*
X1841Y256D03*
X1415Y2105D03*
X1315Y2105D03*
X1415Y1855D03*
X1315Y1855D03*
X1415Y905D03*
X1415Y1205D03*
X1415Y1355D03*
X1415Y1655D03*
X1315Y905D03*
X1315Y1205D03*
X1315Y1355D03*
X1315Y1655D03*
X966Y2231D03*
X1266Y2231D03*
X266Y2231D03*
X266Y2031D03*
X266Y131D03*
X266Y331D03*
X441Y1856D03*
X141Y1856D03*
X441Y506D03*
X141Y506D03*
G54D15*
X566Y1881D03*
G54D16*
X1314Y756D03*
X1314Y397D03*
X1915Y396D03*
X1915Y756D03*
G54D17*
X1841Y156D03*
X1415Y2105D03*
X1415Y1855D03*
X266Y2231D03*
X266Y131D03*
G54D18*
X164Y1657D02*
X164Y982D01*
D02*
X67Y1757D02*
X164Y1657D01*
D02*
X67Y1906D02*
X67Y1757D01*
D02*
X164Y982D02*
X232Y915D01*
D02*
X232Y2010D02*
X67Y1906D01*
G54D19*
D02*
X691Y2305D02*
X990Y2305D01*
D02*
X990Y2305D02*
X1065Y2231D01*
D02*
X1065Y2231D02*
X1065Y1656D01*
D02*
X1065Y1656D02*
X1142Y1598D01*
D02*
X642Y2257D02*
X691Y2305D01*
G54D18*
D02*
X1067Y330D02*
X1190Y330D01*
D02*
X1840Y680D02*
X1886Y727D01*
D02*
X1841Y296D02*
X1840Y680D01*
D02*
X1916Y205D02*
X1915Y355D01*
D02*
X1874Y178D02*
X1916Y205D01*
D02*
X641Y330D02*
X1067Y330D01*
D02*
X1242Y382D02*
X1242Y705D01*
D02*
X1190Y330D02*
X1242Y382D01*
D02*
X1242Y705D02*
X1281Y732D01*
D02*
X305Y331D02*
X641Y330D01*
G54D19*
D02*
X1067Y1506D02*
X1142Y1563D01*
D02*
X1067Y330D02*
X1067Y1506D01*
D02*
X1417Y1107D02*
X1290Y1107D01*
D02*
X1290Y1107D02*
X1191Y1166D01*
D02*
X1415Y1177D02*
X1417Y1107D01*
D02*
X1289Y1218D02*
X1192Y1268D01*
D02*
X1242Y1406D02*
X1291Y1372D01*
G54D18*
D02*
X1752Y130D02*
X1588Y131D01*
D02*
X1802Y145D02*
X1752Y130D01*
D02*
X1454Y257D02*
X1373Y166D01*
D02*
X1801Y256D02*
X1454Y257D01*
G54D19*
D02*
X491Y1006D02*
X491Y556D01*
D02*
X491Y556D02*
X461Y526D01*
D02*
X545Y1060D02*
X491Y1006D01*
D02*
X141Y1805D02*
X141Y1827D01*
D02*
X237Y1729D02*
X141Y1805D01*
D02*
X267Y607D02*
X163Y524D01*
D02*
X266Y644D02*
X267Y607D01*
D02*
X717Y1532D02*
X586Y1401D01*
D02*
X716Y2155D02*
X717Y1532D01*
D02*
X786Y2209D02*
X716Y2155D01*
D02*
X852Y2231D02*
X937Y2231D01*
G54D18*
D02*
X365Y1932D02*
X294Y2003D01*
D02*
X365Y1579D02*
X365Y1932D01*
D02*
X304Y1534D02*
X365Y1579D01*
D02*
X342Y804D02*
X341Y382D01*
D02*
X341Y382D02*
X298Y353D01*
D02*
X299Y847D02*
X342Y804D01*
G54D19*
D02*
X491Y1805D02*
X461Y1836D01*
D02*
X491Y1256D02*
X491Y1805D01*
D02*
X545Y1202D02*
X491Y1256D01*
D02*
X1515Y2006D02*
X1435Y2085D01*
D02*
X1515Y1930D02*
X1515Y2006D01*
D02*
X1539Y1030D02*
X1622Y976D01*
D02*
X1539Y1405D02*
X1539Y1030D01*
D02*
X1620Y1441D02*
X1539Y1405D01*
D02*
X1621Y1868D02*
X1515Y1930D01*
D02*
X1741Y1430D02*
X1680Y1374D01*
D02*
X1741Y1780D02*
X1741Y1430D01*
D02*
X1682Y1827D02*
X1741Y1780D01*
D02*
X1315Y1327D02*
X1315Y1234D01*
D02*
X1489Y1430D02*
X1435Y1375D01*
D02*
X1489Y1705D02*
X1489Y1430D01*
D02*
X1440Y1755D02*
X1489Y1705D01*
D02*
X1364Y1755D02*
X1440Y1755D01*
D02*
X1314Y1805D02*
X1364Y1755D01*
D02*
X1314Y1827D02*
X1314Y1805D01*
D02*
X1415Y1327D02*
X1415Y1234D01*
D02*
X1539Y1731D02*
X1435Y1835D01*
D02*
X1539Y1530D02*
X1539Y1731D01*
D02*
X1622Y1476D02*
X1539Y1530D01*
D02*
X1242Y2030D02*
X1295Y2085D01*
D02*
X1242Y1406D02*
X1242Y2030D01*
D02*
X1343Y1655D02*
X1386Y1655D01*
G36*
X40Y2320D02*
X40Y2278D01*
X314Y2278D01*
X314Y2184D01*
X584Y2184D01*
X584Y2186D01*
X582Y2186D01*
X582Y2188D01*
X580Y2188D01*
X580Y2190D01*
X576Y2190D01*
X576Y2192D01*
X574Y2192D01*
X574Y2196D01*
X572Y2196D01*
X572Y2198D01*
X570Y2198D01*
X570Y2200D01*
X568Y2200D01*
X568Y2204D01*
X566Y2204D01*
X566Y2208D01*
X564Y2208D01*
X564Y2212D01*
X562Y2212D01*
X562Y2220D01*
X560Y2220D01*
X560Y2240D01*
X562Y2240D01*
X562Y2248D01*
X564Y2248D01*
X564Y2254D01*
X566Y2254D01*
X566Y2258D01*
X568Y2258D01*
X568Y2260D01*
X570Y2260D01*
X570Y2264D01*
X572Y2264D01*
X572Y2266D01*
X574Y2266D01*
X574Y2268D01*
X576Y2268D01*
X576Y2270D01*
X578Y2270D01*
X578Y2272D01*
X580Y2272D01*
X580Y2274D01*
X582Y2274D01*
X582Y2276D01*
X586Y2276D01*
X586Y2278D01*
X588Y2278D01*
X588Y2280D01*
X592Y2280D01*
X592Y2282D01*
X596Y2282D01*
X596Y2284D01*
X604Y2284D01*
X604Y2286D01*
X642Y2286D01*
X642Y2288D01*
X644Y2288D01*
X644Y2290D01*
X646Y2290D01*
X646Y2292D01*
X648Y2292D01*
X648Y2294D01*
X650Y2294D01*
X650Y2296D01*
X652Y2296D01*
X652Y2298D01*
X654Y2298D01*
X654Y2300D01*
X656Y2300D01*
X656Y2320D01*
X40Y2320D01*
G37*
D02*
G36*
X700Y2284D02*
X700Y2282D01*
X698Y2282D01*
X698Y2280D01*
X696Y2280D01*
X696Y2278D01*
X694Y2278D01*
X694Y2276D01*
X692Y2276D01*
X692Y2274D01*
X690Y2274D01*
X690Y2272D01*
X688Y2272D01*
X688Y2270D01*
X686Y2270D01*
X686Y2268D01*
X684Y2268D01*
X684Y2266D01*
X682Y2266D01*
X682Y2264D01*
X680Y2264D01*
X680Y2262D01*
X678Y2262D01*
X678Y2260D01*
X676Y2260D01*
X676Y2258D01*
X674Y2258D01*
X674Y2256D01*
X672Y2256D01*
X672Y2254D01*
X670Y2254D01*
X670Y2234D01*
X672Y2234D01*
X672Y2228D01*
X670Y2228D01*
X670Y2216D01*
X668Y2216D01*
X668Y2210D01*
X666Y2210D01*
X666Y2206D01*
X664Y2206D01*
X664Y2202D01*
X662Y2202D01*
X662Y2198D01*
X660Y2198D01*
X660Y2196D01*
X658Y2196D01*
X658Y2194D01*
X656Y2194D01*
X656Y2192D01*
X654Y2192D01*
X654Y2190D01*
X652Y2190D01*
X652Y2188D01*
X650Y2188D01*
X650Y2186D01*
X646Y2186D01*
X646Y2184D01*
X644Y2184D01*
X644Y2182D01*
X640Y2182D01*
X640Y2180D01*
X636Y2180D01*
X636Y2178D01*
X630Y2178D01*
X630Y2176D01*
X708Y2176D01*
X708Y2178D01*
X712Y2178D01*
X712Y2180D01*
X714Y2180D01*
X714Y2182D01*
X716Y2182D01*
X716Y2184D01*
X720Y2184D01*
X720Y2186D01*
X722Y2186D01*
X722Y2188D01*
X724Y2188D01*
X724Y2190D01*
X726Y2190D01*
X726Y2192D01*
X730Y2192D01*
X730Y2194D01*
X732Y2194D01*
X732Y2196D01*
X734Y2196D01*
X734Y2198D01*
X738Y2198D01*
X738Y2200D01*
X740Y2200D01*
X740Y2202D01*
X742Y2202D01*
X742Y2204D01*
X746Y2204D01*
X746Y2206D01*
X748Y2206D01*
X748Y2208D01*
X750Y2208D01*
X750Y2210D01*
X754Y2210D01*
X754Y2212D01*
X756Y2212D01*
X756Y2214D01*
X758Y2214D01*
X758Y2216D01*
X760Y2216D01*
X760Y2240D01*
X762Y2240D01*
X762Y2248D01*
X764Y2248D01*
X764Y2254D01*
X766Y2254D01*
X766Y2258D01*
X768Y2258D01*
X768Y2260D01*
X770Y2260D01*
X770Y2264D01*
X772Y2264D01*
X772Y2284D01*
X700Y2284D01*
G37*
D02*
G36*
X40Y2278D02*
X40Y2184D01*
X218Y2184D01*
X218Y2278D01*
X40Y2278D01*
G37*
D02*
G36*
X40Y2184D02*
X40Y2182D01*
X588Y2182D01*
X588Y2184D01*
X40Y2184D01*
G37*
D02*
G36*
X40Y2184D02*
X40Y2182D01*
X588Y2182D01*
X588Y2184D01*
X40Y2184D01*
G37*
D02*
G36*
X40Y2182D02*
X40Y2176D01*
X602Y2176D01*
X602Y2178D01*
X596Y2178D01*
X596Y2180D01*
X592Y2180D01*
X592Y2182D01*
X40Y2182D01*
G37*
D02*
G36*
X40Y2176D02*
X40Y2174D01*
X706Y2174D01*
X706Y2176D01*
X40Y2176D01*
G37*
D02*
G36*
X40Y2176D02*
X40Y2174D01*
X706Y2174D01*
X706Y2176D01*
X40Y2176D01*
G37*
D02*
G36*
X40Y2174D02*
X40Y2078D01*
X276Y2078D01*
X276Y2076D01*
X282Y2076D01*
X282Y2074D01*
X286Y2074D01*
X286Y2072D01*
X290Y2072D01*
X290Y2070D01*
X294Y2070D01*
X294Y2068D01*
X296Y2068D01*
X296Y2066D01*
X298Y2066D01*
X298Y2064D01*
X300Y2064D01*
X300Y2062D01*
X302Y2062D01*
X302Y2060D01*
X304Y2060D01*
X304Y2056D01*
X306Y2056D01*
X306Y2054D01*
X308Y2054D01*
X308Y2050D01*
X310Y2050D01*
X310Y2044D01*
X312Y2044D01*
X312Y2032D01*
X314Y2032D01*
X314Y2024D01*
X316Y2024D01*
X316Y2022D01*
X318Y2022D01*
X318Y2020D01*
X320Y2020D01*
X320Y2018D01*
X322Y2018D01*
X322Y2016D01*
X324Y2016D01*
X324Y2014D01*
X326Y2014D01*
X326Y2012D01*
X328Y2012D01*
X328Y2010D01*
X330Y2010D01*
X330Y2008D01*
X332Y2008D01*
X332Y2006D01*
X334Y2006D01*
X334Y2004D01*
X336Y2004D01*
X336Y2002D01*
X338Y2002D01*
X338Y2000D01*
X340Y2000D01*
X340Y1998D01*
X342Y1998D01*
X342Y1996D01*
X344Y1996D01*
X344Y1994D01*
X346Y1994D01*
X346Y1992D01*
X348Y1992D01*
X348Y1990D01*
X350Y1990D01*
X350Y1988D01*
X352Y1988D01*
X352Y1986D01*
X354Y1986D01*
X354Y1984D01*
X356Y1984D01*
X356Y1982D01*
X358Y1982D01*
X358Y1980D01*
X360Y1980D01*
X360Y1978D01*
X362Y1978D01*
X362Y1976D01*
X364Y1976D01*
X364Y1974D01*
X366Y1974D01*
X366Y1972D01*
X368Y1972D01*
X368Y1970D01*
X370Y1970D01*
X370Y1968D01*
X372Y1968D01*
X372Y1966D01*
X374Y1966D01*
X374Y1964D01*
X376Y1964D01*
X376Y1962D01*
X378Y1962D01*
X378Y1960D01*
X380Y1960D01*
X380Y1958D01*
X382Y1958D01*
X382Y1956D01*
X384Y1956D01*
X384Y1954D01*
X386Y1954D01*
X386Y1952D01*
X388Y1952D01*
X388Y1950D01*
X390Y1950D01*
X390Y1946D01*
X392Y1946D01*
X392Y1942D01*
X394Y1942D01*
X394Y1926D01*
X610Y1926D01*
X610Y1836D01*
X592Y1836D01*
X592Y1816D01*
X594Y1816D01*
X594Y1814D01*
X596Y1814D01*
X596Y1812D01*
X598Y1812D01*
X598Y1810D01*
X600Y1810D01*
X600Y1808D01*
X602Y1808D01*
X602Y1806D01*
X604Y1806D01*
X604Y1802D01*
X606Y1802D01*
X606Y1798D01*
X608Y1798D01*
X608Y1792D01*
X610Y1792D01*
X610Y1770D01*
X608Y1770D01*
X608Y1764D01*
X606Y1764D01*
X606Y1760D01*
X604Y1760D01*
X604Y1756D01*
X602Y1756D01*
X602Y1754D01*
X600Y1754D01*
X600Y1750D01*
X598Y1750D01*
X598Y1748D01*
X596Y1748D01*
X596Y1746D01*
X592Y1746D01*
X592Y1744D01*
X590Y1744D01*
X590Y1742D01*
X586Y1742D01*
X586Y1720D01*
X588Y1720D01*
X588Y1718D01*
X592Y1718D01*
X592Y1716D01*
X594Y1716D01*
X594Y1714D01*
X596Y1714D01*
X596Y1712D01*
X598Y1712D01*
X598Y1710D01*
X600Y1710D01*
X600Y1708D01*
X602Y1708D01*
X602Y1706D01*
X604Y1706D01*
X604Y1702D01*
X606Y1702D01*
X606Y1698D01*
X608Y1698D01*
X608Y1692D01*
X610Y1692D01*
X610Y1670D01*
X608Y1670D01*
X608Y1664D01*
X606Y1664D01*
X606Y1660D01*
X604Y1660D01*
X604Y1656D01*
X602Y1656D01*
X602Y1654D01*
X600Y1654D01*
X600Y1650D01*
X598Y1650D01*
X598Y1648D01*
X596Y1648D01*
X596Y1646D01*
X592Y1646D01*
X592Y1644D01*
X590Y1644D01*
X590Y1642D01*
X586Y1642D01*
X586Y1620D01*
X588Y1620D01*
X588Y1618D01*
X592Y1618D01*
X592Y1616D01*
X594Y1616D01*
X594Y1614D01*
X596Y1614D01*
X596Y1612D01*
X598Y1612D01*
X598Y1610D01*
X600Y1610D01*
X600Y1608D01*
X602Y1608D01*
X602Y1606D01*
X604Y1606D01*
X604Y1602D01*
X606Y1602D01*
X606Y1598D01*
X608Y1598D01*
X608Y1592D01*
X610Y1592D01*
X610Y1570D01*
X608Y1570D01*
X608Y1564D01*
X606Y1564D01*
X606Y1560D01*
X604Y1560D01*
X604Y1556D01*
X602Y1556D01*
X602Y1554D01*
X600Y1554D01*
X600Y1550D01*
X598Y1550D01*
X598Y1548D01*
X596Y1548D01*
X596Y1546D01*
X592Y1546D01*
X592Y1544D01*
X590Y1544D01*
X590Y1542D01*
X586Y1542D01*
X586Y1520D01*
X588Y1520D01*
X588Y1518D01*
X592Y1518D01*
X592Y1516D01*
X594Y1516D01*
X594Y1514D01*
X596Y1514D01*
X596Y1512D01*
X598Y1512D01*
X598Y1510D01*
X600Y1510D01*
X600Y1508D01*
X602Y1508D01*
X602Y1506D01*
X604Y1506D01*
X604Y1502D01*
X606Y1502D01*
X606Y1498D01*
X608Y1498D01*
X608Y1492D01*
X610Y1492D01*
X610Y1476D01*
X630Y1476D01*
X630Y1478D01*
X634Y1478D01*
X634Y1480D01*
X636Y1480D01*
X636Y1482D01*
X638Y1482D01*
X638Y1484D01*
X640Y1484D01*
X640Y1486D01*
X642Y1486D01*
X642Y1488D01*
X644Y1488D01*
X644Y1490D01*
X646Y1490D01*
X646Y1492D01*
X648Y1492D01*
X648Y1494D01*
X650Y1494D01*
X650Y1496D01*
X652Y1496D01*
X652Y1498D01*
X654Y1498D01*
X654Y1500D01*
X656Y1500D01*
X656Y1502D01*
X658Y1502D01*
X658Y1504D01*
X660Y1504D01*
X660Y1506D01*
X662Y1506D01*
X662Y1508D01*
X664Y1508D01*
X664Y1510D01*
X666Y1510D01*
X666Y1512D01*
X668Y1512D01*
X668Y1514D01*
X670Y1514D01*
X670Y1516D01*
X672Y1516D01*
X672Y1518D01*
X674Y1518D01*
X674Y1520D01*
X676Y1520D01*
X676Y1522D01*
X678Y1522D01*
X678Y1524D01*
X680Y1524D01*
X680Y1526D01*
X682Y1526D01*
X682Y1528D01*
X684Y1528D01*
X684Y1530D01*
X686Y1530D01*
X686Y1532D01*
X688Y1532D01*
X688Y1534D01*
X690Y1534D01*
X690Y1536D01*
X692Y1536D01*
X692Y1538D01*
X694Y1538D01*
X694Y2160D01*
X696Y2160D01*
X696Y2166D01*
X698Y2166D01*
X698Y2168D01*
X700Y2168D01*
X700Y2172D01*
X704Y2172D01*
X704Y2174D01*
X40Y2174D01*
G37*
D02*
G36*
X40Y2078D02*
X40Y1936D01*
X60Y1936D01*
X60Y1938D01*
X64Y1938D01*
X64Y1940D01*
X66Y1940D01*
X66Y1942D01*
X70Y1942D01*
X70Y1944D01*
X72Y1944D01*
X72Y1946D01*
X76Y1946D01*
X76Y1948D01*
X78Y1948D01*
X78Y1950D01*
X82Y1950D01*
X82Y1952D01*
X86Y1952D01*
X86Y1954D01*
X88Y1954D01*
X88Y1956D01*
X92Y1956D01*
X92Y1958D01*
X94Y1958D01*
X94Y1960D01*
X98Y1960D01*
X98Y1962D01*
X102Y1962D01*
X102Y1964D01*
X104Y1964D01*
X104Y1966D01*
X108Y1966D01*
X108Y1968D01*
X110Y1968D01*
X110Y1970D01*
X114Y1970D01*
X114Y1972D01*
X118Y1972D01*
X118Y1974D01*
X120Y1974D01*
X120Y1976D01*
X124Y1976D01*
X124Y1978D01*
X126Y1978D01*
X126Y1980D01*
X130Y1980D01*
X130Y1982D01*
X134Y1982D01*
X134Y1984D01*
X136Y1984D01*
X136Y1986D01*
X140Y1986D01*
X140Y1988D01*
X142Y1988D01*
X142Y1990D01*
X146Y1990D01*
X146Y1992D01*
X150Y1992D01*
X150Y1994D01*
X152Y1994D01*
X152Y1996D01*
X156Y1996D01*
X156Y1998D01*
X158Y1998D01*
X158Y2000D01*
X162Y2000D01*
X162Y2002D01*
X164Y2002D01*
X164Y2004D01*
X168Y2004D01*
X168Y2006D01*
X172Y2006D01*
X172Y2008D01*
X174Y2008D01*
X174Y2010D01*
X178Y2010D01*
X178Y2012D01*
X180Y2012D01*
X180Y2014D01*
X184Y2014D01*
X184Y2016D01*
X188Y2016D01*
X188Y2018D01*
X190Y2018D01*
X190Y2020D01*
X194Y2020D01*
X194Y2022D01*
X196Y2022D01*
X196Y2024D01*
X200Y2024D01*
X200Y2026D01*
X204Y2026D01*
X204Y2028D01*
X206Y2028D01*
X206Y2030D01*
X210Y2030D01*
X210Y2032D01*
X212Y2032D01*
X212Y2034D01*
X216Y2034D01*
X216Y2036D01*
X218Y2036D01*
X218Y2040D01*
X220Y2040D01*
X220Y2046D01*
X222Y2046D01*
X222Y2052D01*
X224Y2052D01*
X224Y2056D01*
X226Y2056D01*
X226Y2058D01*
X228Y2058D01*
X228Y2060D01*
X230Y2060D01*
X230Y2064D01*
X232Y2064D01*
X232Y2066D01*
X236Y2066D01*
X236Y2068D01*
X238Y2068D01*
X238Y2070D01*
X240Y2070D01*
X240Y2072D01*
X244Y2072D01*
X244Y2074D01*
X248Y2074D01*
X248Y2076D01*
X256Y2076D01*
X256Y2078D01*
X40Y2078D01*
G37*
D02*
G36*
X394Y1926D02*
X394Y1904D01*
X444Y1904D01*
X444Y1902D01*
X454Y1902D01*
X454Y1900D01*
X460Y1900D01*
X460Y1898D01*
X464Y1898D01*
X464Y1896D01*
X468Y1896D01*
X468Y1894D01*
X470Y1894D01*
X470Y1892D01*
X472Y1892D01*
X472Y1890D01*
X474Y1890D01*
X474Y1888D01*
X476Y1888D01*
X476Y1886D01*
X478Y1886D01*
X478Y1884D01*
X480Y1884D01*
X480Y1880D01*
X482Y1880D01*
X482Y1876D01*
X484Y1876D01*
X484Y1872D01*
X486Y1872D01*
X486Y1866D01*
X488Y1866D01*
X488Y1838D01*
X490Y1838D01*
X490Y1836D01*
X492Y1836D01*
X492Y1834D01*
X494Y1834D01*
X494Y1832D01*
X496Y1832D01*
X496Y1830D01*
X498Y1830D01*
X498Y1828D01*
X500Y1828D01*
X500Y1826D01*
X502Y1826D01*
X502Y1824D01*
X504Y1824D01*
X504Y1822D01*
X506Y1822D01*
X506Y1820D01*
X508Y1820D01*
X508Y1818D01*
X510Y1818D01*
X510Y1816D01*
X512Y1816D01*
X512Y1810D01*
X532Y1810D01*
X532Y1812D01*
X534Y1812D01*
X534Y1814D01*
X536Y1814D01*
X536Y1816D01*
X540Y1816D01*
X540Y1836D01*
X520Y1836D01*
X520Y1926D01*
X394Y1926D01*
G37*
D02*
G36*
X394Y1904D02*
X394Y1894D01*
X414Y1894D01*
X414Y1896D01*
X418Y1896D01*
X418Y1898D01*
X422Y1898D01*
X422Y1900D01*
X428Y1900D01*
X428Y1902D01*
X436Y1902D01*
X436Y1904D01*
X394Y1904D01*
G37*
D02*
G36*
X858Y2284D02*
X858Y2264D01*
X860Y2264D01*
X860Y2262D01*
X862Y2262D01*
X862Y2260D01*
X864Y2260D01*
X864Y2256D01*
X866Y2256D01*
X866Y2252D01*
X924Y2252D01*
X924Y2256D01*
X926Y2256D01*
X926Y2258D01*
X928Y2258D01*
X928Y2260D01*
X930Y2260D01*
X930Y2264D01*
X932Y2264D01*
X932Y2284D01*
X858Y2284D01*
G37*
D02*
G36*
X1348Y2072D02*
X1348Y2070D01*
X1346Y2070D01*
X1346Y2068D01*
X1342Y2068D01*
X1342Y2066D01*
X1340Y2066D01*
X1340Y2064D01*
X1336Y2064D01*
X1336Y2062D01*
X1332Y2062D01*
X1332Y2060D01*
X1326Y2060D01*
X1326Y2058D01*
X1298Y2058D01*
X1298Y2056D01*
X1296Y2056D01*
X1296Y2054D01*
X1294Y2054D01*
X1294Y2052D01*
X1292Y2052D01*
X1292Y2050D01*
X1290Y2050D01*
X1290Y2048D01*
X1288Y2048D01*
X1288Y2046D01*
X1286Y2046D01*
X1286Y2044D01*
X1284Y2044D01*
X1284Y2042D01*
X1282Y2042D01*
X1282Y2040D01*
X1280Y2040D01*
X1280Y2038D01*
X1278Y2038D01*
X1278Y2036D01*
X1276Y2036D01*
X1276Y2034D01*
X1274Y2034D01*
X1274Y2032D01*
X1272Y2032D01*
X1272Y2028D01*
X1270Y2028D01*
X1270Y2026D01*
X1268Y2026D01*
X1268Y2024D01*
X1266Y2024D01*
X1266Y2022D01*
X1264Y2022D01*
X1264Y1902D01*
X1462Y1902D01*
X1462Y1838D01*
X1464Y1838D01*
X1464Y1836D01*
X1466Y1836D01*
X1466Y1834D01*
X1468Y1834D01*
X1468Y1832D01*
X1470Y1832D01*
X1470Y1830D01*
X1472Y1830D01*
X1472Y1828D01*
X1474Y1828D01*
X1474Y1826D01*
X1476Y1826D01*
X1476Y1824D01*
X1478Y1824D01*
X1478Y1822D01*
X1480Y1822D01*
X1480Y1820D01*
X1482Y1820D01*
X1482Y1818D01*
X1484Y1818D01*
X1484Y1816D01*
X1486Y1816D01*
X1486Y1814D01*
X1488Y1814D01*
X1488Y1812D01*
X1490Y1812D01*
X1490Y1810D01*
X1492Y1810D01*
X1492Y1808D01*
X1494Y1808D01*
X1494Y1806D01*
X1496Y1806D01*
X1496Y1804D01*
X1498Y1804D01*
X1498Y1802D01*
X1500Y1802D01*
X1500Y1800D01*
X1502Y1800D01*
X1502Y1798D01*
X1504Y1798D01*
X1504Y1796D01*
X1506Y1796D01*
X1506Y1794D01*
X1508Y1794D01*
X1508Y1792D01*
X1510Y1792D01*
X1510Y1790D01*
X1512Y1790D01*
X1512Y1788D01*
X1514Y1788D01*
X1514Y1786D01*
X1516Y1786D01*
X1516Y1784D01*
X1518Y1784D01*
X1518Y1782D01*
X1520Y1782D01*
X1520Y1780D01*
X1522Y1780D01*
X1522Y1778D01*
X1524Y1778D01*
X1524Y1776D01*
X1526Y1776D01*
X1526Y1774D01*
X1528Y1774D01*
X1528Y1772D01*
X1530Y1772D01*
X1530Y1770D01*
X1532Y1770D01*
X1532Y1768D01*
X1534Y1768D01*
X1534Y1766D01*
X1536Y1766D01*
X1536Y1764D01*
X1538Y1764D01*
X1538Y1762D01*
X1540Y1762D01*
X1540Y1760D01*
X1542Y1760D01*
X1542Y1758D01*
X1544Y1758D01*
X1544Y1756D01*
X1546Y1756D01*
X1546Y1754D01*
X1548Y1754D01*
X1548Y1752D01*
X1550Y1752D01*
X1550Y1750D01*
X1552Y1750D01*
X1552Y1748D01*
X1554Y1748D01*
X1554Y1746D01*
X1556Y1746D01*
X1556Y1744D01*
X1558Y1744D01*
X1558Y1740D01*
X1560Y1740D01*
X1560Y1732D01*
X1562Y1732D01*
X1562Y1540D01*
X1566Y1540D01*
X1566Y1538D01*
X1568Y1538D01*
X1568Y1536D01*
X1572Y1536D01*
X1572Y1534D01*
X1574Y1534D01*
X1574Y1532D01*
X1578Y1532D01*
X1578Y1530D01*
X1580Y1530D01*
X1580Y1528D01*
X1584Y1528D01*
X1584Y1526D01*
X1604Y1526D01*
X1604Y1536D01*
X1602Y1536D01*
X1602Y1544D01*
X1600Y1544D01*
X1600Y1564D01*
X1602Y1564D01*
X1602Y1572D01*
X1604Y1572D01*
X1604Y1576D01*
X1606Y1576D01*
X1606Y1580D01*
X1608Y1580D01*
X1608Y1584D01*
X1610Y1584D01*
X1610Y1586D01*
X1612Y1586D01*
X1612Y1588D01*
X1614Y1588D01*
X1614Y1590D01*
X1616Y1590D01*
X1616Y1592D01*
X1618Y1592D01*
X1618Y1594D01*
X1620Y1594D01*
X1620Y1596D01*
X1622Y1596D01*
X1622Y1598D01*
X1626Y1598D01*
X1626Y1600D01*
X1628Y1600D01*
X1628Y1602D01*
X1632Y1602D01*
X1632Y1604D01*
X1638Y1604D01*
X1638Y1624D01*
X1634Y1624D01*
X1634Y1626D01*
X1632Y1626D01*
X1632Y1628D01*
X1630Y1628D01*
X1630Y1630D01*
X1628Y1630D01*
X1628Y1632D01*
X1626Y1632D01*
X1626Y1634D01*
X1624Y1634D01*
X1624Y1638D01*
X1622Y1638D01*
X1622Y1644D01*
X1620Y1644D01*
X1620Y1662D01*
X1622Y1662D01*
X1622Y1666D01*
X1624Y1666D01*
X1624Y1670D01*
X1626Y1670D01*
X1626Y1674D01*
X1628Y1674D01*
X1628Y1676D01*
X1630Y1676D01*
X1630Y1678D01*
X1632Y1678D01*
X1632Y1680D01*
X1636Y1680D01*
X1636Y1702D01*
X1630Y1702D01*
X1630Y1704D01*
X1628Y1704D01*
X1628Y1706D01*
X1624Y1706D01*
X1624Y1708D01*
X1622Y1708D01*
X1622Y1710D01*
X1618Y1710D01*
X1618Y1712D01*
X1616Y1712D01*
X1616Y1714D01*
X1614Y1714D01*
X1614Y1716D01*
X1612Y1716D01*
X1612Y1720D01*
X1610Y1720D01*
X1610Y1722D01*
X1608Y1722D01*
X1608Y1726D01*
X1606Y1726D01*
X1606Y1728D01*
X1604Y1728D01*
X1604Y1734D01*
X1602Y1734D01*
X1602Y1742D01*
X1600Y1742D01*
X1600Y1760D01*
X1602Y1760D01*
X1602Y1768D01*
X1604Y1768D01*
X1604Y1774D01*
X1606Y1774D01*
X1606Y1776D01*
X1608Y1776D01*
X1608Y1780D01*
X1610Y1780D01*
X1610Y1782D01*
X1612Y1782D01*
X1612Y1786D01*
X1614Y1786D01*
X1614Y1788D01*
X1616Y1788D01*
X1616Y1790D01*
X1618Y1790D01*
X1618Y1810D01*
X1616Y1810D01*
X1616Y1812D01*
X1614Y1812D01*
X1614Y1816D01*
X1612Y1816D01*
X1612Y1818D01*
X1610Y1818D01*
X1610Y1820D01*
X1608Y1820D01*
X1608Y1824D01*
X1606Y1824D01*
X1606Y1828D01*
X1604Y1828D01*
X1604Y1832D01*
X1602Y1832D01*
X1602Y1840D01*
X1600Y1840D01*
X1600Y1856D01*
X1596Y1856D01*
X1596Y1858D01*
X1592Y1858D01*
X1592Y1860D01*
X1590Y1860D01*
X1590Y1862D01*
X1586Y1862D01*
X1586Y1864D01*
X1582Y1864D01*
X1582Y1866D01*
X1580Y1866D01*
X1580Y1868D01*
X1576Y1868D01*
X1576Y1870D01*
X1572Y1870D01*
X1572Y1872D01*
X1568Y1872D01*
X1568Y1874D01*
X1566Y1874D01*
X1566Y1876D01*
X1562Y1876D01*
X1562Y1878D01*
X1558Y1878D01*
X1558Y1880D01*
X1556Y1880D01*
X1556Y1882D01*
X1552Y1882D01*
X1552Y1884D01*
X1548Y1884D01*
X1548Y1886D01*
X1544Y1886D01*
X1544Y1888D01*
X1542Y1888D01*
X1542Y1890D01*
X1538Y1890D01*
X1538Y1892D01*
X1534Y1892D01*
X1534Y1894D01*
X1532Y1894D01*
X1532Y1896D01*
X1528Y1896D01*
X1528Y1898D01*
X1524Y1898D01*
X1524Y1900D01*
X1520Y1900D01*
X1520Y1902D01*
X1518Y1902D01*
X1518Y1904D01*
X1514Y1904D01*
X1514Y1906D01*
X1510Y1906D01*
X1510Y1908D01*
X1508Y1908D01*
X1508Y1910D01*
X1504Y1910D01*
X1504Y1912D01*
X1502Y1912D01*
X1502Y1914D01*
X1500Y1914D01*
X1500Y1916D01*
X1498Y1916D01*
X1498Y1918D01*
X1496Y1918D01*
X1496Y1922D01*
X1494Y1922D01*
X1494Y1996D01*
X1492Y1996D01*
X1492Y1998D01*
X1490Y1998D01*
X1490Y2000D01*
X1488Y2000D01*
X1488Y2002D01*
X1486Y2002D01*
X1486Y2004D01*
X1484Y2004D01*
X1484Y2006D01*
X1482Y2006D01*
X1482Y2008D01*
X1480Y2008D01*
X1480Y2010D01*
X1478Y2010D01*
X1478Y2012D01*
X1476Y2012D01*
X1476Y2014D01*
X1474Y2014D01*
X1474Y2016D01*
X1472Y2016D01*
X1472Y2018D01*
X1470Y2018D01*
X1470Y2020D01*
X1468Y2020D01*
X1468Y2022D01*
X1466Y2022D01*
X1466Y2024D01*
X1464Y2024D01*
X1464Y2026D01*
X1462Y2026D01*
X1462Y2028D01*
X1460Y2028D01*
X1460Y2030D01*
X1458Y2030D01*
X1458Y2032D01*
X1456Y2032D01*
X1456Y2034D01*
X1454Y2034D01*
X1454Y2036D01*
X1452Y2036D01*
X1452Y2038D01*
X1450Y2038D01*
X1450Y2040D01*
X1448Y2040D01*
X1448Y2042D01*
X1446Y2042D01*
X1446Y2044D01*
X1444Y2044D01*
X1444Y2046D01*
X1442Y2046D01*
X1442Y2048D01*
X1440Y2048D01*
X1440Y2050D01*
X1438Y2050D01*
X1438Y2052D01*
X1436Y2052D01*
X1436Y2054D01*
X1434Y2054D01*
X1434Y2056D01*
X1432Y2056D01*
X1432Y2058D01*
X1368Y2058D01*
X1368Y2072D01*
X1348Y2072D01*
G37*
D02*
G36*
X1264Y1902D02*
X1264Y1890D01*
X1284Y1890D01*
X1284Y1892D01*
X1286Y1892D01*
X1286Y1894D01*
X1290Y1894D01*
X1290Y1896D01*
X1292Y1896D01*
X1292Y1898D01*
X1296Y1898D01*
X1296Y1900D01*
X1304Y1900D01*
X1304Y1902D01*
X1264Y1902D01*
G37*
D02*
G36*
X1326Y1902D02*
X1326Y1900D01*
X1332Y1900D01*
X1332Y1898D01*
X1336Y1898D01*
X1336Y1896D01*
X1340Y1896D01*
X1340Y1894D01*
X1342Y1894D01*
X1342Y1892D01*
X1346Y1892D01*
X1346Y1890D01*
X1348Y1890D01*
X1348Y1888D01*
X1368Y1888D01*
X1368Y1902D01*
X1326Y1902D01*
G37*
D02*
G36*
X246Y1984D02*
X246Y1982D01*
X242Y1982D01*
X242Y1980D01*
X240Y1980D01*
X240Y1978D01*
X236Y1978D01*
X236Y1976D01*
X234Y1976D01*
X234Y1974D01*
X230Y1974D01*
X230Y1972D01*
X226Y1972D01*
X226Y1970D01*
X224Y1970D01*
X224Y1968D01*
X220Y1968D01*
X220Y1966D01*
X218Y1966D01*
X218Y1964D01*
X214Y1964D01*
X214Y1962D01*
X210Y1962D01*
X210Y1960D01*
X208Y1960D01*
X208Y1958D01*
X204Y1958D01*
X204Y1956D01*
X202Y1956D01*
X202Y1954D01*
X198Y1954D01*
X198Y1952D01*
X196Y1952D01*
X196Y1950D01*
X192Y1950D01*
X192Y1948D01*
X188Y1948D01*
X188Y1946D01*
X186Y1946D01*
X186Y1944D01*
X182Y1944D01*
X182Y1942D01*
X180Y1942D01*
X180Y1940D01*
X176Y1940D01*
X176Y1938D01*
X172Y1938D01*
X172Y1936D01*
X170Y1936D01*
X170Y1934D01*
X166Y1934D01*
X166Y1932D01*
X164Y1932D01*
X164Y1930D01*
X160Y1930D01*
X160Y1928D01*
X156Y1928D01*
X156Y1926D01*
X154Y1926D01*
X154Y1924D01*
X150Y1924D01*
X150Y1922D01*
X148Y1922D01*
X148Y1902D01*
X154Y1902D01*
X154Y1900D01*
X160Y1900D01*
X160Y1898D01*
X164Y1898D01*
X164Y1896D01*
X168Y1896D01*
X168Y1894D01*
X170Y1894D01*
X170Y1892D01*
X172Y1892D01*
X172Y1890D01*
X174Y1890D01*
X174Y1888D01*
X176Y1888D01*
X176Y1886D01*
X178Y1886D01*
X178Y1884D01*
X180Y1884D01*
X180Y1880D01*
X182Y1880D01*
X182Y1876D01*
X184Y1876D01*
X184Y1872D01*
X186Y1872D01*
X186Y1866D01*
X188Y1866D01*
X188Y1846D01*
X186Y1846D01*
X186Y1840D01*
X184Y1840D01*
X184Y1834D01*
X182Y1834D01*
X182Y1832D01*
X180Y1832D01*
X180Y1828D01*
X178Y1828D01*
X178Y1826D01*
X176Y1826D01*
X176Y1804D01*
X180Y1804D01*
X180Y1802D01*
X182Y1802D01*
X182Y1800D01*
X184Y1800D01*
X184Y1798D01*
X186Y1798D01*
X186Y1796D01*
X190Y1796D01*
X190Y1794D01*
X192Y1794D01*
X192Y1792D01*
X194Y1792D01*
X194Y1790D01*
X196Y1790D01*
X196Y1788D01*
X200Y1788D01*
X200Y1786D01*
X202Y1786D01*
X202Y1784D01*
X204Y1784D01*
X204Y1782D01*
X206Y1782D01*
X206Y1780D01*
X210Y1780D01*
X210Y1778D01*
X212Y1778D01*
X212Y1776D01*
X214Y1776D01*
X214Y1774D01*
X216Y1774D01*
X216Y1772D01*
X220Y1772D01*
X220Y1770D01*
X222Y1770D01*
X222Y1768D01*
X224Y1768D01*
X224Y1766D01*
X226Y1766D01*
X226Y1764D01*
X230Y1764D01*
X230Y1762D01*
X270Y1762D01*
X270Y1760D01*
X282Y1760D01*
X282Y1758D01*
X286Y1758D01*
X286Y1756D01*
X290Y1756D01*
X290Y1754D01*
X294Y1754D01*
X294Y1752D01*
X298Y1752D01*
X298Y1750D01*
X300Y1750D01*
X300Y1748D01*
X302Y1748D01*
X302Y1746D01*
X304Y1746D01*
X304Y1744D01*
X306Y1744D01*
X306Y1742D01*
X308Y1742D01*
X308Y1740D01*
X310Y1740D01*
X310Y1738D01*
X312Y1738D01*
X312Y1734D01*
X314Y1734D01*
X314Y1730D01*
X334Y1730D01*
X334Y1922D01*
X332Y1922D01*
X332Y1924D01*
X330Y1924D01*
X330Y1926D01*
X328Y1926D01*
X328Y1928D01*
X326Y1928D01*
X326Y1930D01*
X324Y1930D01*
X324Y1932D01*
X322Y1932D01*
X322Y1934D01*
X320Y1934D01*
X320Y1936D01*
X318Y1936D01*
X318Y1938D01*
X316Y1938D01*
X316Y1940D01*
X314Y1940D01*
X314Y1942D01*
X312Y1942D01*
X312Y1944D01*
X310Y1944D01*
X310Y1946D01*
X308Y1946D01*
X308Y1948D01*
X306Y1948D01*
X306Y1950D01*
X304Y1950D01*
X304Y1952D01*
X300Y1952D01*
X300Y1954D01*
X298Y1954D01*
X298Y1956D01*
X296Y1956D01*
X296Y1958D01*
X294Y1958D01*
X294Y1960D01*
X292Y1960D01*
X292Y1962D01*
X290Y1962D01*
X290Y1964D01*
X288Y1964D01*
X288Y1966D01*
X286Y1966D01*
X286Y1968D01*
X284Y1968D01*
X284Y1970D01*
X282Y1970D01*
X282Y1972D01*
X280Y1972D01*
X280Y1974D01*
X278Y1974D01*
X278Y1976D01*
X276Y1976D01*
X276Y1978D01*
X274Y1978D01*
X274Y1980D01*
X272Y1980D01*
X272Y1984D01*
X246Y1984D01*
G37*
D02*
G36*
X232Y1762D02*
X232Y1760D01*
X260Y1760D01*
X260Y1762D01*
X232Y1762D01*
G37*
D02*
G36*
X1348Y1822D02*
X1348Y1802D01*
X1350Y1802D01*
X1350Y1800D01*
X1352Y1800D01*
X1352Y1798D01*
X1354Y1798D01*
X1354Y1796D01*
X1356Y1796D01*
X1356Y1794D01*
X1358Y1794D01*
X1358Y1792D01*
X1360Y1792D01*
X1360Y1790D01*
X1362Y1790D01*
X1362Y1788D01*
X1364Y1788D01*
X1364Y1786D01*
X1366Y1786D01*
X1366Y1784D01*
X1368Y1784D01*
X1368Y1782D01*
X1370Y1782D01*
X1370Y1780D01*
X1372Y1780D01*
X1372Y1778D01*
X1374Y1778D01*
X1374Y1776D01*
X1444Y1776D01*
X1444Y1796D01*
X1442Y1796D01*
X1442Y1798D01*
X1440Y1798D01*
X1440Y1800D01*
X1438Y1800D01*
X1438Y1802D01*
X1436Y1802D01*
X1436Y1804D01*
X1434Y1804D01*
X1434Y1806D01*
X1432Y1806D01*
X1432Y1808D01*
X1368Y1808D01*
X1368Y1822D01*
X1348Y1822D01*
G37*
D02*
G36*
X1264Y1820D02*
X1264Y1702D01*
X1426Y1702D01*
X1426Y1700D01*
X1432Y1700D01*
X1432Y1698D01*
X1436Y1698D01*
X1436Y1696D01*
X1440Y1696D01*
X1440Y1694D01*
X1442Y1694D01*
X1442Y1692D01*
X1446Y1692D01*
X1446Y1690D01*
X1448Y1690D01*
X1448Y1688D01*
X1468Y1688D01*
X1468Y1696D01*
X1466Y1696D01*
X1466Y1698D01*
X1464Y1698D01*
X1464Y1700D01*
X1462Y1700D01*
X1462Y1702D01*
X1460Y1702D01*
X1460Y1704D01*
X1458Y1704D01*
X1458Y1706D01*
X1456Y1706D01*
X1456Y1708D01*
X1454Y1708D01*
X1454Y1710D01*
X1452Y1710D01*
X1452Y1712D01*
X1450Y1712D01*
X1450Y1714D01*
X1448Y1714D01*
X1448Y1716D01*
X1446Y1716D01*
X1446Y1718D01*
X1444Y1718D01*
X1444Y1720D01*
X1442Y1720D01*
X1442Y1722D01*
X1440Y1722D01*
X1440Y1724D01*
X1438Y1724D01*
X1438Y1726D01*
X1436Y1726D01*
X1436Y1728D01*
X1434Y1728D01*
X1434Y1730D01*
X1432Y1730D01*
X1432Y1732D01*
X1364Y1732D01*
X1364Y1734D01*
X1356Y1734D01*
X1356Y1736D01*
X1352Y1736D01*
X1352Y1738D01*
X1350Y1738D01*
X1350Y1740D01*
X1348Y1740D01*
X1348Y1742D01*
X1346Y1742D01*
X1346Y1744D01*
X1344Y1744D01*
X1344Y1746D01*
X1342Y1746D01*
X1342Y1748D01*
X1340Y1748D01*
X1340Y1750D01*
X1338Y1750D01*
X1338Y1752D01*
X1336Y1752D01*
X1336Y1754D01*
X1334Y1754D01*
X1334Y1756D01*
X1332Y1756D01*
X1332Y1758D01*
X1330Y1758D01*
X1330Y1760D01*
X1328Y1760D01*
X1328Y1762D01*
X1326Y1762D01*
X1326Y1764D01*
X1324Y1764D01*
X1324Y1766D01*
X1322Y1766D01*
X1322Y1768D01*
X1320Y1768D01*
X1320Y1770D01*
X1318Y1770D01*
X1318Y1772D01*
X1316Y1772D01*
X1316Y1774D01*
X1314Y1774D01*
X1314Y1776D01*
X1312Y1776D01*
X1312Y1778D01*
X1310Y1778D01*
X1310Y1780D01*
X1308Y1780D01*
X1308Y1782D01*
X1306Y1782D01*
X1306Y1784D01*
X1304Y1784D01*
X1304Y1786D01*
X1302Y1786D01*
X1302Y1788D01*
X1300Y1788D01*
X1300Y1790D01*
X1298Y1790D01*
X1298Y1792D01*
X1296Y1792D01*
X1296Y1794D01*
X1294Y1794D01*
X1294Y1800D01*
X1292Y1800D01*
X1292Y1814D01*
X1290Y1814D01*
X1290Y1816D01*
X1286Y1816D01*
X1286Y1818D01*
X1284Y1818D01*
X1284Y1820D01*
X1264Y1820D01*
G37*
D02*
G36*
X1264Y1702D02*
X1264Y1690D01*
X1284Y1690D01*
X1284Y1692D01*
X1286Y1692D01*
X1286Y1694D01*
X1290Y1694D01*
X1290Y1696D01*
X1292Y1696D01*
X1292Y1698D01*
X1296Y1698D01*
X1296Y1700D01*
X1304Y1700D01*
X1304Y1702D01*
X1264Y1702D01*
G37*
D02*
G36*
X1326Y1702D02*
X1326Y1700D01*
X1332Y1700D01*
X1332Y1698D01*
X1336Y1698D01*
X1336Y1696D01*
X1340Y1696D01*
X1340Y1694D01*
X1342Y1694D01*
X1342Y1692D01*
X1346Y1692D01*
X1346Y1690D01*
X1348Y1690D01*
X1348Y1688D01*
X1350Y1688D01*
X1350Y1686D01*
X1352Y1686D01*
X1352Y1682D01*
X1354Y1682D01*
X1354Y1680D01*
X1376Y1680D01*
X1376Y1684D01*
X1378Y1684D01*
X1378Y1686D01*
X1380Y1686D01*
X1380Y1688D01*
X1382Y1688D01*
X1382Y1690D01*
X1384Y1690D01*
X1384Y1692D01*
X1386Y1692D01*
X1386Y1694D01*
X1390Y1694D01*
X1390Y1696D01*
X1392Y1696D01*
X1392Y1698D01*
X1396Y1698D01*
X1396Y1700D01*
X1404Y1700D01*
X1404Y1702D01*
X1326Y1702D01*
G37*
D02*
G36*
X98Y1814D02*
X98Y1768D01*
X100Y1768D01*
X100Y1766D01*
X102Y1766D01*
X102Y1764D01*
X104Y1764D01*
X104Y1762D01*
X106Y1762D01*
X106Y1760D01*
X108Y1760D01*
X108Y1758D01*
X110Y1758D01*
X110Y1756D01*
X112Y1756D01*
X112Y1752D01*
X114Y1752D01*
X114Y1750D01*
X116Y1750D01*
X116Y1748D01*
X118Y1748D01*
X118Y1746D01*
X120Y1746D01*
X120Y1744D01*
X122Y1744D01*
X122Y1742D01*
X124Y1742D01*
X124Y1740D01*
X126Y1740D01*
X126Y1738D01*
X128Y1738D01*
X128Y1736D01*
X130Y1736D01*
X130Y1734D01*
X132Y1734D01*
X132Y1732D01*
X134Y1732D01*
X134Y1730D01*
X136Y1730D01*
X136Y1728D01*
X138Y1728D01*
X138Y1726D01*
X140Y1726D01*
X140Y1724D01*
X142Y1724D01*
X142Y1722D01*
X144Y1722D01*
X144Y1720D01*
X146Y1720D01*
X146Y1718D01*
X148Y1718D01*
X148Y1716D01*
X150Y1716D01*
X150Y1714D01*
X152Y1714D01*
X152Y1712D01*
X154Y1712D01*
X154Y1710D01*
X156Y1710D01*
X156Y1708D01*
X158Y1708D01*
X158Y1706D01*
X160Y1706D01*
X160Y1704D01*
X162Y1704D01*
X162Y1702D01*
X164Y1702D01*
X164Y1698D01*
X166Y1698D01*
X166Y1696D01*
X168Y1696D01*
X168Y1694D01*
X170Y1694D01*
X170Y1692D01*
X172Y1692D01*
X172Y1690D01*
X174Y1690D01*
X174Y1688D01*
X176Y1688D01*
X176Y1686D01*
X178Y1686D01*
X178Y1684D01*
X180Y1684D01*
X180Y1682D01*
X182Y1682D01*
X182Y1680D01*
X184Y1680D01*
X184Y1678D01*
X186Y1678D01*
X186Y1676D01*
X188Y1676D01*
X188Y1674D01*
X190Y1674D01*
X190Y1670D01*
X192Y1670D01*
X192Y1664D01*
X194Y1664D01*
X194Y1650D01*
X256Y1650D01*
X256Y1652D01*
X248Y1652D01*
X248Y1654D01*
X242Y1654D01*
X242Y1656D01*
X240Y1656D01*
X240Y1658D01*
X236Y1658D01*
X236Y1660D01*
X232Y1660D01*
X232Y1662D01*
X230Y1662D01*
X230Y1664D01*
X228Y1664D01*
X228Y1666D01*
X226Y1666D01*
X226Y1668D01*
X224Y1668D01*
X224Y1670D01*
X222Y1670D01*
X222Y1672D01*
X220Y1672D01*
X220Y1676D01*
X218Y1676D01*
X218Y1680D01*
X216Y1680D01*
X216Y1682D01*
X214Y1682D01*
X214Y1688D01*
X212Y1688D01*
X212Y1696D01*
X210Y1696D01*
X210Y1722D01*
X208Y1722D01*
X208Y1724D01*
X206Y1724D01*
X206Y1726D01*
X204Y1726D01*
X204Y1728D01*
X202Y1728D01*
X202Y1730D01*
X198Y1730D01*
X198Y1732D01*
X196Y1732D01*
X196Y1734D01*
X194Y1734D01*
X194Y1736D01*
X192Y1736D01*
X192Y1738D01*
X188Y1738D01*
X188Y1740D01*
X186Y1740D01*
X186Y1742D01*
X184Y1742D01*
X184Y1744D01*
X182Y1744D01*
X182Y1746D01*
X178Y1746D01*
X178Y1748D01*
X176Y1748D01*
X176Y1750D01*
X174Y1750D01*
X174Y1752D01*
X172Y1752D01*
X172Y1754D01*
X168Y1754D01*
X168Y1756D01*
X166Y1756D01*
X166Y1758D01*
X164Y1758D01*
X164Y1760D01*
X162Y1760D01*
X162Y1762D01*
X158Y1762D01*
X158Y1764D01*
X156Y1764D01*
X156Y1766D01*
X154Y1766D01*
X154Y1768D01*
X152Y1768D01*
X152Y1770D01*
X148Y1770D01*
X148Y1772D01*
X146Y1772D01*
X146Y1774D01*
X144Y1774D01*
X144Y1776D01*
X142Y1776D01*
X142Y1778D01*
X138Y1778D01*
X138Y1780D01*
X136Y1780D01*
X136Y1782D01*
X134Y1782D01*
X134Y1784D01*
X132Y1784D01*
X132Y1786D01*
X128Y1786D01*
X128Y1788D01*
X126Y1788D01*
X126Y1790D01*
X124Y1790D01*
X124Y1792D01*
X122Y1792D01*
X122Y1796D01*
X120Y1796D01*
X120Y1804D01*
X118Y1804D01*
X118Y1814D01*
X98Y1814D01*
G37*
D02*
G36*
X314Y1680D02*
X314Y1678D01*
X312Y1678D01*
X312Y1674D01*
X310Y1674D01*
X310Y1672D01*
X308Y1672D01*
X308Y1670D01*
X306Y1670D01*
X306Y1666D01*
X304Y1666D01*
X304Y1664D01*
X300Y1664D01*
X300Y1662D01*
X298Y1662D01*
X298Y1660D01*
X296Y1660D01*
X296Y1658D01*
X292Y1658D01*
X292Y1656D01*
X288Y1656D01*
X288Y1654D01*
X282Y1654D01*
X282Y1652D01*
X274Y1652D01*
X274Y1650D01*
X334Y1650D01*
X334Y1680D01*
X314Y1680D01*
G37*
D02*
G36*
X194Y1650D02*
X194Y1648D01*
X334Y1648D01*
X334Y1650D01*
X194Y1650D01*
G37*
D02*
G36*
X194Y1650D02*
X194Y1648D01*
X334Y1648D01*
X334Y1650D01*
X194Y1650D01*
G37*
D02*
G36*
X194Y1648D02*
X194Y1562D01*
X270Y1562D01*
X270Y1560D01*
X290Y1560D01*
X290Y1562D01*
X292Y1562D01*
X292Y1564D01*
X296Y1564D01*
X296Y1566D01*
X298Y1566D01*
X298Y1568D01*
X300Y1568D01*
X300Y1570D01*
X304Y1570D01*
X304Y1572D01*
X306Y1572D01*
X306Y1574D01*
X308Y1574D01*
X308Y1576D01*
X312Y1576D01*
X312Y1578D01*
X314Y1578D01*
X314Y1580D01*
X316Y1580D01*
X316Y1582D01*
X320Y1582D01*
X320Y1584D01*
X322Y1584D01*
X322Y1586D01*
X324Y1586D01*
X324Y1588D01*
X328Y1588D01*
X328Y1590D01*
X330Y1590D01*
X330Y1592D01*
X334Y1592D01*
X334Y1648D01*
X194Y1648D01*
G37*
D02*
G36*
X194Y1562D02*
X194Y1524D01*
X214Y1524D01*
X214Y1528D01*
X216Y1528D01*
X216Y1532D01*
X218Y1532D01*
X218Y1536D01*
X220Y1536D01*
X220Y1538D01*
X222Y1538D01*
X222Y1542D01*
X224Y1542D01*
X224Y1544D01*
X226Y1544D01*
X226Y1546D01*
X228Y1546D01*
X228Y1548D01*
X232Y1548D01*
X232Y1550D01*
X234Y1550D01*
X234Y1552D01*
X236Y1552D01*
X236Y1554D01*
X240Y1554D01*
X240Y1556D01*
X244Y1556D01*
X244Y1558D01*
X250Y1558D01*
X250Y1560D01*
X260Y1560D01*
X260Y1562D01*
X194Y1562D01*
G37*
D02*
G36*
X1698Y1726D02*
X1698Y1722D01*
X1696Y1722D01*
X1696Y1720D01*
X1694Y1720D01*
X1694Y1716D01*
X1692Y1716D01*
X1692Y1714D01*
X1690Y1714D01*
X1690Y1712D01*
X1688Y1712D01*
X1688Y1710D01*
X1684Y1710D01*
X1684Y1708D01*
X1682Y1708D01*
X1682Y1706D01*
X1678Y1706D01*
X1678Y1704D01*
X1676Y1704D01*
X1676Y1702D01*
X1670Y1702D01*
X1670Y1680D01*
X1674Y1680D01*
X1674Y1678D01*
X1676Y1678D01*
X1676Y1676D01*
X1678Y1676D01*
X1678Y1674D01*
X1680Y1674D01*
X1680Y1670D01*
X1682Y1670D01*
X1682Y1668D01*
X1684Y1668D01*
X1684Y1662D01*
X1686Y1662D01*
X1686Y1644D01*
X1684Y1644D01*
X1684Y1638D01*
X1682Y1638D01*
X1682Y1634D01*
X1680Y1634D01*
X1680Y1632D01*
X1678Y1632D01*
X1678Y1630D01*
X1676Y1630D01*
X1676Y1628D01*
X1674Y1628D01*
X1674Y1626D01*
X1672Y1626D01*
X1672Y1624D01*
X1668Y1624D01*
X1668Y1604D01*
X1674Y1604D01*
X1674Y1602D01*
X1678Y1602D01*
X1678Y1600D01*
X1680Y1600D01*
X1680Y1598D01*
X1684Y1598D01*
X1684Y1596D01*
X1686Y1596D01*
X1686Y1594D01*
X1688Y1594D01*
X1688Y1592D01*
X1692Y1592D01*
X1692Y1588D01*
X1694Y1588D01*
X1694Y1586D01*
X1696Y1586D01*
X1696Y1584D01*
X1698Y1584D01*
X1698Y1580D01*
X1718Y1580D01*
X1718Y1726D01*
X1698Y1726D01*
G37*
D02*
G36*
X1026Y2320D02*
X1026Y2300D01*
X1028Y2300D01*
X1028Y2298D01*
X1030Y2298D01*
X1030Y2296D01*
X1032Y2296D01*
X1032Y2294D01*
X1034Y2294D01*
X1034Y2292D01*
X1036Y2292D01*
X1036Y2290D01*
X1038Y2290D01*
X1038Y2288D01*
X1040Y2288D01*
X1040Y2286D01*
X1042Y2286D01*
X1042Y2284D01*
X1044Y2284D01*
X1044Y2282D01*
X1046Y2282D01*
X1046Y2280D01*
X1048Y2280D01*
X1048Y2278D01*
X1276Y2278D01*
X1276Y2276D01*
X1282Y2276D01*
X1282Y2274D01*
X1286Y2274D01*
X1286Y2272D01*
X1290Y2272D01*
X1290Y2270D01*
X1294Y2270D01*
X1294Y2268D01*
X1296Y2268D01*
X1296Y2266D01*
X1298Y2266D01*
X1298Y2264D01*
X1300Y2264D01*
X1300Y2262D01*
X1302Y2262D01*
X1302Y2260D01*
X1304Y2260D01*
X1304Y2256D01*
X1306Y2256D01*
X1306Y2254D01*
X1308Y2254D01*
X1308Y2250D01*
X1310Y2250D01*
X1310Y2244D01*
X1312Y2244D01*
X1312Y2232D01*
X1314Y2232D01*
X1314Y2230D01*
X1312Y2230D01*
X1312Y2218D01*
X1310Y2218D01*
X1310Y2212D01*
X1308Y2212D01*
X1308Y2208D01*
X1306Y2208D01*
X1306Y2204D01*
X1750Y2204D01*
X1750Y2202D01*
X1760Y2202D01*
X1760Y2200D01*
X1766Y2200D01*
X1766Y2198D01*
X1770Y2198D01*
X1770Y2196D01*
X1774Y2196D01*
X1774Y2194D01*
X1778Y2194D01*
X1778Y2192D01*
X1782Y2192D01*
X1782Y2190D01*
X1784Y2190D01*
X1784Y2188D01*
X1786Y2188D01*
X1786Y2186D01*
X1790Y2186D01*
X1790Y2184D01*
X1792Y2184D01*
X1792Y2182D01*
X1794Y2182D01*
X1794Y2180D01*
X1796Y2180D01*
X1796Y2176D01*
X1798Y2176D01*
X1798Y2174D01*
X1800Y2174D01*
X1800Y2172D01*
X1802Y2172D01*
X1802Y2168D01*
X1804Y2168D01*
X1804Y2164D01*
X1806Y2164D01*
X1806Y2160D01*
X1808Y2160D01*
X1808Y2156D01*
X1810Y2156D01*
X1810Y2150D01*
X1812Y2150D01*
X1812Y2140D01*
X1814Y2140D01*
X1814Y2122D01*
X1812Y2122D01*
X1812Y2112D01*
X1810Y2112D01*
X1810Y2106D01*
X1808Y2106D01*
X1808Y2102D01*
X1806Y2102D01*
X1806Y2096D01*
X1804Y2096D01*
X1804Y2094D01*
X1802Y2094D01*
X1802Y2090D01*
X1800Y2090D01*
X1800Y2088D01*
X1798Y2088D01*
X1798Y2084D01*
X1796Y2084D01*
X1796Y2082D01*
X1794Y2082D01*
X1794Y2080D01*
X1792Y2080D01*
X1792Y2078D01*
X1790Y2078D01*
X1790Y2076D01*
X1788Y2076D01*
X1788Y2074D01*
X1786Y2074D01*
X1786Y2072D01*
X1782Y2072D01*
X1782Y2070D01*
X1780Y2070D01*
X1780Y2068D01*
X1776Y2068D01*
X1776Y2066D01*
X1772Y2066D01*
X1772Y2064D01*
X1768Y2064D01*
X1768Y2062D01*
X1762Y2062D01*
X1762Y2060D01*
X1754Y2060D01*
X1754Y2058D01*
X1946Y2058D01*
X1946Y2320D01*
X1026Y2320D01*
G37*
D02*
G36*
X1050Y2278D02*
X1050Y2276D01*
X1052Y2276D01*
X1052Y2274D01*
X1054Y2274D01*
X1054Y2272D01*
X1056Y2272D01*
X1056Y2270D01*
X1058Y2270D01*
X1058Y2268D01*
X1060Y2268D01*
X1060Y2266D01*
X1062Y2266D01*
X1062Y2264D01*
X1064Y2264D01*
X1064Y2262D01*
X1066Y2262D01*
X1066Y2260D01*
X1068Y2260D01*
X1068Y2258D01*
X1070Y2258D01*
X1070Y2256D01*
X1072Y2256D01*
X1072Y2254D01*
X1074Y2254D01*
X1074Y2252D01*
X1076Y2252D01*
X1076Y2250D01*
X1078Y2250D01*
X1078Y2248D01*
X1080Y2248D01*
X1080Y2246D01*
X1082Y2246D01*
X1082Y2244D01*
X1084Y2244D01*
X1084Y2240D01*
X1086Y2240D01*
X1086Y2184D01*
X1254Y2184D01*
X1254Y2186D01*
X1248Y2186D01*
X1248Y2188D01*
X1244Y2188D01*
X1244Y2190D01*
X1240Y2190D01*
X1240Y2192D01*
X1238Y2192D01*
X1238Y2194D01*
X1234Y2194D01*
X1234Y2196D01*
X1232Y2196D01*
X1232Y2198D01*
X1230Y2198D01*
X1230Y2200D01*
X1228Y2200D01*
X1228Y2204D01*
X1226Y2204D01*
X1226Y2206D01*
X1224Y2206D01*
X1224Y2210D01*
X1222Y2210D01*
X1222Y2214D01*
X1220Y2214D01*
X1220Y2222D01*
X1218Y2222D01*
X1218Y2240D01*
X1220Y2240D01*
X1220Y2246D01*
X1222Y2246D01*
X1222Y2252D01*
X1224Y2252D01*
X1224Y2256D01*
X1226Y2256D01*
X1226Y2258D01*
X1228Y2258D01*
X1228Y2260D01*
X1230Y2260D01*
X1230Y2264D01*
X1232Y2264D01*
X1232Y2266D01*
X1236Y2266D01*
X1236Y2268D01*
X1238Y2268D01*
X1238Y2270D01*
X1240Y2270D01*
X1240Y2272D01*
X1244Y2272D01*
X1244Y2274D01*
X1248Y2274D01*
X1248Y2276D01*
X1256Y2276D01*
X1256Y2278D01*
X1050Y2278D01*
G37*
D02*
G36*
X1304Y2204D02*
X1304Y2202D01*
X1302Y2202D01*
X1302Y2200D01*
X1300Y2200D01*
X1300Y2198D01*
X1298Y2198D01*
X1298Y2196D01*
X1296Y2196D01*
X1296Y2194D01*
X1294Y2194D01*
X1294Y2192D01*
X1292Y2192D01*
X1292Y2190D01*
X1288Y2190D01*
X1288Y2188D01*
X1284Y2188D01*
X1284Y2186D01*
X1278Y2186D01*
X1278Y2184D01*
X1692Y2184D01*
X1692Y2186D01*
X1694Y2186D01*
X1694Y2188D01*
X1696Y2188D01*
X1696Y2190D01*
X1700Y2190D01*
X1700Y2192D01*
X1702Y2192D01*
X1702Y2194D01*
X1706Y2194D01*
X1706Y2196D01*
X1710Y2196D01*
X1710Y2198D01*
X1716Y2198D01*
X1716Y2200D01*
X1722Y2200D01*
X1722Y2202D01*
X1732Y2202D01*
X1732Y2204D01*
X1304Y2204D01*
G37*
D02*
G36*
X1086Y2184D02*
X1086Y2182D01*
X1690Y2182D01*
X1690Y2184D01*
X1086Y2184D01*
G37*
D02*
G36*
X1086Y2184D02*
X1086Y2182D01*
X1690Y2182D01*
X1690Y2184D01*
X1086Y2184D01*
G37*
D02*
G36*
X1086Y2182D02*
X1086Y2152D01*
X1462Y2152D01*
X1462Y2088D01*
X1464Y2088D01*
X1464Y2086D01*
X1466Y2086D01*
X1466Y2084D01*
X1468Y2084D01*
X1468Y2082D01*
X1470Y2082D01*
X1470Y2080D01*
X1472Y2080D01*
X1472Y2078D01*
X1474Y2078D01*
X1474Y2076D01*
X1476Y2076D01*
X1476Y2074D01*
X1478Y2074D01*
X1478Y2072D01*
X1480Y2072D01*
X1480Y2070D01*
X1482Y2070D01*
X1482Y2068D01*
X1484Y2068D01*
X1484Y2066D01*
X1486Y2066D01*
X1486Y2064D01*
X1488Y2064D01*
X1488Y2062D01*
X1490Y2062D01*
X1490Y2060D01*
X1492Y2060D01*
X1492Y2058D01*
X1728Y2058D01*
X1728Y2060D01*
X1720Y2060D01*
X1720Y2062D01*
X1714Y2062D01*
X1714Y2064D01*
X1710Y2064D01*
X1710Y2066D01*
X1706Y2066D01*
X1706Y2068D01*
X1702Y2068D01*
X1702Y2070D01*
X1698Y2070D01*
X1698Y2072D01*
X1696Y2072D01*
X1696Y2074D01*
X1694Y2074D01*
X1694Y2076D01*
X1692Y2076D01*
X1692Y2078D01*
X1690Y2078D01*
X1690Y2080D01*
X1688Y2080D01*
X1688Y2082D01*
X1686Y2082D01*
X1686Y2084D01*
X1684Y2084D01*
X1684Y2086D01*
X1682Y2086D01*
X1682Y2088D01*
X1680Y2088D01*
X1680Y2092D01*
X1678Y2092D01*
X1678Y2096D01*
X1676Y2096D01*
X1676Y2100D01*
X1674Y2100D01*
X1674Y2104D01*
X1672Y2104D01*
X1672Y2110D01*
X1670Y2110D01*
X1670Y2116D01*
X1668Y2116D01*
X1668Y2144D01*
X1670Y2144D01*
X1670Y2152D01*
X1672Y2152D01*
X1672Y2158D01*
X1674Y2158D01*
X1674Y2162D01*
X1676Y2162D01*
X1676Y2166D01*
X1678Y2166D01*
X1678Y2170D01*
X1680Y2170D01*
X1680Y2172D01*
X1682Y2172D01*
X1682Y2176D01*
X1684Y2176D01*
X1684Y2178D01*
X1686Y2178D01*
X1686Y2180D01*
X1688Y2180D01*
X1688Y2182D01*
X1086Y2182D01*
G37*
D02*
G36*
X1086Y2152D02*
X1086Y1926D01*
X1172Y1926D01*
X1172Y1924D01*
X1180Y1924D01*
X1180Y1922D01*
X1186Y1922D01*
X1186Y1920D01*
X1188Y1920D01*
X1188Y1918D01*
X1192Y1918D01*
X1192Y1916D01*
X1194Y1916D01*
X1194Y1914D01*
X1196Y1914D01*
X1196Y1912D01*
X1198Y1912D01*
X1198Y1910D01*
X1200Y1910D01*
X1200Y1908D01*
X1220Y1908D01*
X1220Y2038D01*
X1222Y2038D01*
X1222Y2042D01*
X1224Y2042D01*
X1224Y2044D01*
X1226Y2044D01*
X1226Y2046D01*
X1228Y2046D01*
X1228Y2048D01*
X1230Y2048D01*
X1230Y2052D01*
X1232Y2052D01*
X1232Y2054D01*
X1234Y2054D01*
X1234Y2056D01*
X1236Y2056D01*
X1236Y2058D01*
X1238Y2058D01*
X1238Y2060D01*
X1240Y2060D01*
X1240Y2062D01*
X1242Y2062D01*
X1242Y2064D01*
X1244Y2064D01*
X1244Y2066D01*
X1246Y2066D01*
X1246Y2068D01*
X1248Y2068D01*
X1248Y2070D01*
X1250Y2070D01*
X1250Y2072D01*
X1252Y2072D01*
X1252Y2074D01*
X1254Y2074D01*
X1254Y2076D01*
X1256Y2076D01*
X1256Y2078D01*
X1258Y2078D01*
X1258Y2080D01*
X1260Y2080D01*
X1260Y2082D01*
X1262Y2082D01*
X1262Y2084D01*
X1264Y2084D01*
X1264Y2086D01*
X1266Y2086D01*
X1266Y2088D01*
X1268Y2088D01*
X1268Y2118D01*
X1270Y2118D01*
X1270Y2124D01*
X1272Y2124D01*
X1272Y2128D01*
X1274Y2128D01*
X1274Y2130D01*
X1276Y2130D01*
X1276Y2134D01*
X1278Y2134D01*
X1278Y2136D01*
X1280Y2136D01*
X1280Y2138D01*
X1282Y2138D01*
X1282Y2140D01*
X1284Y2140D01*
X1284Y2142D01*
X1286Y2142D01*
X1286Y2144D01*
X1290Y2144D01*
X1290Y2146D01*
X1292Y2146D01*
X1292Y2148D01*
X1296Y2148D01*
X1296Y2150D01*
X1304Y2150D01*
X1304Y2152D01*
X1086Y2152D01*
G37*
D02*
G36*
X1326Y2152D02*
X1326Y2150D01*
X1332Y2150D01*
X1332Y2148D01*
X1336Y2148D01*
X1336Y2146D01*
X1340Y2146D01*
X1340Y2144D01*
X1342Y2144D01*
X1342Y2142D01*
X1346Y2142D01*
X1346Y2140D01*
X1348Y2140D01*
X1348Y2138D01*
X1368Y2138D01*
X1368Y2152D01*
X1326Y2152D01*
G37*
D02*
G36*
X1494Y2058D02*
X1494Y2056D01*
X1946Y2056D01*
X1946Y2058D01*
X1494Y2058D01*
G37*
D02*
G36*
X1494Y2058D02*
X1494Y2056D01*
X1946Y2056D01*
X1946Y2058D01*
X1494Y2058D01*
G37*
D02*
G36*
X1496Y2056D02*
X1496Y2054D01*
X1498Y2054D01*
X1498Y2052D01*
X1500Y2052D01*
X1500Y2050D01*
X1502Y2050D01*
X1502Y2048D01*
X1504Y2048D01*
X1504Y2046D01*
X1506Y2046D01*
X1506Y2044D01*
X1508Y2044D01*
X1508Y2042D01*
X1510Y2042D01*
X1510Y2040D01*
X1512Y2040D01*
X1512Y2038D01*
X1514Y2038D01*
X1514Y2036D01*
X1516Y2036D01*
X1516Y2034D01*
X1518Y2034D01*
X1518Y2032D01*
X1520Y2032D01*
X1520Y2030D01*
X1524Y2030D01*
X1524Y2028D01*
X1526Y2028D01*
X1526Y2026D01*
X1528Y2026D01*
X1528Y2024D01*
X1530Y2024D01*
X1530Y2022D01*
X1532Y2022D01*
X1532Y2018D01*
X1534Y2018D01*
X1534Y2016D01*
X1536Y2016D01*
X1536Y2010D01*
X1538Y2010D01*
X1538Y1942D01*
X1540Y1942D01*
X1540Y1940D01*
X1544Y1940D01*
X1544Y1938D01*
X1546Y1938D01*
X1546Y1936D01*
X1550Y1936D01*
X1550Y1934D01*
X1554Y1934D01*
X1554Y1932D01*
X1556Y1932D01*
X1556Y1930D01*
X1560Y1930D01*
X1560Y1928D01*
X1564Y1928D01*
X1564Y1926D01*
X1568Y1926D01*
X1568Y1924D01*
X1570Y1924D01*
X1570Y1922D01*
X1574Y1922D01*
X1574Y1920D01*
X1578Y1920D01*
X1578Y1918D01*
X1580Y1918D01*
X1580Y1916D01*
X1584Y1916D01*
X1584Y1914D01*
X1588Y1914D01*
X1588Y1912D01*
X1592Y1912D01*
X1592Y1910D01*
X1594Y1910D01*
X1594Y1908D01*
X1598Y1908D01*
X1598Y1906D01*
X1602Y1906D01*
X1602Y1904D01*
X1604Y1904D01*
X1604Y1902D01*
X1664Y1902D01*
X1664Y1900D01*
X1672Y1900D01*
X1672Y1898D01*
X1676Y1898D01*
X1676Y1896D01*
X1680Y1896D01*
X1680Y1894D01*
X1682Y1894D01*
X1682Y1892D01*
X1686Y1892D01*
X1686Y1890D01*
X1688Y1890D01*
X1688Y1888D01*
X1690Y1888D01*
X1690Y1886D01*
X1692Y1886D01*
X1692Y1884D01*
X1694Y1884D01*
X1694Y1882D01*
X1860Y1882D01*
X1860Y1880D01*
X1866Y1880D01*
X1866Y1878D01*
X1868Y1878D01*
X1868Y1876D01*
X1872Y1876D01*
X1872Y1874D01*
X1874Y1874D01*
X1874Y1872D01*
X1876Y1872D01*
X1876Y1870D01*
X1878Y1870D01*
X1878Y1866D01*
X1880Y1866D01*
X1880Y1862D01*
X1882Y1862D01*
X1882Y1854D01*
X1884Y1854D01*
X1884Y1844D01*
X1882Y1844D01*
X1882Y1838D01*
X1880Y1838D01*
X1880Y1834D01*
X1878Y1834D01*
X1878Y1830D01*
X1876Y1830D01*
X1876Y1828D01*
X1874Y1828D01*
X1874Y1826D01*
X1872Y1826D01*
X1872Y1824D01*
X1870Y1824D01*
X1870Y1822D01*
X1868Y1822D01*
X1868Y1820D01*
X1864Y1820D01*
X1864Y1818D01*
X1858Y1818D01*
X1858Y1816D01*
X1940Y1816D01*
X1940Y1818D01*
X1934Y1818D01*
X1934Y1820D01*
X1930Y1820D01*
X1930Y1822D01*
X1928Y1822D01*
X1928Y1824D01*
X1926Y1824D01*
X1926Y1826D01*
X1924Y1826D01*
X1924Y1828D01*
X1922Y1828D01*
X1922Y1830D01*
X1920Y1830D01*
X1920Y1834D01*
X1918Y1834D01*
X1918Y1838D01*
X1916Y1838D01*
X1916Y1846D01*
X1914Y1846D01*
X1914Y1852D01*
X1916Y1852D01*
X1916Y1860D01*
X1918Y1860D01*
X1918Y1866D01*
X1920Y1866D01*
X1920Y1868D01*
X1922Y1868D01*
X1922Y1872D01*
X1924Y1872D01*
X1924Y1874D01*
X1926Y1874D01*
X1926Y1876D01*
X1930Y1876D01*
X1930Y1878D01*
X1932Y1878D01*
X1932Y1880D01*
X1938Y1880D01*
X1938Y1882D01*
X1946Y1882D01*
X1946Y2056D01*
X1496Y2056D01*
G37*
D02*
G36*
X1086Y1926D02*
X1086Y1666D01*
X1088Y1666D01*
X1088Y1664D01*
X1092Y1664D01*
X1092Y1662D01*
X1094Y1662D01*
X1094Y1660D01*
X1096Y1660D01*
X1096Y1658D01*
X1100Y1658D01*
X1100Y1656D01*
X1102Y1656D01*
X1102Y1654D01*
X1106Y1654D01*
X1106Y1652D01*
X1108Y1652D01*
X1108Y1650D01*
X1128Y1650D01*
X1128Y1658D01*
X1126Y1658D01*
X1126Y1662D01*
X1124Y1662D01*
X1124Y1666D01*
X1122Y1666D01*
X1122Y1676D01*
X1120Y1676D01*
X1120Y1686D01*
X1122Y1686D01*
X1122Y1694D01*
X1124Y1694D01*
X1124Y1700D01*
X1126Y1700D01*
X1126Y1704D01*
X1128Y1704D01*
X1128Y1706D01*
X1130Y1706D01*
X1130Y1710D01*
X1132Y1710D01*
X1132Y1712D01*
X1134Y1712D01*
X1134Y1714D01*
X1136Y1714D01*
X1136Y1716D01*
X1140Y1716D01*
X1140Y1718D01*
X1142Y1718D01*
X1142Y1720D01*
X1146Y1720D01*
X1146Y1740D01*
X1144Y1740D01*
X1144Y1742D01*
X1142Y1742D01*
X1142Y1744D01*
X1138Y1744D01*
X1138Y1746D01*
X1136Y1746D01*
X1136Y1748D01*
X1134Y1748D01*
X1134Y1750D01*
X1132Y1750D01*
X1132Y1752D01*
X1130Y1752D01*
X1130Y1754D01*
X1128Y1754D01*
X1128Y1758D01*
X1126Y1758D01*
X1126Y1762D01*
X1124Y1762D01*
X1124Y1766D01*
X1122Y1766D01*
X1122Y1776D01*
X1120Y1776D01*
X1120Y1786D01*
X1122Y1786D01*
X1122Y1794D01*
X1124Y1794D01*
X1124Y1800D01*
X1126Y1800D01*
X1126Y1804D01*
X1128Y1804D01*
X1128Y1806D01*
X1130Y1806D01*
X1130Y1810D01*
X1132Y1810D01*
X1132Y1812D01*
X1134Y1812D01*
X1134Y1814D01*
X1136Y1814D01*
X1136Y1816D01*
X1140Y1816D01*
X1140Y1818D01*
X1142Y1818D01*
X1142Y1820D01*
X1146Y1820D01*
X1146Y1840D01*
X1144Y1840D01*
X1144Y1842D01*
X1142Y1842D01*
X1142Y1844D01*
X1138Y1844D01*
X1138Y1846D01*
X1136Y1846D01*
X1136Y1848D01*
X1134Y1848D01*
X1134Y1850D01*
X1132Y1850D01*
X1132Y1852D01*
X1130Y1852D01*
X1130Y1854D01*
X1128Y1854D01*
X1128Y1858D01*
X1126Y1858D01*
X1126Y1862D01*
X1124Y1862D01*
X1124Y1866D01*
X1122Y1866D01*
X1122Y1876D01*
X1120Y1876D01*
X1120Y1886D01*
X1122Y1886D01*
X1122Y1894D01*
X1124Y1894D01*
X1124Y1900D01*
X1126Y1900D01*
X1126Y1904D01*
X1128Y1904D01*
X1128Y1906D01*
X1130Y1906D01*
X1130Y1910D01*
X1132Y1910D01*
X1132Y1912D01*
X1134Y1912D01*
X1134Y1914D01*
X1136Y1914D01*
X1136Y1916D01*
X1140Y1916D01*
X1140Y1918D01*
X1142Y1918D01*
X1142Y1920D01*
X1146Y1920D01*
X1146Y1922D01*
X1150Y1922D01*
X1150Y1924D01*
X1158Y1924D01*
X1158Y1926D01*
X1086Y1926D01*
G37*
D02*
G36*
X1608Y1902D02*
X1608Y1900D01*
X1612Y1900D01*
X1612Y1898D01*
X1634Y1898D01*
X1634Y1900D01*
X1642Y1900D01*
X1642Y1902D01*
X1608Y1902D01*
G37*
D02*
G36*
X1696Y1882D02*
X1696Y1878D01*
X1698Y1878D01*
X1698Y1876D01*
X1700Y1876D01*
X1700Y1872D01*
X1702Y1872D01*
X1702Y1866D01*
X1704Y1866D01*
X1704Y1860D01*
X1706Y1860D01*
X1706Y1834D01*
X1710Y1834D01*
X1710Y1832D01*
X1712Y1832D01*
X1712Y1830D01*
X1714Y1830D01*
X1714Y1828D01*
X1716Y1828D01*
X1716Y1826D01*
X1720Y1826D01*
X1720Y1824D01*
X1722Y1824D01*
X1722Y1822D01*
X1724Y1822D01*
X1724Y1820D01*
X1728Y1820D01*
X1728Y1818D01*
X1730Y1818D01*
X1730Y1816D01*
X1842Y1816D01*
X1842Y1818D01*
X1836Y1818D01*
X1836Y1820D01*
X1832Y1820D01*
X1832Y1822D01*
X1830Y1822D01*
X1830Y1824D01*
X1826Y1824D01*
X1826Y1828D01*
X1824Y1828D01*
X1824Y1830D01*
X1822Y1830D01*
X1822Y1832D01*
X1820Y1832D01*
X1820Y1836D01*
X1818Y1836D01*
X1818Y1844D01*
X1816Y1844D01*
X1816Y1856D01*
X1818Y1856D01*
X1818Y1862D01*
X1820Y1862D01*
X1820Y1866D01*
X1822Y1866D01*
X1822Y1870D01*
X1824Y1870D01*
X1824Y1872D01*
X1826Y1872D01*
X1826Y1874D01*
X1828Y1874D01*
X1828Y1876D01*
X1830Y1876D01*
X1830Y1878D01*
X1834Y1878D01*
X1834Y1880D01*
X1840Y1880D01*
X1840Y1882D01*
X1696Y1882D01*
G37*
D02*
G36*
X1732Y1816D02*
X1732Y1814D01*
X1946Y1814D01*
X1946Y1816D01*
X1732Y1816D01*
G37*
D02*
G36*
X1732Y1816D02*
X1732Y1814D01*
X1946Y1814D01*
X1946Y1816D01*
X1732Y1816D01*
G37*
D02*
G36*
X1734Y1814D02*
X1734Y1812D01*
X1738Y1812D01*
X1738Y1810D01*
X1740Y1810D01*
X1740Y1808D01*
X1742Y1808D01*
X1742Y1806D01*
X1744Y1806D01*
X1744Y1804D01*
X1748Y1804D01*
X1748Y1802D01*
X1750Y1802D01*
X1750Y1800D01*
X1752Y1800D01*
X1752Y1798D01*
X1754Y1798D01*
X1754Y1796D01*
X1756Y1796D01*
X1756Y1794D01*
X1758Y1794D01*
X1758Y1792D01*
X1760Y1792D01*
X1760Y1788D01*
X1762Y1788D01*
X1762Y1706D01*
X1856Y1706D01*
X1856Y1704D01*
X1866Y1704D01*
X1866Y1702D01*
X1872Y1702D01*
X1872Y1700D01*
X1874Y1700D01*
X1874Y1698D01*
X1878Y1698D01*
X1878Y1696D01*
X1882Y1696D01*
X1882Y1694D01*
X1884Y1694D01*
X1884Y1692D01*
X1886Y1692D01*
X1886Y1690D01*
X1888Y1690D01*
X1888Y1688D01*
X1890Y1688D01*
X1890Y1686D01*
X1892Y1686D01*
X1892Y1684D01*
X1894Y1684D01*
X1894Y1680D01*
X1896Y1680D01*
X1896Y1676D01*
X1898Y1676D01*
X1898Y1672D01*
X1900Y1672D01*
X1900Y1666D01*
X1902Y1666D01*
X1902Y1638D01*
X1900Y1638D01*
X1900Y1632D01*
X1898Y1632D01*
X1898Y1628D01*
X1896Y1628D01*
X1896Y1626D01*
X1894Y1626D01*
X1894Y1622D01*
X1892Y1622D01*
X1892Y1620D01*
X1890Y1620D01*
X1890Y1618D01*
X1888Y1618D01*
X1888Y1614D01*
X1884Y1614D01*
X1884Y1612D01*
X1882Y1612D01*
X1882Y1610D01*
X1880Y1610D01*
X1880Y1608D01*
X1876Y1608D01*
X1876Y1606D01*
X1872Y1606D01*
X1872Y1604D01*
X1868Y1604D01*
X1868Y1602D01*
X1862Y1602D01*
X1862Y1600D01*
X1946Y1600D01*
X1946Y1814D01*
X1734Y1814D01*
G37*
D02*
G36*
X40Y1722D02*
X40Y736D01*
X276Y736D01*
X276Y734D01*
X284Y734D01*
X284Y732D01*
X288Y732D01*
X288Y730D01*
X292Y730D01*
X292Y728D01*
X312Y728D01*
X312Y792D01*
X310Y792D01*
X310Y794D01*
X308Y794D01*
X308Y796D01*
X306Y796D01*
X306Y798D01*
X304Y798D01*
X304Y800D01*
X302Y800D01*
X302Y802D01*
X300Y802D01*
X300Y804D01*
X298Y804D01*
X298Y806D01*
X296Y806D01*
X296Y808D01*
X294Y808D01*
X294Y810D01*
X292Y810D01*
X292Y812D01*
X290Y812D01*
X290Y814D01*
X288Y814D01*
X288Y816D01*
X286Y816D01*
X286Y818D01*
X284Y818D01*
X284Y820D01*
X282Y820D01*
X282Y822D01*
X280Y822D01*
X280Y824D01*
X278Y824D01*
X278Y826D01*
X252Y826D01*
X252Y828D01*
X246Y828D01*
X246Y830D01*
X242Y830D01*
X242Y832D01*
X238Y832D01*
X238Y834D01*
X234Y834D01*
X234Y836D01*
X232Y836D01*
X232Y838D01*
X230Y838D01*
X230Y840D01*
X226Y840D01*
X226Y842D01*
X224Y842D01*
X224Y846D01*
X222Y846D01*
X222Y848D01*
X220Y848D01*
X220Y850D01*
X218Y850D01*
X218Y854D01*
X216Y854D01*
X216Y858D01*
X214Y858D01*
X214Y862D01*
X212Y862D01*
X212Y870D01*
X210Y870D01*
X210Y894D01*
X208Y894D01*
X208Y896D01*
X206Y896D01*
X206Y898D01*
X204Y898D01*
X204Y900D01*
X202Y900D01*
X202Y902D01*
X200Y902D01*
X200Y904D01*
X198Y904D01*
X198Y906D01*
X196Y906D01*
X196Y908D01*
X194Y908D01*
X194Y910D01*
X192Y910D01*
X192Y912D01*
X190Y912D01*
X190Y914D01*
X188Y914D01*
X188Y916D01*
X186Y916D01*
X186Y918D01*
X184Y918D01*
X184Y920D01*
X182Y920D01*
X182Y922D01*
X180Y922D01*
X180Y924D01*
X178Y924D01*
X178Y926D01*
X176Y926D01*
X176Y928D01*
X174Y928D01*
X174Y930D01*
X172Y930D01*
X172Y932D01*
X170Y932D01*
X170Y934D01*
X168Y934D01*
X168Y936D01*
X166Y936D01*
X166Y938D01*
X164Y938D01*
X164Y940D01*
X162Y940D01*
X162Y942D01*
X160Y942D01*
X160Y944D01*
X158Y944D01*
X158Y946D01*
X156Y946D01*
X156Y948D01*
X154Y948D01*
X154Y950D01*
X152Y950D01*
X152Y952D01*
X150Y952D01*
X150Y954D01*
X148Y954D01*
X148Y956D01*
X146Y956D01*
X146Y958D01*
X144Y958D01*
X144Y960D01*
X142Y960D01*
X142Y964D01*
X140Y964D01*
X140Y966D01*
X138Y966D01*
X138Y970D01*
X136Y970D01*
X136Y976D01*
X134Y976D01*
X134Y1646D01*
X132Y1646D01*
X132Y1648D01*
X130Y1648D01*
X130Y1650D01*
X128Y1650D01*
X128Y1652D01*
X126Y1652D01*
X126Y1654D01*
X124Y1654D01*
X124Y1656D01*
X122Y1656D01*
X122Y1658D01*
X120Y1658D01*
X120Y1660D01*
X118Y1660D01*
X118Y1662D01*
X116Y1662D01*
X116Y1664D01*
X114Y1664D01*
X114Y1666D01*
X112Y1666D01*
X112Y1668D01*
X110Y1668D01*
X110Y1670D01*
X108Y1670D01*
X108Y1672D01*
X106Y1672D01*
X106Y1674D01*
X104Y1674D01*
X104Y1676D01*
X102Y1676D01*
X102Y1678D01*
X100Y1678D01*
X100Y1680D01*
X98Y1680D01*
X98Y1684D01*
X96Y1684D01*
X96Y1686D01*
X94Y1686D01*
X94Y1688D01*
X92Y1688D01*
X92Y1690D01*
X90Y1690D01*
X90Y1692D01*
X88Y1692D01*
X88Y1694D01*
X86Y1694D01*
X86Y1696D01*
X84Y1696D01*
X84Y1698D01*
X82Y1698D01*
X82Y1700D01*
X80Y1700D01*
X80Y1702D01*
X78Y1702D01*
X78Y1704D01*
X76Y1704D01*
X76Y1706D01*
X74Y1706D01*
X74Y1708D01*
X72Y1708D01*
X72Y1710D01*
X70Y1710D01*
X70Y1712D01*
X68Y1712D01*
X68Y1714D01*
X66Y1714D01*
X66Y1716D01*
X64Y1716D01*
X64Y1718D01*
X62Y1718D01*
X62Y1720D01*
X60Y1720D01*
X60Y1722D01*
X40Y1722D01*
G37*
D02*
G36*
X1762Y1706D02*
X1762Y1600D01*
X1838Y1600D01*
X1838Y1602D01*
X1832Y1602D01*
X1832Y1604D01*
X1828Y1604D01*
X1828Y1606D01*
X1824Y1606D01*
X1824Y1608D01*
X1820Y1608D01*
X1820Y1610D01*
X1818Y1610D01*
X1818Y1612D01*
X1816Y1612D01*
X1816Y1614D01*
X1812Y1614D01*
X1812Y1616D01*
X1810Y1616D01*
X1810Y1620D01*
X1808Y1620D01*
X1808Y1622D01*
X1806Y1622D01*
X1806Y1624D01*
X1804Y1624D01*
X1804Y1628D01*
X1802Y1628D01*
X1802Y1632D01*
X1800Y1632D01*
X1800Y1638D01*
X1798Y1638D01*
X1798Y1650D01*
X1796Y1650D01*
X1796Y1654D01*
X1798Y1654D01*
X1798Y1666D01*
X1800Y1666D01*
X1800Y1672D01*
X1802Y1672D01*
X1802Y1676D01*
X1804Y1676D01*
X1804Y1680D01*
X1806Y1680D01*
X1806Y1684D01*
X1808Y1684D01*
X1808Y1686D01*
X1810Y1686D01*
X1810Y1688D01*
X1812Y1688D01*
X1812Y1690D01*
X1814Y1690D01*
X1814Y1692D01*
X1816Y1692D01*
X1816Y1694D01*
X1818Y1694D01*
X1818Y1696D01*
X1822Y1696D01*
X1822Y1698D01*
X1824Y1698D01*
X1824Y1700D01*
X1828Y1700D01*
X1828Y1702D01*
X1834Y1702D01*
X1834Y1704D01*
X1844Y1704D01*
X1844Y1706D01*
X1762Y1706D01*
G37*
D02*
G36*
X1762Y1600D02*
X1762Y1598D01*
X1946Y1598D01*
X1946Y1600D01*
X1762Y1600D01*
G37*
D02*
G36*
X1762Y1600D02*
X1762Y1598D01*
X1946Y1598D01*
X1946Y1600D01*
X1762Y1600D01*
G37*
D02*
G36*
X1762Y1598D02*
X1762Y1490D01*
X1854Y1490D01*
X1854Y1488D01*
X1862Y1488D01*
X1862Y1486D01*
X1866Y1486D01*
X1866Y1484D01*
X1870Y1484D01*
X1870Y1482D01*
X1872Y1482D01*
X1872Y1480D01*
X1874Y1480D01*
X1874Y1478D01*
X1876Y1478D01*
X1876Y1476D01*
X1878Y1476D01*
X1878Y1472D01*
X1880Y1472D01*
X1880Y1468D01*
X1882Y1468D01*
X1882Y1460D01*
X1884Y1460D01*
X1884Y1452D01*
X1882Y1452D01*
X1882Y1444D01*
X1880Y1444D01*
X1880Y1440D01*
X1878Y1440D01*
X1878Y1436D01*
X1876Y1436D01*
X1876Y1434D01*
X1874Y1434D01*
X1874Y1432D01*
X1872Y1432D01*
X1872Y1430D01*
X1870Y1430D01*
X1870Y1428D01*
X1866Y1428D01*
X1866Y1426D01*
X1864Y1426D01*
X1864Y1424D01*
X1856Y1424D01*
X1856Y1422D01*
X1942Y1422D01*
X1942Y1424D01*
X1936Y1424D01*
X1936Y1426D01*
X1932Y1426D01*
X1932Y1428D01*
X1928Y1428D01*
X1928Y1430D01*
X1926Y1430D01*
X1926Y1432D01*
X1924Y1432D01*
X1924Y1434D01*
X1922Y1434D01*
X1922Y1436D01*
X1920Y1436D01*
X1920Y1440D01*
X1918Y1440D01*
X1918Y1444D01*
X1916Y1444D01*
X1916Y1454D01*
X1914Y1454D01*
X1914Y1458D01*
X1916Y1458D01*
X1916Y1468D01*
X1918Y1468D01*
X1918Y1472D01*
X1920Y1472D01*
X1920Y1476D01*
X1922Y1476D01*
X1922Y1478D01*
X1924Y1478D01*
X1924Y1480D01*
X1926Y1480D01*
X1926Y1482D01*
X1928Y1482D01*
X1928Y1484D01*
X1932Y1484D01*
X1932Y1486D01*
X1936Y1486D01*
X1936Y1488D01*
X1946Y1488D01*
X1946Y1598D01*
X1762Y1598D01*
G37*
D02*
G36*
X1762Y1490D02*
X1762Y1422D01*
X1842Y1422D01*
X1842Y1424D01*
X1836Y1424D01*
X1836Y1426D01*
X1832Y1426D01*
X1832Y1428D01*
X1830Y1428D01*
X1830Y1430D01*
X1828Y1430D01*
X1828Y1432D01*
X1826Y1432D01*
X1826Y1434D01*
X1824Y1434D01*
X1824Y1436D01*
X1822Y1436D01*
X1822Y1440D01*
X1820Y1440D01*
X1820Y1444D01*
X1818Y1444D01*
X1818Y1450D01*
X1816Y1450D01*
X1816Y1462D01*
X1818Y1462D01*
X1818Y1468D01*
X1820Y1468D01*
X1820Y1472D01*
X1822Y1472D01*
X1822Y1476D01*
X1824Y1476D01*
X1824Y1478D01*
X1826Y1478D01*
X1826Y1480D01*
X1828Y1480D01*
X1828Y1482D01*
X1830Y1482D01*
X1830Y1484D01*
X1834Y1484D01*
X1834Y1486D01*
X1838Y1486D01*
X1838Y1488D01*
X1846Y1488D01*
X1846Y1490D01*
X1762Y1490D01*
G37*
D02*
G36*
X1760Y1422D02*
X1760Y1420D01*
X1946Y1420D01*
X1946Y1422D01*
X1760Y1422D01*
G37*
D02*
G36*
X1760Y1422D02*
X1760Y1420D01*
X1946Y1420D01*
X1946Y1422D01*
X1760Y1422D01*
G37*
D02*
G36*
X1760Y1420D02*
X1760Y1418D01*
X1758Y1418D01*
X1758Y1416D01*
X1756Y1416D01*
X1756Y1414D01*
X1754Y1414D01*
X1754Y1412D01*
X1752Y1412D01*
X1752Y1410D01*
X1750Y1410D01*
X1750Y1408D01*
X1748Y1408D01*
X1748Y1406D01*
X1746Y1406D01*
X1746Y1404D01*
X1744Y1404D01*
X1744Y1402D01*
X1742Y1402D01*
X1742Y1400D01*
X1740Y1400D01*
X1740Y1398D01*
X1738Y1398D01*
X1738Y1396D01*
X1736Y1396D01*
X1736Y1394D01*
X1732Y1394D01*
X1732Y1392D01*
X1730Y1392D01*
X1730Y1390D01*
X1728Y1390D01*
X1728Y1388D01*
X1726Y1388D01*
X1726Y1386D01*
X1724Y1386D01*
X1724Y1384D01*
X1722Y1384D01*
X1722Y1382D01*
X1860Y1382D01*
X1860Y1380D01*
X1866Y1380D01*
X1866Y1378D01*
X1868Y1378D01*
X1868Y1376D01*
X1872Y1376D01*
X1872Y1374D01*
X1874Y1374D01*
X1874Y1372D01*
X1876Y1372D01*
X1876Y1370D01*
X1878Y1370D01*
X1878Y1366D01*
X1880Y1366D01*
X1880Y1362D01*
X1882Y1362D01*
X1882Y1354D01*
X1884Y1354D01*
X1884Y1344D01*
X1882Y1344D01*
X1882Y1338D01*
X1880Y1338D01*
X1880Y1334D01*
X1878Y1334D01*
X1878Y1330D01*
X1876Y1330D01*
X1876Y1328D01*
X1874Y1328D01*
X1874Y1326D01*
X1872Y1326D01*
X1872Y1324D01*
X1870Y1324D01*
X1870Y1322D01*
X1868Y1322D01*
X1868Y1320D01*
X1864Y1320D01*
X1864Y1318D01*
X1858Y1318D01*
X1858Y1316D01*
X1940Y1316D01*
X1940Y1318D01*
X1934Y1318D01*
X1934Y1320D01*
X1930Y1320D01*
X1930Y1322D01*
X1928Y1322D01*
X1928Y1324D01*
X1926Y1324D01*
X1926Y1326D01*
X1924Y1326D01*
X1924Y1328D01*
X1922Y1328D01*
X1922Y1330D01*
X1920Y1330D01*
X1920Y1334D01*
X1918Y1334D01*
X1918Y1338D01*
X1916Y1338D01*
X1916Y1346D01*
X1914Y1346D01*
X1914Y1352D01*
X1916Y1352D01*
X1916Y1360D01*
X1918Y1360D01*
X1918Y1366D01*
X1920Y1366D01*
X1920Y1368D01*
X1922Y1368D01*
X1922Y1372D01*
X1924Y1372D01*
X1924Y1374D01*
X1926Y1374D01*
X1926Y1376D01*
X1930Y1376D01*
X1930Y1378D01*
X1934Y1378D01*
X1934Y1380D01*
X1938Y1380D01*
X1938Y1382D01*
X1946Y1382D01*
X1946Y1420D01*
X1760Y1420D01*
G37*
D02*
G36*
X1498Y1408D02*
X1498Y1406D01*
X1496Y1406D01*
X1496Y1404D01*
X1494Y1404D01*
X1494Y1402D01*
X1492Y1402D01*
X1492Y1400D01*
X1490Y1400D01*
X1490Y1398D01*
X1488Y1398D01*
X1488Y1396D01*
X1486Y1396D01*
X1486Y1394D01*
X1484Y1394D01*
X1484Y1392D01*
X1482Y1392D01*
X1482Y1390D01*
X1480Y1390D01*
X1480Y1388D01*
X1478Y1388D01*
X1478Y1386D01*
X1476Y1386D01*
X1476Y1384D01*
X1474Y1384D01*
X1474Y1382D01*
X1472Y1382D01*
X1472Y1380D01*
X1470Y1380D01*
X1470Y1378D01*
X1468Y1378D01*
X1468Y1376D01*
X1466Y1376D01*
X1466Y1374D01*
X1464Y1374D01*
X1464Y1372D01*
X1462Y1372D01*
X1462Y1346D01*
X1460Y1346D01*
X1460Y1338D01*
X1458Y1338D01*
X1458Y1334D01*
X1456Y1334D01*
X1456Y1330D01*
X1454Y1330D01*
X1454Y1328D01*
X1452Y1328D01*
X1452Y1324D01*
X1450Y1324D01*
X1450Y1322D01*
X1448Y1322D01*
X1448Y1320D01*
X1446Y1320D01*
X1446Y1318D01*
X1442Y1318D01*
X1442Y1316D01*
X1440Y1316D01*
X1440Y1314D01*
X1436Y1314D01*
X1436Y1246D01*
X1440Y1246D01*
X1440Y1244D01*
X1442Y1244D01*
X1442Y1242D01*
X1446Y1242D01*
X1446Y1240D01*
X1448Y1240D01*
X1448Y1238D01*
X1450Y1238D01*
X1450Y1236D01*
X1452Y1236D01*
X1452Y1232D01*
X1454Y1232D01*
X1454Y1230D01*
X1456Y1230D01*
X1456Y1226D01*
X1458Y1226D01*
X1458Y1222D01*
X1460Y1222D01*
X1460Y1214D01*
X1462Y1214D01*
X1462Y1196D01*
X1460Y1196D01*
X1460Y1188D01*
X1458Y1188D01*
X1458Y1184D01*
X1456Y1184D01*
X1456Y1180D01*
X1454Y1180D01*
X1454Y1178D01*
X1452Y1178D01*
X1452Y1174D01*
X1450Y1174D01*
X1450Y1172D01*
X1448Y1172D01*
X1448Y1170D01*
X1446Y1170D01*
X1446Y1168D01*
X1442Y1168D01*
X1442Y1166D01*
X1440Y1166D01*
X1440Y1164D01*
X1438Y1164D01*
X1438Y1098D01*
X1436Y1098D01*
X1436Y1094D01*
X1434Y1094D01*
X1434Y1092D01*
X1432Y1092D01*
X1432Y1090D01*
X1430Y1090D01*
X1430Y1088D01*
X1426Y1088D01*
X1426Y1086D01*
X1518Y1086D01*
X1518Y1408D01*
X1498Y1408D01*
G37*
D02*
G36*
X1720Y1382D02*
X1720Y1380D01*
X1718Y1380D01*
X1718Y1378D01*
X1716Y1378D01*
X1716Y1376D01*
X1714Y1376D01*
X1714Y1374D01*
X1712Y1374D01*
X1712Y1372D01*
X1710Y1372D01*
X1710Y1370D01*
X1706Y1370D01*
X1706Y1340D01*
X1704Y1340D01*
X1704Y1332D01*
X1702Y1332D01*
X1702Y1328D01*
X1700Y1328D01*
X1700Y1324D01*
X1698Y1324D01*
X1698Y1320D01*
X1696Y1320D01*
X1696Y1318D01*
X1694Y1318D01*
X1694Y1316D01*
X1842Y1316D01*
X1842Y1318D01*
X1836Y1318D01*
X1836Y1320D01*
X1832Y1320D01*
X1832Y1322D01*
X1830Y1322D01*
X1830Y1324D01*
X1826Y1324D01*
X1826Y1328D01*
X1824Y1328D01*
X1824Y1330D01*
X1822Y1330D01*
X1822Y1332D01*
X1820Y1332D01*
X1820Y1336D01*
X1818Y1336D01*
X1818Y1344D01*
X1816Y1344D01*
X1816Y1356D01*
X1818Y1356D01*
X1818Y1362D01*
X1820Y1362D01*
X1820Y1366D01*
X1822Y1366D01*
X1822Y1370D01*
X1824Y1370D01*
X1824Y1372D01*
X1826Y1372D01*
X1826Y1374D01*
X1828Y1374D01*
X1828Y1376D01*
X1830Y1376D01*
X1830Y1378D01*
X1834Y1378D01*
X1834Y1380D01*
X1840Y1380D01*
X1840Y1382D01*
X1720Y1382D01*
G37*
D02*
G36*
X1694Y1316D02*
X1694Y1314D01*
X1946Y1314D01*
X1946Y1316D01*
X1694Y1316D01*
G37*
D02*
G36*
X1694Y1316D02*
X1694Y1314D01*
X1946Y1314D01*
X1946Y1316D01*
X1694Y1316D01*
G37*
D02*
G36*
X1692Y1314D02*
X1692Y1312D01*
X1690Y1312D01*
X1690Y1310D01*
X1688Y1310D01*
X1688Y1290D01*
X1690Y1290D01*
X1690Y1288D01*
X1692Y1288D01*
X1692Y1286D01*
X1694Y1286D01*
X1694Y1282D01*
X1696Y1282D01*
X1696Y1280D01*
X1698Y1280D01*
X1698Y1276D01*
X1700Y1276D01*
X1700Y1274D01*
X1702Y1274D01*
X1702Y1268D01*
X1704Y1268D01*
X1704Y1260D01*
X1706Y1260D01*
X1706Y1242D01*
X1704Y1242D01*
X1704Y1234D01*
X1702Y1234D01*
X1702Y1228D01*
X1700Y1228D01*
X1700Y1226D01*
X1698Y1226D01*
X1698Y1222D01*
X1696Y1222D01*
X1696Y1218D01*
X1694Y1218D01*
X1694Y1216D01*
X1692Y1216D01*
X1692Y1214D01*
X1690Y1214D01*
X1690Y1212D01*
X1688Y1212D01*
X1688Y1210D01*
X1684Y1210D01*
X1684Y1208D01*
X1682Y1208D01*
X1682Y1206D01*
X1856Y1206D01*
X1856Y1204D01*
X1866Y1204D01*
X1866Y1202D01*
X1872Y1202D01*
X1872Y1200D01*
X1874Y1200D01*
X1874Y1198D01*
X1878Y1198D01*
X1878Y1196D01*
X1882Y1196D01*
X1882Y1194D01*
X1884Y1194D01*
X1884Y1192D01*
X1886Y1192D01*
X1886Y1190D01*
X1888Y1190D01*
X1888Y1188D01*
X1890Y1188D01*
X1890Y1186D01*
X1892Y1186D01*
X1892Y1184D01*
X1894Y1184D01*
X1894Y1180D01*
X1896Y1180D01*
X1896Y1176D01*
X1898Y1176D01*
X1898Y1172D01*
X1900Y1172D01*
X1900Y1166D01*
X1902Y1166D01*
X1902Y1138D01*
X1900Y1138D01*
X1900Y1132D01*
X1898Y1132D01*
X1898Y1128D01*
X1896Y1128D01*
X1896Y1126D01*
X1894Y1126D01*
X1894Y1122D01*
X1892Y1122D01*
X1892Y1120D01*
X1890Y1120D01*
X1890Y1118D01*
X1888Y1118D01*
X1888Y1114D01*
X1884Y1114D01*
X1884Y1112D01*
X1882Y1112D01*
X1882Y1110D01*
X1880Y1110D01*
X1880Y1108D01*
X1876Y1108D01*
X1876Y1106D01*
X1872Y1106D01*
X1872Y1104D01*
X1868Y1104D01*
X1868Y1102D01*
X1862Y1102D01*
X1862Y1100D01*
X1946Y1100D01*
X1946Y1314D01*
X1692Y1314D01*
G37*
D02*
G36*
X1678Y1206D02*
X1678Y1204D01*
X1676Y1204D01*
X1676Y1202D01*
X1670Y1202D01*
X1670Y1180D01*
X1674Y1180D01*
X1674Y1178D01*
X1676Y1178D01*
X1676Y1176D01*
X1678Y1176D01*
X1678Y1174D01*
X1680Y1174D01*
X1680Y1170D01*
X1682Y1170D01*
X1682Y1168D01*
X1684Y1168D01*
X1684Y1162D01*
X1686Y1162D01*
X1686Y1144D01*
X1684Y1144D01*
X1684Y1138D01*
X1682Y1138D01*
X1682Y1134D01*
X1680Y1134D01*
X1680Y1132D01*
X1678Y1132D01*
X1678Y1130D01*
X1676Y1130D01*
X1676Y1128D01*
X1674Y1128D01*
X1674Y1126D01*
X1672Y1126D01*
X1672Y1124D01*
X1668Y1124D01*
X1668Y1104D01*
X1674Y1104D01*
X1674Y1102D01*
X1678Y1102D01*
X1678Y1100D01*
X1838Y1100D01*
X1838Y1102D01*
X1832Y1102D01*
X1832Y1104D01*
X1826Y1104D01*
X1826Y1106D01*
X1824Y1106D01*
X1824Y1108D01*
X1820Y1108D01*
X1820Y1110D01*
X1818Y1110D01*
X1818Y1112D01*
X1816Y1112D01*
X1816Y1114D01*
X1812Y1114D01*
X1812Y1116D01*
X1810Y1116D01*
X1810Y1120D01*
X1808Y1120D01*
X1808Y1122D01*
X1806Y1122D01*
X1806Y1124D01*
X1804Y1124D01*
X1804Y1128D01*
X1802Y1128D01*
X1802Y1132D01*
X1800Y1132D01*
X1800Y1138D01*
X1798Y1138D01*
X1798Y1150D01*
X1796Y1150D01*
X1796Y1154D01*
X1798Y1154D01*
X1798Y1166D01*
X1800Y1166D01*
X1800Y1172D01*
X1802Y1172D01*
X1802Y1176D01*
X1804Y1176D01*
X1804Y1180D01*
X1806Y1180D01*
X1806Y1184D01*
X1808Y1184D01*
X1808Y1186D01*
X1810Y1186D01*
X1810Y1188D01*
X1812Y1188D01*
X1812Y1190D01*
X1814Y1190D01*
X1814Y1192D01*
X1816Y1192D01*
X1816Y1194D01*
X1818Y1194D01*
X1818Y1196D01*
X1822Y1196D01*
X1822Y1198D01*
X1824Y1198D01*
X1824Y1200D01*
X1828Y1200D01*
X1828Y1202D01*
X1834Y1202D01*
X1834Y1204D01*
X1844Y1204D01*
X1844Y1206D01*
X1678Y1206D01*
G37*
D02*
G36*
X1186Y1132D02*
X1186Y1120D01*
X1188Y1120D01*
X1188Y1118D01*
X1192Y1118D01*
X1192Y1116D01*
X1194Y1116D01*
X1194Y1114D01*
X1196Y1114D01*
X1196Y1112D01*
X1198Y1112D01*
X1198Y1110D01*
X1200Y1110D01*
X1200Y1108D01*
X1202Y1108D01*
X1202Y1106D01*
X1204Y1106D01*
X1204Y1102D01*
X1206Y1102D01*
X1206Y1098D01*
X1208Y1098D01*
X1208Y1092D01*
X1210Y1092D01*
X1210Y1086D01*
X1282Y1086D01*
X1282Y1088D01*
X1278Y1088D01*
X1278Y1090D01*
X1274Y1090D01*
X1274Y1092D01*
X1272Y1092D01*
X1272Y1094D01*
X1268Y1094D01*
X1268Y1096D01*
X1264Y1096D01*
X1264Y1098D01*
X1260Y1098D01*
X1260Y1100D01*
X1258Y1100D01*
X1258Y1102D01*
X1254Y1102D01*
X1254Y1104D01*
X1250Y1104D01*
X1250Y1106D01*
X1248Y1106D01*
X1248Y1108D01*
X1244Y1108D01*
X1244Y1110D01*
X1240Y1110D01*
X1240Y1112D01*
X1238Y1112D01*
X1238Y1114D01*
X1234Y1114D01*
X1234Y1116D01*
X1230Y1116D01*
X1230Y1118D01*
X1226Y1118D01*
X1226Y1120D01*
X1224Y1120D01*
X1224Y1122D01*
X1220Y1122D01*
X1220Y1124D01*
X1216Y1124D01*
X1216Y1126D01*
X1214Y1126D01*
X1214Y1128D01*
X1210Y1128D01*
X1210Y1130D01*
X1206Y1130D01*
X1206Y1132D01*
X1186Y1132D01*
G37*
D02*
G36*
X1680Y1100D02*
X1680Y1098D01*
X1946Y1098D01*
X1946Y1100D01*
X1680Y1100D01*
G37*
D02*
G36*
X1680Y1100D02*
X1680Y1098D01*
X1946Y1098D01*
X1946Y1100D01*
X1680Y1100D01*
G37*
D02*
G36*
X1684Y1098D02*
X1684Y1096D01*
X1686Y1096D01*
X1686Y1094D01*
X1688Y1094D01*
X1688Y1092D01*
X1692Y1092D01*
X1692Y1088D01*
X1694Y1088D01*
X1694Y1086D01*
X1696Y1086D01*
X1696Y1084D01*
X1698Y1084D01*
X1698Y1080D01*
X1700Y1080D01*
X1700Y1076D01*
X1702Y1076D01*
X1702Y1072D01*
X1704Y1072D01*
X1704Y1064D01*
X1706Y1064D01*
X1706Y1044D01*
X1704Y1044D01*
X1704Y1036D01*
X1702Y1036D01*
X1702Y1032D01*
X1700Y1032D01*
X1700Y1028D01*
X1698Y1028D01*
X1698Y1024D01*
X1696Y1024D01*
X1696Y1022D01*
X1694Y1022D01*
X1694Y1020D01*
X1692Y1020D01*
X1692Y1018D01*
X1690Y1018D01*
X1690Y1016D01*
X1688Y1016D01*
X1688Y994D01*
X1690Y994D01*
X1690Y992D01*
X1692Y992D01*
X1692Y990D01*
X1852Y990D01*
X1852Y988D01*
X1862Y988D01*
X1862Y986D01*
X1866Y986D01*
X1866Y984D01*
X1870Y984D01*
X1870Y982D01*
X1872Y982D01*
X1872Y980D01*
X1874Y980D01*
X1874Y978D01*
X1876Y978D01*
X1876Y976D01*
X1878Y976D01*
X1878Y972D01*
X1880Y972D01*
X1880Y968D01*
X1882Y968D01*
X1882Y960D01*
X1884Y960D01*
X1884Y952D01*
X1882Y952D01*
X1882Y944D01*
X1880Y944D01*
X1880Y940D01*
X1878Y940D01*
X1878Y936D01*
X1876Y936D01*
X1876Y934D01*
X1874Y934D01*
X1874Y932D01*
X1872Y932D01*
X1872Y930D01*
X1870Y930D01*
X1870Y928D01*
X1866Y928D01*
X1866Y926D01*
X1864Y926D01*
X1864Y924D01*
X1856Y924D01*
X1856Y922D01*
X1942Y922D01*
X1942Y924D01*
X1936Y924D01*
X1936Y926D01*
X1932Y926D01*
X1932Y928D01*
X1928Y928D01*
X1928Y930D01*
X1926Y930D01*
X1926Y932D01*
X1924Y932D01*
X1924Y934D01*
X1922Y934D01*
X1922Y936D01*
X1920Y936D01*
X1920Y940D01*
X1918Y940D01*
X1918Y944D01*
X1916Y944D01*
X1916Y954D01*
X1914Y954D01*
X1914Y958D01*
X1916Y958D01*
X1916Y968D01*
X1918Y968D01*
X1918Y972D01*
X1920Y972D01*
X1920Y974D01*
X1922Y974D01*
X1922Y978D01*
X1924Y978D01*
X1924Y980D01*
X1926Y980D01*
X1926Y982D01*
X1928Y982D01*
X1928Y984D01*
X1932Y984D01*
X1932Y986D01*
X1936Y986D01*
X1936Y988D01*
X1946Y988D01*
X1946Y1098D01*
X1684Y1098D01*
G37*
D02*
G36*
X1210Y1086D02*
X1210Y1084D01*
X1518Y1084D01*
X1518Y1086D01*
X1210Y1086D01*
G37*
D02*
G36*
X1210Y1086D02*
X1210Y1084D01*
X1518Y1084D01*
X1518Y1086D01*
X1210Y1086D01*
G37*
D02*
G36*
X1210Y1084D02*
X1210Y1070D01*
X1208Y1070D01*
X1208Y1064D01*
X1206Y1064D01*
X1206Y1060D01*
X1204Y1060D01*
X1204Y1056D01*
X1202Y1056D01*
X1202Y1054D01*
X1200Y1054D01*
X1200Y1050D01*
X1198Y1050D01*
X1198Y1048D01*
X1196Y1048D01*
X1196Y1046D01*
X1192Y1046D01*
X1192Y1044D01*
X1190Y1044D01*
X1190Y1042D01*
X1186Y1042D01*
X1186Y1020D01*
X1188Y1020D01*
X1188Y1018D01*
X1192Y1018D01*
X1192Y1016D01*
X1194Y1016D01*
X1194Y1014D01*
X1196Y1014D01*
X1196Y1012D01*
X1198Y1012D01*
X1198Y1010D01*
X1200Y1010D01*
X1200Y1008D01*
X1202Y1008D01*
X1202Y1006D01*
X1204Y1006D01*
X1204Y1002D01*
X1206Y1002D01*
X1206Y998D01*
X1208Y998D01*
X1208Y992D01*
X1210Y992D01*
X1210Y970D01*
X1208Y970D01*
X1208Y964D01*
X1206Y964D01*
X1206Y960D01*
X1204Y960D01*
X1204Y956D01*
X1202Y956D01*
X1202Y954D01*
X1200Y954D01*
X1200Y952D01*
X1426Y952D01*
X1426Y950D01*
X1432Y950D01*
X1432Y948D01*
X1436Y948D01*
X1436Y946D01*
X1440Y946D01*
X1440Y944D01*
X1442Y944D01*
X1442Y942D01*
X1446Y942D01*
X1446Y940D01*
X1448Y940D01*
X1448Y938D01*
X1450Y938D01*
X1450Y936D01*
X1452Y936D01*
X1452Y932D01*
X1454Y932D01*
X1454Y930D01*
X1456Y930D01*
X1456Y926D01*
X1458Y926D01*
X1458Y922D01*
X1460Y922D01*
X1460Y914D01*
X1462Y914D01*
X1462Y902D01*
X1648Y902D01*
X1648Y904D01*
X1638Y904D01*
X1638Y906D01*
X1632Y906D01*
X1632Y908D01*
X1628Y908D01*
X1628Y910D01*
X1624Y910D01*
X1624Y912D01*
X1622Y912D01*
X1622Y914D01*
X1620Y914D01*
X1620Y916D01*
X1618Y916D01*
X1618Y918D01*
X1614Y918D01*
X1614Y922D01*
X1612Y922D01*
X1612Y924D01*
X1610Y924D01*
X1610Y926D01*
X1608Y926D01*
X1608Y930D01*
X1606Y930D01*
X1606Y934D01*
X1604Y934D01*
X1604Y938D01*
X1602Y938D01*
X1602Y946D01*
X1600Y946D01*
X1600Y964D01*
X1598Y964D01*
X1598Y966D01*
X1596Y966D01*
X1596Y968D01*
X1592Y968D01*
X1592Y970D01*
X1590Y970D01*
X1590Y972D01*
X1586Y972D01*
X1586Y974D01*
X1584Y974D01*
X1584Y976D01*
X1580Y976D01*
X1580Y978D01*
X1576Y978D01*
X1576Y980D01*
X1574Y980D01*
X1574Y982D01*
X1570Y982D01*
X1570Y984D01*
X1568Y984D01*
X1568Y986D01*
X1564Y986D01*
X1564Y988D01*
X1562Y988D01*
X1562Y990D01*
X1558Y990D01*
X1558Y992D01*
X1556Y992D01*
X1556Y994D01*
X1552Y994D01*
X1552Y996D01*
X1550Y996D01*
X1550Y998D01*
X1546Y998D01*
X1546Y1000D01*
X1544Y1000D01*
X1544Y1002D01*
X1540Y1002D01*
X1540Y1004D01*
X1536Y1004D01*
X1536Y1006D01*
X1534Y1006D01*
X1534Y1008D01*
X1530Y1008D01*
X1530Y1010D01*
X1528Y1010D01*
X1528Y1012D01*
X1526Y1012D01*
X1526Y1014D01*
X1524Y1014D01*
X1524Y1016D01*
X1522Y1016D01*
X1522Y1018D01*
X1520Y1018D01*
X1520Y1022D01*
X1518Y1022D01*
X1518Y1084D01*
X1210Y1084D01*
G37*
D02*
G36*
X1694Y990D02*
X1694Y988D01*
X1696Y988D01*
X1696Y986D01*
X1698Y986D01*
X1698Y982D01*
X1700Y982D01*
X1700Y978D01*
X1702Y978D01*
X1702Y974D01*
X1704Y974D01*
X1704Y966D01*
X1706Y966D01*
X1706Y946D01*
X1704Y946D01*
X1704Y938D01*
X1702Y938D01*
X1702Y934D01*
X1700Y934D01*
X1700Y930D01*
X1698Y930D01*
X1698Y926D01*
X1696Y926D01*
X1696Y924D01*
X1694Y924D01*
X1694Y922D01*
X1842Y922D01*
X1842Y924D01*
X1836Y924D01*
X1836Y926D01*
X1832Y926D01*
X1832Y928D01*
X1830Y928D01*
X1830Y930D01*
X1828Y930D01*
X1828Y932D01*
X1826Y932D01*
X1826Y934D01*
X1824Y934D01*
X1824Y936D01*
X1822Y936D01*
X1822Y940D01*
X1820Y940D01*
X1820Y944D01*
X1818Y944D01*
X1818Y950D01*
X1816Y950D01*
X1816Y962D01*
X1818Y962D01*
X1818Y968D01*
X1820Y968D01*
X1820Y972D01*
X1822Y972D01*
X1822Y976D01*
X1824Y976D01*
X1824Y978D01*
X1826Y978D01*
X1826Y980D01*
X1828Y980D01*
X1828Y982D01*
X1830Y982D01*
X1830Y984D01*
X1834Y984D01*
X1834Y986D01*
X1838Y986D01*
X1838Y988D01*
X1846Y988D01*
X1846Y990D01*
X1694Y990D01*
G37*
D02*
G36*
X1200Y952D02*
X1200Y950D01*
X1198Y950D01*
X1198Y948D01*
X1196Y948D01*
X1196Y946D01*
X1192Y946D01*
X1192Y944D01*
X1190Y944D01*
X1190Y942D01*
X1186Y942D01*
X1186Y920D01*
X1188Y920D01*
X1188Y918D01*
X1192Y918D01*
X1192Y916D01*
X1194Y916D01*
X1194Y914D01*
X1196Y914D01*
X1196Y912D01*
X1198Y912D01*
X1198Y910D01*
X1200Y910D01*
X1200Y908D01*
X1202Y908D01*
X1202Y906D01*
X1204Y906D01*
X1204Y902D01*
X1206Y902D01*
X1206Y898D01*
X1208Y898D01*
X1208Y892D01*
X1210Y892D01*
X1210Y870D01*
X1208Y870D01*
X1208Y864D01*
X1206Y864D01*
X1206Y860D01*
X1204Y860D01*
X1204Y858D01*
X1304Y858D01*
X1304Y860D01*
X1298Y860D01*
X1298Y862D01*
X1294Y862D01*
X1294Y864D01*
X1290Y864D01*
X1290Y866D01*
X1286Y866D01*
X1286Y868D01*
X1284Y868D01*
X1284Y870D01*
X1282Y870D01*
X1282Y872D01*
X1280Y872D01*
X1280Y874D01*
X1278Y874D01*
X1278Y876D01*
X1276Y876D01*
X1276Y880D01*
X1274Y880D01*
X1274Y882D01*
X1272Y882D01*
X1272Y886D01*
X1270Y886D01*
X1270Y892D01*
X1268Y892D01*
X1268Y918D01*
X1270Y918D01*
X1270Y924D01*
X1272Y924D01*
X1272Y928D01*
X1274Y928D01*
X1274Y930D01*
X1276Y930D01*
X1276Y934D01*
X1278Y934D01*
X1278Y936D01*
X1280Y936D01*
X1280Y938D01*
X1282Y938D01*
X1282Y940D01*
X1284Y940D01*
X1284Y942D01*
X1286Y942D01*
X1286Y944D01*
X1290Y944D01*
X1290Y946D01*
X1292Y946D01*
X1292Y948D01*
X1296Y948D01*
X1296Y950D01*
X1304Y950D01*
X1304Y952D01*
X1200Y952D01*
G37*
D02*
G36*
X1326Y952D02*
X1326Y950D01*
X1332Y950D01*
X1332Y948D01*
X1336Y948D01*
X1336Y946D01*
X1340Y946D01*
X1340Y944D01*
X1342Y944D01*
X1342Y942D01*
X1346Y942D01*
X1346Y940D01*
X1348Y940D01*
X1348Y938D01*
X1350Y938D01*
X1350Y936D01*
X1352Y936D01*
X1352Y932D01*
X1354Y932D01*
X1354Y930D01*
X1376Y930D01*
X1376Y934D01*
X1378Y934D01*
X1378Y936D01*
X1380Y936D01*
X1380Y938D01*
X1382Y938D01*
X1382Y940D01*
X1384Y940D01*
X1384Y942D01*
X1386Y942D01*
X1386Y944D01*
X1390Y944D01*
X1390Y946D01*
X1392Y946D01*
X1392Y948D01*
X1396Y948D01*
X1396Y950D01*
X1404Y950D01*
X1404Y952D01*
X1326Y952D01*
G37*
D02*
G36*
X1692Y922D02*
X1692Y920D01*
X1946Y920D01*
X1946Y922D01*
X1692Y922D01*
G37*
D02*
G36*
X1692Y922D02*
X1692Y920D01*
X1946Y920D01*
X1946Y922D01*
X1692Y922D01*
G37*
D02*
G36*
X1692Y920D02*
X1692Y918D01*
X1690Y918D01*
X1690Y916D01*
X1686Y916D01*
X1686Y914D01*
X1684Y914D01*
X1684Y912D01*
X1682Y912D01*
X1682Y910D01*
X1678Y910D01*
X1678Y908D01*
X1674Y908D01*
X1674Y906D01*
X1668Y906D01*
X1668Y904D01*
X1658Y904D01*
X1658Y902D01*
X1946Y902D01*
X1946Y920D01*
X1692Y920D01*
G37*
D02*
G36*
X1462Y902D02*
X1462Y900D01*
X1946Y900D01*
X1946Y902D01*
X1462Y902D01*
G37*
D02*
G36*
X1462Y902D02*
X1462Y900D01*
X1946Y900D01*
X1946Y902D01*
X1462Y902D01*
G37*
D02*
G36*
X1462Y900D02*
X1462Y896D01*
X1460Y896D01*
X1460Y888D01*
X1458Y888D01*
X1458Y884D01*
X1456Y884D01*
X1456Y880D01*
X1454Y880D01*
X1454Y878D01*
X1452Y878D01*
X1452Y874D01*
X1450Y874D01*
X1450Y872D01*
X1448Y872D01*
X1448Y870D01*
X1446Y870D01*
X1446Y868D01*
X1442Y868D01*
X1442Y866D01*
X1440Y866D01*
X1440Y864D01*
X1436Y864D01*
X1436Y862D01*
X1432Y862D01*
X1432Y860D01*
X1426Y860D01*
X1426Y858D01*
X1946Y858D01*
X1946Y900D01*
X1462Y900D01*
G37*
D02*
G36*
X1354Y880D02*
X1354Y878D01*
X1352Y878D01*
X1352Y874D01*
X1350Y874D01*
X1350Y872D01*
X1348Y872D01*
X1348Y870D01*
X1346Y870D01*
X1346Y868D01*
X1342Y868D01*
X1342Y866D01*
X1340Y866D01*
X1340Y864D01*
X1336Y864D01*
X1336Y862D01*
X1332Y862D01*
X1332Y860D01*
X1326Y860D01*
X1326Y858D01*
X1404Y858D01*
X1404Y860D01*
X1398Y860D01*
X1398Y862D01*
X1394Y862D01*
X1394Y864D01*
X1390Y864D01*
X1390Y866D01*
X1386Y866D01*
X1386Y868D01*
X1384Y868D01*
X1384Y870D01*
X1382Y870D01*
X1382Y872D01*
X1380Y872D01*
X1380Y874D01*
X1378Y874D01*
X1378Y876D01*
X1376Y876D01*
X1376Y880D01*
X1354Y880D01*
G37*
D02*
G36*
X1204Y858D02*
X1204Y856D01*
X1946Y856D01*
X1946Y858D01*
X1204Y858D01*
G37*
D02*
G36*
X1204Y858D02*
X1204Y856D01*
X1946Y856D01*
X1946Y858D01*
X1204Y858D01*
G37*
D02*
G36*
X1204Y858D02*
X1204Y856D01*
X1946Y856D01*
X1946Y858D01*
X1204Y858D01*
G37*
D02*
G36*
X1202Y856D02*
X1202Y854D01*
X1200Y854D01*
X1200Y850D01*
X1198Y850D01*
X1198Y848D01*
X1196Y848D01*
X1196Y846D01*
X1192Y846D01*
X1192Y844D01*
X1190Y844D01*
X1190Y842D01*
X1186Y842D01*
X1186Y820D01*
X1188Y820D01*
X1188Y818D01*
X1192Y818D01*
X1192Y816D01*
X1194Y816D01*
X1194Y814D01*
X1196Y814D01*
X1196Y812D01*
X1198Y812D01*
X1198Y810D01*
X1200Y810D01*
X1200Y808D01*
X1202Y808D01*
X1202Y806D01*
X1204Y806D01*
X1204Y804D01*
X1364Y804D01*
X1364Y708D01*
X1362Y708D01*
X1362Y706D01*
X1294Y706D01*
X1294Y704D01*
X1292Y704D01*
X1292Y702D01*
X1288Y702D01*
X1288Y700D01*
X1286Y700D01*
X1286Y698D01*
X1282Y698D01*
X1282Y696D01*
X1280Y696D01*
X1280Y694D01*
X1276Y694D01*
X1276Y692D01*
X1274Y692D01*
X1274Y690D01*
X1272Y690D01*
X1272Y446D01*
X1362Y446D01*
X1362Y444D01*
X1364Y444D01*
X1364Y348D01*
X1250Y348D01*
X1250Y346D01*
X1248Y346D01*
X1248Y344D01*
X1246Y344D01*
X1246Y342D01*
X1244Y342D01*
X1244Y340D01*
X1242Y340D01*
X1242Y338D01*
X1240Y338D01*
X1240Y336D01*
X1238Y336D01*
X1238Y334D01*
X1236Y334D01*
X1236Y332D01*
X1234Y332D01*
X1234Y330D01*
X1232Y330D01*
X1232Y328D01*
X1230Y328D01*
X1230Y326D01*
X1228Y326D01*
X1228Y324D01*
X1226Y324D01*
X1226Y322D01*
X1224Y322D01*
X1224Y320D01*
X1222Y320D01*
X1222Y318D01*
X1220Y318D01*
X1220Y316D01*
X1218Y316D01*
X1218Y314D01*
X1216Y314D01*
X1216Y312D01*
X1214Y312D01*
X1214Y310D01*
X1212Y310D01*
X1212Y308D01*
X1210Y308D01*
X1210Y306D01*
X1206Y306D01*
X1206Y304D01*
X1204Y304D01*
X1204Y302D01*
X1198Y302D01*
X1198Y300D01*
X300Y300D01*
X300Y298D01*
X298Y298D01*
X298Y296D01*
X296Y296D01*
X296Y294D01*
X294Y294D01*
X294Y292D01*
X292Y292D01*
X292Y290D01*
X288Y290D01*
X288Y288D01*
X284Y288D01*
X284Y286D01*
X278Y286D01*
X278Y284D01*
X1444Y284D01*
X1444Y286D01*
X1806Y286D01*
X1806Y290D01*
X1810Y290D01*
X1810Y686D01*
X1812Y686D01*
X1812Y692D01*
X1814Y692D01*
X1814Y696D01*
X1816Y696D01*
X1816Y698D01*
X1818Y698D01*
X1818Y702D01*
X1820Y702D01*
X1820Y704D01*
X1822Y704D01*
X1822Y706D01*
X1824Y706D01*
X1824Y708D01*
X1826Y708D01*
X1826Y710D01*
X1828Y710D01*
X1828Y712D01*
X1830Y712D01*
X1830Y714D01*
X1832Y714D01*
X1832Y716D01*
X1834Y716D01*
X1834Y718D01*
X1836Y718D01*
X1836Y720D01*
X1838Y720D01*
X1838Y722D01*
X1840Y722D01*
X1840Y724D01*
X1842Y724D01*
X1842Y726D01*
X1844Y726D01*
X1844Y728D01*
X1846Y728D01*
X1846Y730D01*
X1848Y730D01*
X1848Y732D01*
X1850Y732D01*
X1850Y734D01*
X1852Y734D01*
X1852Y736D01*
X1854Y736D01*
X1854Y738D01*
X1856Y738D01*
X1856Y740D01*
X1858Y740D01*
X1858Y742D01*
X1860Y742D01*
X1860Y744D01*
X1862Y744D01*
X1862Y746D01*
X1864Y746D01*
X1864Y748D01*
X1866Y748D01*
X1866Y804D01*
X1946Y804D01*
X1946Y856D01*
X1202Y856D01*
G37*
D02*
G36*
X1204Y804D02*
X1204Y802D01*
X1206Y802D01*
X1206Y798D01*
X1208Y798D01*
X1208Y792D01*
X1210Y792D01*
X1210Y770D01*
X1208Y770D01*
X1208Y764D01*
X1206Y764D01*
X1206Y760D01*
X1204Y760D01*
X1204Y756D01*
X1202Y756D01*
X1202Y754D01*
X1200Y754D01*
X1200Y750D01*
X1198Y750D01*
X1198Y748D01*
X1196Y748D01*
X1196Y746D01*
X1192Y746D01*
X1192Y744D01*
X1190Y744D01*
X1190Y742D01*
X1186Y742D01*
X1186Y720D01*
X1188Y720D01*
X1188Y718D01*
X1192Y718D01*
X1192Y716D01*
X1194Y716D01*
X1194Y714D01*
X1214Y714D01*
X1214Y718D01*
X1216Y718D01*
X1216Y722D01*
X1218Y722D01*
X1218Y724D01*
X1220Y724D01*
X1220Y726D01*
X1222Y726D01*
X1222Y728D01*
X1224Y728D01*
X1224Y730D01*
X1226Y730D01*
X1226Y732D01*
X1230Y732D01*
X1230Y734D01*
X1232Y734D01*
X1232Y736D01*
X1236Y736D01*
X1236Y738D01*
X1238Y738D01*
X1238Y740D01*
X1240Y740D01*
X1240Y742D01*
X1244Y742D01*
X1244Y744D01*
X1246Y744D01*
X1246Y746D01*
X1250Y746D01*
X1250Y748D01*
X1252Y748D01*
X1252Y750D01*
X1256Y750D01*
X1256Y752D01*
X1258Y752D01*
X1258Y754D01*
X1260Y754D01*
X1260Y756D01*
X1264Y756D01*
X1264Y758D01*
X1266Y758D01*
X1266Y804D01*
X1204Y804D01*
G37*
D02*
G36*
X40Y736D02*
X40Y554D01*
X144Y554D01*
X144Y552D01*
X164Y552D01*
X164Y554D01*
X168Y554D01*
X168Y556D01*
X170Y556D01*
X170Y558D01*
X172Y558D01*
X172Y560D01*
X174Y560D01*
X174Y562D01*
X178Y562D01*
X178Y564D01*
X180Y564D01*
X180Y566D01*
X182Y566D01*
X182Y568D01*
X184Y568D01*
X184Y570D01*
X188Y570D01*
X188Y572D01*
X190Y572D01*
X190Y574D01*
X192Y574D01*
X192Y576D01*
X194Y576D01*
X194Y578D01*
X198Y578D01*
X198Y580D01*
X200Y580D01*
X200Y582D01*
X202Y582D01*
X202Y584D01*
X204Y584D01*
X204Y586D01*
X208Y586D01*
X208Y588D01*
X210Y588D01*
X210Y590D01*
X212Y590D01*
X212Y592D01*
X214Y592D01*
X214Y594D01*
X218Y594D01*
X218Y596D01*
X220Y596D01*
X220Y598D01*
X222Y598D01*
X222Y600D01*
X224Y600D01*
X224Y602D01*
X228Y602D01*
X228Y604D01*
X230Y604D01*
X230Y606D01*
X232Y606D01*
X232Y608D01*
X234Y608D01*
X234Y610D01*
X238Y610D01*
X238Y612D01*
X240Y612D01*
X240Y632D01*
X238Y632D01*
X238Y634D01*
X234Y634D01*
X234Y636D01*
X232Y636D01*
X232Y638D01*
X230Y638D01*
X230Y640D01*
X226Y640D01*
X226Y642D01*
X224Y642D01*
X224Y646D01*
X222Y646D01*
X222Y648D01*
X220Y648D01*
X220Y650D01*
X218Y650D01*
X218Y654D01*
X216Y654D01*
X216Y658D01*
X214Y658D01*
X214Y662D01*
X212Y662D01*
X212Y670D01*
X210Y670D01*
X210Y690D01*
X212Y690D01*
X212Y698D01*
X214Y698D01*
X214Y704D01*
X216Y704D01*
X216Y708D01*
X218Y708D01*
X218Y710D01*
X220Y710D01*
X220Y714D01*
X222Y714D01*
X222Y716D01*
X224Y716D01*
X224Y718D01*
X226Y718D01*
X226Y720D01*
X228Y720D01*
X228Y722D01*
X230Y722D01*
X230Y724D01*
X232Y724D01*
X232Y726D01*
X236Y726D01*
X236Y728D01*
X238Y728D01*
X238Y730D01*
X242Y730D01*
X242Y732D01*
X246Y732D01*
X246Y734D01*
X254Y734D01*
X254Y736D01*
X40Y736D01*
G37*
D02*
G36*
X290Y632D02*
X290Y630D01*
X288Y630D01*
X288Y598D01*
X286Y598D01*
X286Y594D01*
X284Y594D01*
X284Y592D01*
X282Y592D01*
X282Y590D01*
X280Y590D01*
X280Y588D01*
X278Y588D01*
X278Y586D01*
X276Y586D01*
X276Y584D01*
X272Y584D01*
X272Y582D01*
X270Y582D01*
X270Y580D01*
X268Y580D01*
X268Y578D01*
X266Y578D01*
X266Y576D01*
X262Y576D01*
X262Y574D01*
X260Y574D01*
X260Y572D01*
X258Y572D01*
X258Y570D01*
X256Y570D01*
X256Y568D01*
X252Y568D01*
X252Y566D01*
X250Y566D01*
X250Y564D01*
X248Y564D01*
X248Y562D01*
X246Y562D01*
X246Y560D01*
X242Y560D01*
X242Y558D01*
X240Y558D01*
X240Y556D01*
X238Y556D01*
X238Y554D01*
X236Y554D01*
X236Y552D01*
X232Y552D01*
X232Y550D01*
X230Y550D01*
X230Y548D01*
X228Y548D01*
X228Y546D01*
X224Y546D01*
X224Y544D01*
X222Y544D01*
X222Y542D01*
X220Y542D01*
X220Y540D01*
X218Y540D01*
X218Y538D01*
X214Y538D01*
X214Y536D01*
X212Y536D01*
X212Y534D01*
X210Y534D01*
X210Y532D01*
X208Y532D01*
X208Y530D01*
X204Y530D01*
X204Y528D01*
X202Y528D01*
X202Y526D01*
X200Y526D01*
X200Y524D01*
X198Y524D01*
X198Y522D01*
X194Y522D01*
X194Y520D01*
X192Y520D01*
X192Y518D01*
X190Y518D01*
X190Y516D01*
X188Y516D01*
X188Y496D01*
X186Y496D01*
X186Y490D01*
X184Y490D01*
X184Y484D01*
X182Y484D01*
X182Y482D01*
X180Y482D01*
X180Y478D01*
X178Y478D01*
X178Y476D01*
X176Y476D01*
X176Y474D01*
X174Y474D01*
X174Y472D01*
X172Y472D01*
X172Y470D01*
X170Y470D01*
X170Y468D01*
X168Y468D01*
X168Y466D01*
X164Y466D01*
X164Y464D01*
X160Y464D01*
X160Y462D01*
X156Y462D01*
X156Y460D01*
X148Y460D01*
X148Y458D01*
X310Y458D01*
X310Y480D01*
X312Y480D01*
X312Y632D01*
X290Y632D01*
G37*
D02*
G36*
X40Y554D02*
X40Y458D01*
X132Y458D01*
X132Y460D01*
X126Y460D01*
X126Y462D01*
X120Y462D01*
X120Y464D01*
X116Y464D01*
X116Y466D01*
X114Y466D01*
X114Y468D01*
X110Y468D01*
X110Y470D01*
X108Y470D01*
X108Y472D01*
X106Y472D01*
X106Y474D01*
X104Y474D01*
X104Y478D01*
X102Y478D01*
X102Y480D01*
X100Y480D01*
X100Y484D01*
X98Y484D01*
X98Y486D01*
X96Y486D01*
X96Y494D01*
X94Y494D01*
X94Y518D01*
X96Y518D01*
X96Y524D01*
X98Y524D01*
X98Y528D01*
X100Y528D01*
X100Y532D01*
X102Y532D01*
X102Y534D01*
X104Y534D01*
X104Y536D01*
X106Y536D01*
X106Y540D01*
X110Y540D01*
X110Y542D01*
X112Y542D01*
X112Y544D01*
X114Y544D01*
X114Y546D01*
X118Y546D01*
X118Y548D01*
X122Y548D01*
X122Y550D01*
X128Y550D01*
X128Y552D01*
X136Y552D01*
X136Y554D01*
X40Y554D01*
G37*
D02*
G36*
X40Y458D02*
X40Y456D01*
X310Y456D01*
X310Y458D01*
X40Y458D01*
G37*
D02*
G36*
X40Y458D02*
X40Y456D01*
X310Y456D01*
X310Y458D01*
X40Y458D01*
G37*
D02*
G36*
X40Y456D02*
X40Y284D01*
X254Y284D01*
X254Y286D01*
X248Y286D01*
X248Y288D01*
X244Y288D01*
X244Y290D01*
X240Y290D01*
X240Y292D01*
X238Y292D01*
X238Y294D01*
X234Y294D01*
X234Y296D01*
X232Y296D01*
X232Y298D01*
X230Y298D01*
X230Y300D01*
X228Y300D01*
X228Y304D01*
X226Y304D01*
X226Y306D01*
X224Y306D01*
X224Y310D01*
X222Y310D01*
X222Y314D01*
X220Y314D01*
X220Y322D01*
X218Y322D01*
X218Y340D01*
X220Y340D01*
X220Y346D01*
X222Y346D01*
X222Y352D01*
X224Y352D01*
X224Y356D01*
X226Y356D01*
X226Y358D01*
X228Y358D01*
X228Y360D01*
X230Y360D01*
X230Y364D01*
X232Y364D01*
X232Y366D01*
X236Y366D01*
X236Y368D01*
X238Y368D01*
X238Y370D01*
X240Y370D01*
X240Y372D01*
X244Y372D01*
X244Y374D01*
X248Y374D01*
X248Y376D01*
X256Y376D01*
X256Y378D01*
X284Y378D01*
X284Y380D01*
X286Y380D01*
X286Y382D01*
X290Y382D01*
X290Y384D01*
X292Y384D01*
X292Y386D01*
X296Y386D01*
X296Y388D01*
X298Y388D01*
X298Y390D01*
X302Y390D01*
X302Y392D01*
X304Y392D01*
X304Y394D01*
X308Y394D01*
X308Y396D01*
X310Y396D01*
X310Y456D01*
X40Y456D01*
G37*
D02*
G36*
X40Y284D02*
X40Y282D01*
X1440Y282D01*
X1440Y284D01*
X40Y284D01*
G37*
D02*
G36*
X40Y284D02*
X40Y282D01*
X1440Y282D01*
X1440Y284D01*
X40Y284D01*
G37*
D02*
G36*
X40Y282D02*
X40Y228D01*
X830Y228D01*
X830Y226D01*
X838Y226D01*
X838Y224D01*
X844Y224D01*
X844Y222D01*
X848Y222D01*
X848Y220D01*
X852Y220D01*
X852Y218D01*
X854Y218D01*
X854Y216D01*
X858Y216D01*
X858Y214D01*
X860Y214D01*
X860Y212D01*
X864Y212D01*
X864Y210D01*
X866Y210D01*
X866Y208D01*
X868Y208D01*
X868Y206D01*
X870Y206D01*
X870Y204D01*
X872Y204D01*
X872Y200D01*
X874Y200D01*
X874Y198D01*
X876Y198D01*
X876Y194D01*
X878Y194D01*
X878Y192D01*
X880Y192D01*
X880Y188D01*
X882Y188D01*
X882Y184D01*
X884Y184D01*
X884Y178D01*
X886Y178D01*
X886Y170D01*
X888Y170D01*
X888Y142D01*
X886Y142D01*
X886Y134D01*
X884Y134D01*
X884Y128D01*
X882Y128D01*
X882Y124D01*
X880Y124D01*
X880Y120D01*
X878Y120D01*
X878Y116D01*
X876Y116D01*
X876Y114D01*
X874Y114D01*
X874Y110D01*
X872Y110D01*
X872Y108D01*
X870Y108D01*
X870Y106D01*
X868Y106D01*
X868Y104D01*
X866Y104D01*
X866Y102D01*
X864Y102D01*
X864Y100D01*
X862Y100D01*
X862Y98D01*
X858Y98D01*
X858Y96D01*
X856Y96D01*
X856Y94D01*
X852Y94D01*
X852Y92D01*
X848Y92D01*
X848Y90D01*
X844Y90D01*
X844Y88D01*
X840Y88D01*
X840Y86D01*
X832Y86D01*
X832Y84D01*
X820Y84D01*
X820Y82D01*
X1312Y82D01*
X1312Y84D01*
X1310Y84D01*
X1310Y86D01*
X1306Y86D01*
X1306Y88D01*
X1304Y88D01*
X1304Y90D01*
X1302Y90D01*
X1302Y92D01*
X1300Y92D01*
X1300Y94D01*
X1298Y94D01*
X1298Y96D01*
X1296Y96D01*
X1296Y100D01*
X1294Y100D01*
X1294Y102D01*
X1292Y102D01*
X1292Y106D01*
X1290Y106D01*
X1290Y110D01*
X1288Y110D01*
X1288Y116D01*
X1286Y116D01*
X1286Y130D01*
X1284Y130D01*
X1284Y132D01*
X1286Y132D01*
X1286Y146D01*
X1288Y146D01*
X1288Y152D01*
X1290Y152D01*
X1290Y156D01*
X1292Y156D01*
X1292Y158D01*
X1294Y158D01*
X1294Y162D01*
X1296Y162D01*
X1296Y164D01*
X1298Y164D01*
X1298Y168D01*
X1300Y168D01*
X1300Y170D01*
X1302Y170D01*
X1302Y172D01*
X1304Y172D01*
X1304Y174D01*
X1308Y174D01*
X1308Y176D01*
X1310Y176D01*
X1310Y178D01*
X1314Y178D01*
X1314Y180D01*
X1318Y180D01*
X1318Y182D01*
X1322Y182D01*
X1322Y184D01*
X1330Y184D01*
X1330Y186D01*
X1350Y186D01*
X1350Y188D01*
X1352Y188D01*
X1352Y190D01*
X1354Y190D01*
X1354Y192D01*
X1356Y192D01*
X1356Y194D01*
X1358Y194D01*
X1358Y196D01*
X1360Y196D01*
X1360Y198D01*
X1362Y198D01*
X1362Y200D01*
X1364Y200D01*
X1364Y202D01*
X1366Y202D01*
X1366Y204D01*
X1368Y204D01*
X1368Y208D01*
X1370Y208D01*
X1370Y210D01*
X1372Y210D01*
X1372Y212D01*
X1374Y212D01*
X1374Y214D01*
X1376Y214D01*
X1376Y216D01*
X1378Y216D01*
X1378Y218D01*
X1380Y218D01*
X1380Y220D01*
X1382Y220D01*
X1382Y222D01*
X1384Y222D01*
X1384Y224D01*
X1386Y224D01*
X1386Y228D01*
X1388Y228D01*
X1388Y230D01*
X1390Y230D01*
X1390Y232D01*
X1392Y232D01*
X1392Y234D01*
X1394Y234D01*
X1394Y236D01*
X1396Y236D01*
X1396Y238D01*
X1398Y238D01*
X1398Y240D01*
X1400Y240D01*
X1400Y242D01*
X1402Y242D01*
X1402Y244D01*
X1404Y244D01*
X1404Y248D01*
X1406Y248D01*
X1406Y250D01*
X1408Y250D01*
X1408Y252D01*
X1410Y252D01*
X1410Y254D01*
X1412Y254D01*
X1412Y256D01*
X1414Y256D01*
X1414Y258D01*
X1416Y258D01*
X1416Y260D01*
X1418Y260D01*
X1418Y262D01*
X1420Y262D01*
X1420Y264D01*
X1422Y264D01*
X1422Y268D01*
X1424Y268D01*
X1424Y270D01*
X1426Y270D01*
X1426Y272D01*
X1428Y272D01*
X1428Y274D01*
X1430Y274D01*
X1430Y276D01*
X1432Y276D01*
X1432Y278D01*
X1434Y278D01*
X1434Y280D01*
X1436Y280D01*
X1436Y282D01*
X40Y282D01*
G37*
D02*
G36*
X40Y228D02*
X40Y178D01*
X314Y178D01*
X314Y84D01*
X798Y84D01*
X798Y86D01*
X792Y86D01*
X792Y88D01*
X786Y88D01*
X786Y90D01*
X782Y90D01*
X782Y92D01*
X778Y92D01*
X778Y94D01*
X776Y94D01*
X776Y96D01*
X772Y96D01*
X772Y98D01*
X770Y98D01*
X770Y100D01*
X768Y100D01*
X768Y102D01*
X766Y102D01*
X766Y104D01*
X764Y104D01*
X764Y106D01*
X762Y106D01*
X762Y108D01*
X760Y108D01*
X760Y110D01*
X758Y110D01*
X758Y112D01*
X756Y112D01*
X756Y116D01*
X754Y116D01*
X754Y118D01*
X752Y118D01*
X752Y122D01*
X750Y122D01*
X750Y126D01*
X748Y126D01*
X748Y132D01*
X746Y132D01*
X746Y138D01*
X744Y138D01*
X744Y148D01*
X742Y148D01*
X742Y164D01*
X744Y164D01*
X744Y174D01*
X746Y174D01*
X746Y180D01*
X748Y180D01*
X748Y186D01*
X750Y186D01*
X750Y190D01*
X752Y190D01*
X752Y192D01*
X754Y192D01*
X754Y196D01*
X756Y196D01*
X756Y200D01*
X758Y200D01*
X758Y202D01*
X760Y202D01*
X760Y204D01*
X762Y204D01*
X762Y206D01*
X764Y206D01*
X764Y208D01*
X766Y208D01*
X766Y210D01*
X768Y210D01*
X768Y212D01*
X770Y212D01*
X770Y214D01*
X774Y214D01*
X774Y216D01*
X776Y216D01*
X776Y218D01*
X780Y218D01*
X780Y220D01*
X784Y220D01*
X784Y222D01*
X788Y222D01*
X788Y224D01*
X794Y224D01*
X794Y226D01*
X800Y226D01*
X800Y228D01*
X40Y228D01*
G37*
D02*
G36*
X1466Y226D02*
X1466Y224D01*
X1464Y224D01*
X1464Y222D01*
X1462Y222D01*
X1462Y220D01*
X1460Y220D01*
X1460Y218D01*
X1458Y218D01*
X1458Y216D01*
X1456Y216D01*
X1456Y214D01*
X1454Y214D01*
X1454Y210D01*
X1452Y210D01*
X1452Y208D01*
X1450Y208D01*
X1450Y206D01*
X1448Y206D01*
X1448Y204D01*
X1446Y204D01*
X1446Y202D01*
X1444Y202D01*
X1444Y200D01*
X1442Y200D01*
X1442Y198D01*
X1440Y198D01*
X1440Y196D01*
X1438Y196D01*
X1438Y194D01*
X1436Y194D01*
X1436Y190D01*
X1434Y190D01*
X1434Y188D01*
X1432Y188D01*
X1432Y186D01*
X1552Y186D01*
X1552Y184D01*
X1560Y184D01*
X1560Y182D01*
X1564Y182D01*
X1564Y180D01*
X1568Y180D01*
X1568Y178D01*
X1572Y178D01*
X1572Y176D01*
X1574Y176D01*
X1574Y174D01*
X1576Y174D01*
X1576Y172D01*
X1578Y172D01*
X1578Y170D01*
X1580Y170D01*
X1580Y168D01*
X1582Y168D01*
X1582Y166D01*
X1584Y166D01*
X1584Y164D01*
X1586Y164D01*
X1586Y160D01*
X1752Y160D01*
X1752Y162D01*
X1760Y162D01*
X1760Y164D01*
X1766Y164D01*
X1766Y166D01*
X1772Y166D01*
X1772Y168D01*
X1780Y168D01*
X1780Y170D01*
X1786Y170D01*
X1786Y172D01*
X1794Y172D01*
X1794Y204D01*
X1806Y204D01*
X1806Y224D01*
X1804Y224D01*
X1804Y226D01*
X1466Y226D01*
G37*
D02*
G36*
X1430Y186D02*
X1430Y184D01*
X1428Y184D01*
X1428Y182D01*
X1426Y182D01*
X1426Y180D01*
X1424Y180D01*
X1424Y178D01*
X1422Y178D01*
X1422Y176D01*
X1420Y176D01*
X1420Y174D01*
X1418Y174D01*
X1418Y170D01*
X1416Y170D01*
X1416Y168D01*
X1414Y168D01*
X1414Y166D01*
X1412Y166D01*
X1412Y164D01*
X1410Y164D01*
X1410Y162D01*
X1408Y162D01*
X1408Y160D01*
X1406Y160D01*
X1406Y158D01*
X1404Y158D01*
X1404Y156D01*
X1402Y156D01*
X1402Y154D01*
X1400Y154D01*
X1400Y150D01*
X1398Y150D01*
X1398Y148D01*
X1396Y148D01*
X1396Y120D01*
X1394Y120D01*
X1394Y112D01*
X1392Y112D01*
X1392Y108D01*
X1390Y108D01*
X1390Y104D01*
X1388Y104D01*
X1388Y100D01*
X1386Y100D01*
X1386Y98D01*
X1384Y98D01*
X1384Y96D01*
X1382Y96D01*
X1382Y92D01*
X1380Y92D01*
X1380Y90D01*
X1376Y90D01*
X1376Y88D01*
X1374Y88D01*
X1374Y86D01*
X1372Y86D01*
X1372Y84D01*
X1368Y84D01*
X1368Y82D01*
X1364Y82D01*
X1364Y80D01*
X1360Y80D01*
X1360Y78D01*
X1354Y78D01*
X1354Y76D01*
X1526Y76D01*
X1526Y78D01*
X1520Y78D01*
X1520Y80D01*
X1516Y80D01*
X1516Y82D01*
X1512Y82D01*
X1512Y84D01*
X1510Y84D01*
X1510Y86D01*
X1506Y86D01*
X1506Y88D01*
X1504Y88D01*
X1504Y90D01*
X1502Y90D01*
X1502Y92D01*
X1500Y92D01*
X1500Y94D01*
X1498Y94D01*
X1498Y96D01*
X1496Y96D01*
X1496Y100D01*
X1494Y100D01*
X1494Y102D01*
X1492Y102D01*
X1492Y106D01*
X1490Y106D01*
X1490Y110D01*
X1488Y110D01*
X1488Y116D01*
X1486Y116D01*
X1486Y130D01*
X1484Y130D01*
X1484Y132D01*
X1486Y132D01*
X1486Y146D01*
X1488Y146D01*
X1488Y152D01*
X1490Y152D01*
X1490Y156D01*
X1492Y156D01*
X1492Y158D01*
X1494Y158D01*
X1494Y162D01*
X1496Y162D01*
X1496Y164D01*
X1498Y164D01*
X1498Y168D01*
X1500Y168D01*
X1500Y170D01*
X1502Y170D01*
X1502Y172D01*
X1504Y172D01*
X1504Y174D01*
X1508Y174D01*
X1508Y176D01*
X1510Y176D01*
X1510Y178D01*
X1514Y178D01*
X1514Y180D01*
X1518Y180D01*
X1518Y182D01*
X1522Y182D01*
X1522Y184D01*
X1530Y184D01*
X1530Y186D01*
X1430Y186D01*
G37*
D02*
G36*
X40Y178D02*
X40Y84D01*
X218Y84D01*
X218Y178D01*
X40Y178D01*
G37*
D02*
G36*
X1924Y176D02*
X1924Y174D01*
X1922Y174D01*
X1922Y172D01*
X1918Y172D01*
X1918Y170D01*
X1916Y170D01*
X1916Y168D01*
X1912Y168D01*
X1912Y166D01*
X1910Y166D01*
X1910Y164D01*
X1906Y164D01*
X1906Y162D01*
X1904Y162D01*
X1904Y160D01*
X1900Y160D01*
X1900Y158D01*
X1898Y158D01*
X1898Y156D01*
X1894Y156D01*
X1894Y154D01*
X1892Y154D01*
X1892Y152D01*
X1888Y152D01*
X1888Y108D01*
X1782Y108D01*
X1782Y106D01*
X1774Y106D01*
X1774Y104D01*
X1768Y104D01*
X1768Y102D01*
X1762Y102D01*
X1762Y100D01*
X1586Y100D01*
X1586Y98D01*
X1584Y98D01*
X1584Y96D01*
X1582Y96D01*
X1582Y92D01*
X1580Y92D01*
X1580Y90D01*
X1576Y90D01*
X1576Y88D01*
X1574Y88D01*
X1574Y86D01*
X1572Y86D01*
X1572Y84D01*
X1568Y84D01*
X1568Y82D01*
X1564Y82D01*
X1564Y80D01*
X1560Y80D01*
X1560Y78D01*
X1554Y78D01*
X1554Y76D01*
X1946Y76D01*
X1946Y176D01*
X1924Y176D01*
G37*
D02*
G36*
X40Y84D02*
X40Y82D01*
X810Y82D01*
X810Y84D01*
X40Y84D01*
G37*
D02*
G36*
X40Y84D02*
X40Y82D01*
X810Y82D01*
X810Y84D01*
X40Y84D01*
G37*
D02*
G36*
X40Y82D02*
X40Y80D01*
X1316Y80D01*
X1316Y82D01*
X40Y82D01*
G37*
D02*
G36*
X40Y82D02*
X40Y80D01*
X1316Y80D01*
X1316Y82D01*
X40Y82D01*
G37*
D02*
G36*
X40Y80D02*
X40Y76D01*
X1326Y76D01*
X1326Y78D01*
X1320Y78D01*
X1320Y80D01*
X40Y80D01*
G37*
D02*
G36*
X40Y76D02*
X40Y74D01*
X1946Y74D01*
X1946Y76D01*
X40Y76D01*
G37*
D02*
G36*
X40Y76D02*
X40Y74D01*
X1946Y74D01*
X1946Y76D01*
X40Y76D01*
G37*
D02*
G36*
X40Y76D02*
X40Y74D01*
X1946Y74D01*
X1946Y76D01*
X40Y76D01*
G37*
D02*
G36*
X40Y74D02*
X40Y40D01*
X1946Y40D01*
X1946Y74D01*
X40Y74D01*
G37*
D02*
G36*
X1354Y1630D02*
X1354Y1628D01*
X1352Y1628D01*
X1352Y1624D01*
X1350Y1624D01*
X1350Y1622D01*
X1348Y1622D01*
X1348Y1620D01*
X1346Y1620D01*
X1346Y1618D01*
X1342Y1618D01*
X1342Y1616D01*
X1340Y1616D01*
X1340Y1614D01*
X1336Y1614D01*
X1336Y1612D01*
X1332Y1612D01*
X1332Y1610D01*
X1326Y1610D01*
X1326Y1608D01*
X1404Y1608D01*
X1404Y1610D01*
X1398Y1610D01*
X1398Y1612D01*
X1394Y1612D01*
X1394Y1614D01*
X1390Y1614D01*
X1390Y1616D01*
X1386Y1616D01*
X1386Y1618D01*
X1384Y1618D01*
X1384Y1620D01*
X1382Y1620D01*
X1382Y1622D01*
X1380Y1622D01*
X1380Y1624D01*
X1378Y1624D01*
X1378Y1626D01*
X1376Y1626D01*
X1376Y1630D01*
X1354Y1630D01*
G37*
D02*
G36*
X1448Y1622D02*
X1448Y1620D01*
X1446Y1620D01*
X1446Y1618D01*
X1442Y1618D01*
X1442Y1616D01*
X1440Y1616D01*
X1440Y1614D01*
X1436Y1614D01*
X1436Y1612D01*
X1432Y1612D01*
X1432Y1610D01*
X1426Y1610D01*
X1426Y1608D01*
X1468Y1608D01*
X1468Y1622D01*
X1448Y1622D01*
G37*
D02*
G36*
X1264Y1620D02*
X1264Y1608D01*
X1304Y1608D01*
X1304Y1610D01*
X1298Y1610D01*
X1298Y1612D01*
X1294Y1612D01*
X1294Y1614D01*
X1290Y1614D01*
X1290Y1616D01*
X1286Y1616D01*
X1286Y1618D01*
X1284Y1618D01*
X1284Y1620D01*
X1264Y1620D01*
G37*
D02*
G36*
X1264Y1608D02*
X1264Y1606D01*
X1468Y1606D01*
X1468Y1608D01*
X1264Y1608D01*
G37*
D02*
G36*
X1264Y1608D02*
X1264Y1606D01*
X1468Y1606D01*
X1468Y1608D01*
X1264Y1608D01*
G37*
D02*
G36*
X1264Y1608D02*
X1264Y1606D01*
X1468Y1606D01*
X1468Y1608D01*
X1264Y1608D01*
G37*
D02*
G36*
X1264Y1606D02*
X1264Y1416D01*
X1268Y1416D01*
X1268Y1414D01*
X1270Y1414D01*
X1270Y1412D01*
X1274Y1412D01*
X1274Y1410D01*
X1276Y1410D01*
X1276Y1408D01*
X1278Y1408D01*
X1278Y1406D01*
X1282Y1406D01*
X1282Y1404D01*
X1284Y1404D01*
X1284Y1402D01*
X1326Y1402D01*
X1326Y1400D01*
X1332Y1400D01*
X1332Y1398D01*
X1336Y1398D01*
X1336Y1396D01*
X1340Y1396D01*
X1340Y1394D01*
X1342Y1394D01*
X1342Y1392D01*
X1346Y1392D01*
X1346Y1390D01*
X1348Y1390D01*
X1348Y1388D01*
X1350Y1388D01*
X1350Y1386D01*
X1352Y1386D01*
X1352Y1382D01*
X1354Y1382D01*
X1354Y1380D01*
X1376Y1380D01*
X1376Y1384D01*
X1378Y1384D01*
X1378Y1386D01*
X1380Y1386D01*
X1380Y1388D01*
X1382Y1388D01*
X1382Y1390D01*
X1384Y1390D01*
X1384Y1392D01*
X1386Y1392D01*
X1386Y1394D01*
X1390Y1394D01*
X1390Y1396D01*
X1392Y1396D01*
X1392Y1398D01*
X1396Y1398D01*
X1396Y1400D01*
X1404Y1400D01*
X1404Y1402D01*
X1432Y1402D01*
X1432Y1404D01*
X1434Y1404D01*
X1434Y1406D01*
X1436Y1406D01*
X1436Y1408D01*
X1438Y1408D01*
X1438Y1410D01*
X1440Y1410D01*
X1440Y1412D01*
X1442Y1412D01*
X1442Y1414D01*
X1444Y1414D01*
X1444Y1416D01*
X1446Y1416D01*
X1446Y1418D01*
X1448Y1418D01*
X1448Y1420D01*
X1450Y1420D01*
X1450Y1422D01*
X1452Y1422D01*
X1452Y1424D01*
X1454Y1424D01*
X1454Y1426D01*
X1456Y1426D01*
X1456Y1428D01*
X1458Y1428D01*
X1458Y1430D01*
X1460Y1430D01*
X1460Y1432D01*
X1462Y1432D01*
X1462Y1434D01*
X1464Y1434D01*
X1464Y1436D01*
X1466Y1436D01*
X1466Y1438D01*
X1468Y1438D01*
X1468Y1606D01*
X1264Y1606D01*
G37*
D02*
G36*
X1110Y1512D02*
X1110Y1510D01*
X1108Y1510D01*
X1108Y1508D01*
X1104Y1508D01*
X1104Y1506D01*
X1102Y1506D01*
X1102Y1504D01*
X1100Y1504D01*
X1100Y1502D01*
X1096Y1502D01*
X1096Y1500D01*
X1094Y1500D01*
X1094Y1498D01*
X1092Y1498D01*
X1092Y1496D01*
X1088Y1496D01*
X1088Y788D01*
X1090Y788D01*
X1090Y436D01*
X1156Y436D01*
X1156Y438D01*
X1148Y438D01*
X1148Y440D01*
X1144Y440D01*
X1144Y442D01*
X1142Y442D01*
X1142Y444D01*
X1138Y444D01*
X1138Y446D01*
X1136Y446D01*
X1136Y448D01*
X1134Y448D01*
X1134Y450D01*
X1132Y450D01*
X1132Y452D01*
X1130Y452D01*
X1130Y454D01*
X1128Y454D01*
X1128Y458D01*
X1126Y458D01*
X1126Y462D01*
X1124Y462D01*
X1124Y466D01*
X1122Y466D01*
X1122Y476D01*
X1120Y476D01*
X1120Y486D01*
X1122Y486D01*
X1122Y494D01*
X1124Y494D01*
X1124Y500D01*
X1126Y500D01*
X1126Y504D01*
X1128Y504D01*
X1128Y506D01*
X1130Y506D01*
X1130Y510D01*
X1132Y510D01*
X1132Y512D01*
X1134Y512D01*
X1134Y514D01*
X1136Y514D01*
X1136Y516D01*
X1140Y516D01*
X1140Y518D01*
X1142Y518D01*
X1142Y520D01*
X1146Y520D01*
X1146Y540D01*
X1144Y540D01*
X1144Y542D01*
X1142Y542D01*
X1142Y544D01*
X1138Y544D01*
X1138Y546D01*
X1136Y546D01*
X1136Y548D01*
X1134Y548D01*
X1134Y550D01*
X1132Y550D01*
X1132Y552D01*
X1130Y552D01*
X1130Y554D01*
X1128Y554D01*
X1128Y558D01*
X1126Y558D01*
X1126Y562D01*
X1124Y562D01*
X1124Y566D01*
X1122Y566D01*
X1122Y576D01*
X1120Y576D01*
X1120Y586D01*
X1122Y586D01*
X1122Y594D01*
X1124Y594D01*
X1124Y600D01*
X1126Y600D01*
X1126Y604D01*
X1128Y604D01*
X1128Y606D01*
X1130Y606D01*
X1130Y610D01*
X1132Y610D01*
X1132Y612D01*
X1134Y612D01*
X1134Y614D01*
X1136Y614D01*
X1136Y616D01*
X1140Y616D01*
X1140Y618D01*
X1142Y618D01*
X1142Y620D01*
X1146Y620D01*
X1146Y640D01*
X1144Y640D01*
X1144Y642D01*
X1142Y642D01*
X1142Y644D01*
X1138Y644D01*
X1138Y646D01*
X1136Y646D01*
X1136Y648D01*
X1134Y648D01*
X1134Y650D01*
X1132Y650D01*
X1132Y652D01*
X1130Y652D01*
X1130Y654D01*
X1128Y654D01*
X1128Y658D01*
X1126Y658D01*
X1126Y662D01*
X1124Y662D01*
X1124Y666D01*
X1122Y666D01*
X1122Y676D01*
X1120Y676D01*
X1120Y686D01*
X1122Y686D01*
X1122Y694D01*
X1124Y694D01*
X1124Y700D01*
X1126Y700D01*
X1126Y704D01*
X1128Y704D01*
X1128Y706D01*
X1130Y706D01*
X1130Y710D01*
X1132Y710D01*
X1132Y712D01*
X1134Y712D01*
X1134Y714D01*
X1136Y714D01*
X1136Y716D01*
X1140Y716D01*
X1140Y718D01*
X1142Y718D01*
X1142Y720D01*
X1146Y720D01*
X1146Y740D01*
X1144Y740D01*
X1144Y742D01*
X1142Y742D01*
X1142Y744D01*
X1138Y744D01*
X1138Y746D01*
X1136Y746D01*
X1136Y748D01*
X1134Y748D01*
X1134Y750D01*
X1132Y750D01*
X1132Y752D01*
X1130Y752D01*
X1130Y754D01*
X1128Y754D01*
X1128Y758D01*
X1126Y758D01*
X1126Y762D01*
X1124Y762D01*
X1124Y766D01*
X1122Y766D01*
X1122Y776D01*
X1120Y776D01*
X1120Y786D01*
X1122Y786D01*
X1122Y794D01*
X1124Y794D01*
X1124Y800D01*
X1126Y800D01*
X1126Y804D01*
X1128Y804D01*
X1128Y806D01*
X1130Y806D01*
X1130Y810D01*
X1132Y810D01*
X1132Y812D01*
X1134Y812D01*
X1134Y814D01*
X1136Y814D01*
X1136Y816D01*
X1140Y816D01*
X1140Y818D01*
X1142Y818D01*
X1142Y820D01*
X1146Y820D01*
X1146Y840D01*
X1144Y840D01*
X1144Y842D01*
X1142Y842D01*
X1142Y844D01*
X1138Y844D01*
X1138Y846D01*
X1136Y846D01*
X1136Y848D01*
X1134Y848D01*
X1134Y850D01*
X1132Y850D01*
X1132Y852D01*
X1130Y852D01*
X1130Y854D01*
X1128Y854D01*
X1128Y858D01*
X1126Y858D01*
X1126Y862D01*
X1124Y862D01*
X1124Y866D01*
X1122Y866D01*
X1122Y876D01*
X1120Y876D01*
X1120Y886D01*
X1122Y886D01*
X1122Y894D01*
X1124Y894D01*
X1124Y900D01*
X1126Y900D01*
X1126Y904D01*
X1128Y904D01*
X1128Y906D01*
X1130Y906D01*
X1130Y910D01*
X1132Y910D01*
X1132Y912D01*
X1134Y912D01*
X1134Y914D01*
X1136Y914D01*
X1136Y916D01*
X1140Y916D01*
X1140Y918D01*
X1142Y918D01*
X1142Y920D01*
X1146Y920D01*
X1146Y940D01*
X1144Y940D01*
X1144Y942D01*
X1142Y942D01*
X1142Y944D01*
X1138Y944D01*
X1138Y946D01*
X1136Y946D01*
X1136Y948D01*
X1134Y948D01*
X1134Y950D01*
X1132Y950D01*
X1132Y952D01*
X1130Y952D01*
X1130Y954D01*
X1128Y954D01*
X1128Y958D01*
X1126Y958D01*
X1126Y962D01*
X1124Y962D01*
X1124Y966D01*
X1122Y966D01*
X1122Y976D01*
X1120Y976D01*
X1120Y986D01*
X1122Y986D01*
X1122Y994D01*
X1124Y994D01*
X1124Y1000D01*
X1126Y1000D01*
X1126Y1004D01*
X1128Y1004D01*
X1128Y1006D01*
X1130Y1006D01*
X1130Y1010D01*
X1132Y1010D01*
X1132Y1012D01*
X1134Y1012D01*
X1134Y1014D01*
X1136Y1014D01*
X1136Y1016D01*
X1140Y1016D01*
X1140Y1018D01*
X1142Y1018D01*
X1142Y1020D01*
X1146Y1020D01*
X1146Y1040D01*
X1144Y1040D01*
X1144Y1042D01*
X1142Y1042D01*
X1142Y1044D01*
X1138Y1044D01*
X1138Y1046D01*
X1136Y1046D01*
X1136Y1048D01*
X1134Y1048D01*
X1134Y1050D01*
X1132Y1050D01*
X1132Y1052D01*
X1130Y1052D01*
X1130Y1054D01*
X1128Y1054D01*
X1128Y1058D01*
X1126Y1058D01*
X1126Y1062D01*
X1124Y1062D01*
X1124Y1066D01*
X1122Y1066D01*
X1122Y1076D01*
X1120Y1076D01*
X1120Y1086D01*
X1122Y1086D01*
X1122Y1094D01*
X1124Y1094D01*
X1124Y1100D01*
X1126Y1100D01*
X1126Y1104D01*
X1128Y1104D01*
X1128Y1106D01*
X1130Y1106D01*
X1130Y1110D01*
X1132Y1110D01*
X1132Y1112D01*
X1134Y1112D01*
X1134Y1114D01*
X1136Y1114D01*
X1136Y1116D01*
X1140Y1116D01*
X1140Y1118D01*
X1142Y1118D01*
X1142Y1120D01*
X1146Y1120D01*
X1146Y1140D01*
X1144Y1140D01*
X1144Y1142D01*
X1142Y1142D01*
X1142Y1144D01*
X1138Y1144D01*
X1138Y1146D01*
X1136Y1146D01*
X1136Y1148D01*
X1134Y1148D01*
X1134Y1150D01*
X1132Y1150D01*
X1132Y1152D01*
X1130Y1152D01*
X1130Y1154D01*
X1128Y1154D01*
X1128Y1158D01*
X1126Y1158D01*
X1126Y1162D01*
X1124Y1162D01*
X1124Y1166D01*
X1122Y1166D01*
X1122Y1176D01*
X1120Y1176D01*
X1120Y1186D01*
X1122Y1186D01*
X1122Y1194D01*
X1124Y1194D01*
X1124Y1200D01*
X1126Y1200D01*
X1126Y1204D01*
X1128Y1204D01*
X1128Y1206D01*
X1130Y1206D01*
X1130Y1210D01*
X1132Y1210D01*
X1132Y1212D01*
X1134Y1212D01*
X1134Y1214D01*
X1136Y1214D01*
X1136Y1216D01*
X1140Y1216D01*
X1140Y1218D01*
X1142Y1218D01*
X1142Y1220D01*
X1146Y1220D01*
X1146Y1240D01*
X1144Y1240D01*
X1144Y1242D01*
X1142Y1242D01*
X1142Y1244D01*
X1138Y1244D01*
X1138Y1246D01*
X1136Y1246D01*
X1136Y1248D01*
X1134Y1248D01*
X1134Y1250D01*
X1132Y1250D01*
X1132Y1252D01*
X1130Y1252D01*
X1130Y1254D01*
X1128Y1254D01*
X1128Y1258D01*
X1126Y1258D01*
X1126Y1262D01*
X1124Y1262D01*
X1124Y1266D01*
X1122Y1266D01*
X1122Y1276D01*
X1120Y1276D01*
X1120Y1286D01*
X1122Y1286D01*
X1122Y1294D01*
X1124Y1294D01*
X1124Y1300D01*
X1126Y1300D01*
X1126Y1304D01*
X1128Y1304D01*
X1128Y1306D01*
X1130Y1306D01*
X1130Y1310D01*
X1132Y1310D01*
X1132Y1312D01*
X1134Y1312D01*
X1134Y1314D01*
X1136Y1314D01*
X1136Y1316D01*
X1140Y1316D01*
X1140Y1318D01*
X1142Y1318D01*
X1142Y1320D01*
X1146Y1320D01*
X1146Y1340D01*
X1144Y1340D01*
X1144Y1342D01*
X1142Y1342D01*
X1142Y1344D01*
X1138Y1344D01*
X1138Y1346D01*
X1136Y1346D01*
X1136Y1348D01*
X1134Y1348D01*
X1134Y1350D01*
X1132Y1350D01*
X1132Y1352D01*
X1130Y1352D01*
X1130Y1354D01*
X1128Y1354D01*
X1128Y1358D01*
X1126Y1358D01*
X1126Y1362D01*
X1124Y1362D01*
X1124Y1366D01*
X1122Y1366D01*
X1122Y1376D01*
X1120Y1376D01*
X1120Y1386D01*
X1122Y1386D01*
X1122Y1394D01*
X1124Y1394D01*
X1124Y1400D01*
X1126Y1400D01*
X1126Y1404D01*
X1128Y1404D01*
X1128Y1406D01*
X1130Y1406D01*
X1130Y1410D01*
X1132Y1410D01*
X1132Y1412D01*
X1134Y1412D01*
X1134Y1414D01*
X1136Y1414D01*
X1136Y1416D01*
X1140Y1416D01*
X1140Y1418D01*
X1142Y1418D01*
X1142Y1420D01*
X1146Y1420D01*
X1146Y1440D01*
X1144Y1440D01*
X1144Y1442D01*
X1142Y1442D01*
X1142Y1444D01*
X1138Y1444D01*
X1138Y1446D01*
X1136Y1446D01*
X1136Y1448D01*
X1134Y1448D01*
X1134Y1450D01*
X1132Y1450D01*
X1132Y1452D01*
X1130Y1452D01*
X1130Y1454D01*
X1128Y1454D01*
X1128Y1458D01*
X1126Y1458D01*
X1126Y1462D01*
X1124Y1462D01*
X1124Y1466D01*
X1122Y1466D01*
X1122Y1476D01*
X1120Y1476D01*
X1120Y1486D01*
X1122Y1486D01*
X1122Y1494D01*
X1124Y1494D01*
X1124Y1500D01*
X1126Y1500D01*
X1126Y1504D01*
X1128Y1504D01*
X1128Y1506D01*
X1130Y1506D01*
X1130Y1512D01*
X1110Y1512D01*
G37*
D02*
G36*
X1192Y446D02*
X1192Y444D01*
X1190Y444D01*
X1190Y442D01*
X1186Y442D01*
X1186Y440D01*
X1182Y440D01*
X1182Y438D01*
X1176Y438D01*
X1176Y436D01*
X1212Y436D01*
X1212Y446D01*
X1192Y446D01*
G37*
D02*
G36*
X1090Y436D02*
X1090Y434D01*
X1212Y434D01*
X1212Y436D01*
X1090Y436D01*
G37*
D02*
G36*
X1090Y436D02*
X1090Y434D01*
X1212Y434D01*
X1212Y436D01*
X1090Y436D01*
G37*
D02*
G36*
X1090Y434D02*
X1090Y360D01*
X1178Y360D01*
X1178Y362D01*
X1180Y362D01*
X1180Y364D01*
X1182Y364D01*
X1182Y366D01*
X1184Y366D01*
X1184Y368D01*
X1186Y368D01*
X1186Y370D01*
X1188Y370D01*
X1188Y372D01*
X1190Y372D01*
X1190Y374D01*
X1192Y374D01*
X1192Y376D01*
X1194Y376D01*
X1194Y378D01*
X1196Y378D01*
X1196Y380D01*
X1198Y380D01*
X1198Y382D01*
X1200Y382D01*
X1200Y384D01*
X1202Y384D01*
X1202Y386D01*
X1204Y386D01*
X1204Y388D01*
X1206Y388D01*
X1206Y390D01*
X1208Y390D01*
X1208Y392D01*
X1210Y392D01*
X1210Y394D01*
X1212Y394D01*
X1212Y434D01*
X1090Y434D01*
G37*
D02*
G36*
X1512Y1510D02*
X1512Y1426D01*
X1510Y1426D01*
X1510Y1424D01*
X1530Y1424D01*
X1530Y1426D01*
X1534Y1426D01*
X1534Y1428D01*
X1538Y1428D01*
X1538Y1430D01*
X1542Y1430D01*
X1542Y1432D01*
X1548Y1432D01*
X1548Y1434D01*
X1552Y1434D01*
X1552Y1436D01*
X1556Y1436D01*
X1556Y1438D01*
X1560Y1438D01*
X1560Y1440D01*
X1566Y1440D01*
X1566Y1442D01*
X1570Y1442D01*
X1570Y1444D01*
X1574Y1444D01*
X1574Y1446D01*
X1580Y1446D01*
X1580Y1448D01*
X1584Y1448D01*
X1584Y1450D01*
X1588Y1450D01*
X1588Y1452D01*
X1590Y1452D01*
X1590Y1472D01*
X1586Y1472D01*
X1586Y1474D01*
X1584Y1474D01*
X1584Y1476D01*
X1580Y1476D01*
X1580Y1478D01*
X1578Y1478D01*
X1578Y1480D01*
X1574Y1480D01*
X1574Y1482D01*
X1570Y1482D01*
X1570Y1484D01*
X1568Y1484D01*
X1568Y1486D01*
X1564Y1486D01*
X1564Y1488D01*
X1562Y1488D01*
X1562Y1490D01*
X1558Y1490D01*
X1558Y1492D01*
X1556Y1492D01*
X1556Y1494D01*
X1552Y1494D01*
X1552Y1496D01*
X1550Y1496D01*
X1550Y1498D01*
X1546Y1498D01*
X1546Y1500D01*
X1544Y1500D01*
X1544Y1502D01*
X1540Y1502D01*
X1540Y1504D01*
X1538Y1504D01*
X1538Y1506D01*
X1534Y1506D01*
X1534Y1508D01*
X1532Y1508D01*
X1532Y1510D01*
X1512Y1510D01*
G37*
D02*
G36*
X1602Y1410D02*
X1602Y1408D01*
X1598Y1408D01*
X1598Y1406D01*
X1592Y1406D01*
X1592Y1404D01*
X1588Y1404D01*
X1588Y1402D01*
X1584Y1402D01*
X1584Y1400D01*
X1580Y1400D01*
X1580Y1398D01*
X1574Y1398D01*
X1574Y1396D01*
X1570Y1396D01*
X1570Y1394D01*
X1566Y1394D01*
X1566Y1392D01*
X1562Y1392D01*
X1562Y1040D01*
X1566Y1040D01*
X1566Y1038D01*
X1568Y1038D01*
X1568Y1036D01*
X1572Y1036D01*
X1572Y1034D01*
X1574Y1034D01*
X1574Y1032D01*
X1578Y1032D01*
X1578Y1030D01*
X1580Y1030D01*
X1580Y1028D01*
X1584Y1028D01*
X1584Y1026D01*
X1604Y1026D01*
X1604Y1036D01*
X1602Y1036D01*
X1602Y1044D01*
X1600Y1044D01*
X1600Y1064D01*
X1602Y1064D01*
X1602Y1072D01*
X1604Y1072D01*
X1604Y1076D01*
X1606Y1076D01*
X1606Y1080D01*
X1608Y1080D01*
X1608Y1084D01*
X1610Y1084D01*
X1610Y1086D01*
X1612Y1086D01*
X1612Y1088D01*
X1614Y1088D01*
X1614Y1090D01*
X1616Y1090D01*
X1616Y1092D01*
X1618Y1092D01*
X1618Y1094D01*
X1620Y1094D01*
X1620Y1096D01*
X1622Y1096D01*
X1622Y1098D01*
X1626Y1098D01*
X1626Y1100D01*
X1628Y1100D01*
X1628Y1102D01*
X1632Y1102D01*
X1632Y1104D01*
X1638Y1104D01*
X1638Y1124D01*
X1634Y1124D01*
X1634Y1126D01*
X1632Y1126D01*
X1632Y1128D01*
X1630Y1128D01*
X1630Y1130D01*
X1628Y1130D01*
X1628Y1132D01*
X1626Y1132D01*
X1626Y1134D01*
X1624Y1134D01*
X1624Y1138D01*
X1622Y1138D01*
X1622Y1144D01*
X1620Y1144D01*
X1620Y1162D01*
X1622Y1162D01*
X1622Y1166D01*
X1624Y1166D01*
X1624Y1170D01*
X1626Y1170D01*
X1626Y1174D01*
X1628Y1174D01*
X1628Y1176D01*
X1630Y1176D01*
X1630Y1178D01*
X1632Y1178D01*
X1632Y1180D01*
X1636Y1180D01*
X1636Y1202D01*
X1630Y1202D01*
X1630Y1204D01*
X1628Y1204D01*
X1628Y1206D01*
X1624Y1206D01*
X1624Y1208D01*
X1622Y1208D01*
X1622Y1210D01*
X1618Y1210D01*
X1618Y1212D01*
X1616Y1212D01*
X1616Y1214D01*
X1614Y1214D01*
X1614Y1216D01*
X1612Y1216D01*
X1612Y1220D01*
X1610Y1220D01*
X1610Y1222D01*
X1608Y1222D01*
X1608Y1226D01*
X1606Y1226D01*
X1606Y1228D01*
X1604Y1228D01*
X1604Y1234D01*
X1602Y1234D01*
X1602Y1242D01*
X1600Y1242D01*
X1600Y1260D01*
X1602Y1260D01*
X1602Y1268D01*
X1604Y1268D01*
X1604Y1274D01*
X1606Y1274D01*
X1606Y1276D01*
X1608Y1276D01*
X1608Y1280D01*
X1610Y1280D01*
X1610Y1282D01*
X1612Y1282D01*
X1612Y1286D01*
X1614Y1286D01*
X1614Y1288D01*
X1616Y1288D01*
X1616Y1290D01*
X1618Y1290D01*
X1618Y1310D01*
X1616Y1310D01*
X1616Y1312D01*
X1614Y1312D01*
X1614Y1316D01*
X1612Y1316D01*
X1612Y1318D01*
X1610Y1318D01*
X1610Y1320D01*
X1608Y1320D01*
X1608Y1324D01*
X1606Y1324D01*
X1606Y1328D01*
X1604Y1328D01*
X1604Y1332D01*
X1602Y1332D01*
X1602Y1340D01*
X1600Y1340D01*
X1600Y1358D01*
X1602Y1358D01*
X1602Y1366D01*
X1604Y1366D01*
X1604Y1372D01*
X1606Y1372D01*
X1606Y1376D01*
X1608Y1376D01*
X1608Y1378D01*
X1610Y1378D01*
X1610Y1382D01*
X1612Y1382D01*
X1612Y1384D01*
X1614Y1384D01*
X1614Y1386D01*
X1616Y1386D01*
X1616Y1388D01*
X1618Y1388D01*
X1618Y1390D01*
X1620Y1390D01*
X1620Y1392D01*
X1624Y1392D01*
X1624Y1410D01*
X1602Y1410D01*
G37*
D02*
G36*
X1210Y1388D02*
X1210Y1370D01*
X1208Y1370D01*
X1208Y1364D01*
X1206Y1364D01*
X1206Y1360D01*
X1204Y1360D01*
X1204Y1356D01*
X1202Y1356D01*
X1202Y1354D01*
X1200Y1354D01*
X1200Y1350D01*
X1198Y1350D01*
X1198Y1348D01*
X1196Y1348D01*
X1196Y1346D01*
X1192Y1346D01*
X1192Y1344D01*
X1190Y1344D01*
X1190Y1342D01*
X1186Y1342D01*
X1186Y1320D01*
X1188Y1320D01*
X1188Y1318D01*
X1192Y1318D01*
X1192Y1316D01*
X1194Y1316D01*
X1194Y1314D01*
X1196Y1314D01*
X1196Y1312D01*
X1198Y1312D01*
X1198Y1310D01*
X1200Y1310D01*
X1200Y1308D01*
X1202Y1308D01*
X1202Y1306D01*
X1204Y1306D01*
X1204Y1302D01*
X1206Y1302D01*
X1206Y1298D01*
X1208Y1298D01*
X1208Y1292D01*
X1210Y1292D01*
X1210Y1282D01*
X1214Y1282D01*
X1214Y1280D01*
X1218Y1280D01*
X1218Y1278D01*
X1222Y1278D01*
X1222Y1276D01*
X1226Y1276D01*
X1226Y1274D01*
X1230Y1274D01*
X1230Y1272D01*
X1234Y1272D01*
X1234Y1270D01*
X1238Y1270D01*
X1238Y1268D01*
X1242Y1268D01*
X1242Y1266D01*
X1246Y1266D01*
X1246Y1264D01*
X1250Y1264D01*
X1250Y1262D01*
X1254Y1262D01*
X1254Y1260D01*
X1258Y1260D01*
X1258Y1258D01*
X1260Y1258D01*
X1260Y1256D01*
X1264Y1256D01*
X1264Y1254D01*
X1268Y1254D01*
X1268Y1252D01*
X1272Y1252D01*
X1272Y1250D01*
X1292Y1250D01*
X1292Y1314D01*
X1290Y1314D01*
X1290Y1316D01*
X1286Y1316D01*
X1286Y1318D01*
X1284Y1318D01*
X1284Y1320D01*
X1282Y1320D01*
X1282Y1322D01*
X1280Y1322D01*
X1280Y1324D01*
X1278Y1324D01*
X1278Y1326D01*
X1276Y1326D01*
X1276Y1330D01*
X1274Y1330D01*
X1274Y1332D01*
X1272Y1332D01*
X1272Y1336D01*
X1270Y1336D01*
X1270Y1342D01*
X1268Y1342D01*
X1268Y1362D01*
X1264Y1362D01*
X1264Y1364D01*
X1262Y1364D01*
X1262Y1366D01*
X1260Y1366D01*
X1260Y1368D01*
X1256Y1368D01*
X1256Y1370D01*
X1254Y1370D01*
X1254Y1372D01*
X1250Y1372D01*
X1250Y1374D01*
X1248Y1374D01*
X1248Y1376D01*
X1244Y1376D01*
X1244Y1378D01*
X1242Y1378D01*
X1242Y1380D01*
X1240Y1380D01*
X1240Y1382D01*
X1236Y1382D01*
X1236Y1384D01*
X1234Y1384D01*
X1234Y1386D01*
X1230Y1386D01*
X1230Y1388D01*
X1210Y1388D01*
G37*
D02*
G36*
X1354Y1330D02*
X1354Y1328D01*
X1352Y1328D01*
X1352Y1324D01*
X1350Y1324D01*
X1350Y1322D01*
X1348Y1322D01*
X1348Y1320D01*
X1346Y1320D01*
X1346Y1318D01*
X1342Y1318D01*
X1342Y1316D01*
X1340Y1316D01*
X1340Y1314D01*
X1336Y1314D01*
X1336Y1246D01*
X1340Y1246D01*
X1340Y1244D01*
X1342Y1244D01*
X1342Y1242D01*
X1346Y1242D01*
X1346Y1240D01*
X1348Y1240D01*
X1348Y1238D01*
X1350Y1238D01*
X1350Y1236D01*
X1352Y1236D01*
X1352Y1232D01*
X1354Y1232D01*
X1354Y1230D01*
X1376Y1230D01*
X1376Y1234D01*
X1378Y1234D01*
X1378Y1236D01*
X1380Y1236D01*
X1380Y1238D01*
X1382Y1238D01*
X1382Y1240D01*
X1384Y1240D01*
X1384Y1242D01*
X1386Y1242D01*
X1386Y1244D01*
X1390Y1244D01*
X1390Y1246D01*
X1392Y1246D01*
X1392Y1314D01*
X1390Y1314D01*
X1390Y1316D01*
X1386Y1316D01*
X1386Y1318D01*
X1384Y1318D01*
X1384Y1320D01*
X1382Y1320D01*
X1382Y1322D01*
X1380Y1322D01*
X1380Y1324D01*
X1378Y1324D01*
X1378Y1326D01*
X1376Y1326D01*
X1376Y1330D01*
X1354Y1330D01*
G37*
D02*
G36*
X1186Y1236D02*
X1186Y1220D01*
X1188Y1220D01*
X1188Y1218D01*
X1192Y1218D01*
X1192Y1216D01*
X1194Y1216D01*
X1194Y1214D01*
X1196Y1214D01*
X1196Y1212D01*
X1198Y1212D01*
X1198Y1210D01*
X1200Y1210D01*
X1200Y1208D01*
X1202Y1208D01*
X1202Y1206D01*
X1204Y1206D01*
X1204Y1202D01*
X1206Y1202D01*
X1206Y1198D01*
X1208Y1198D01*
X1208Y1192D01*
X1210Y1192D01*
X1210Y1180D01*
X1212Y1180D01*
X1212Y1178D01*
X1216Y1178D01*
X1216Y1176D01*
X1218Y1176D01*
X1218Y1174D01*
X1222Y1174D01*
X1222Y1172D01*
X1226Y1172D01*
X1226Y1170D01*
X1228Y1170D01*
X1228Y1168D01*
X1232Y1168D01*
X1232Y1166D01*
X1236Y1166D01*
X1236Y1164D01*
X1238Y1164D01*
X1238Y1162D01*
X1242Y1162D01*
X1242Y1160D01*
X1246Y1160D01*
X1246Y1158D01*
X1304Y1158D01*
X1304Y1160D01*
X1298Y1160D01*
X1298Y1162D01*
X1294Y1162D01*
X1294Y1164D01*
X1290Y1164D01*
X1290Y1166D01*
X1286Y1166D01*
X1286Y1168D01*
X1284Y1168D01*
X1284Y1170D01*
X1282Y1170D01*
X1282Y1172D01*
X1280Y1172D01*
X1280Y1174D01*
X1278Y1174D01*
X1278Y1176D01*
X1276Y1176D01*
X1276Y1180D01*
X1274Y1180D01*
X1274Y1182D01*
X1272Y1182D01*
X1272Y1186D01*
X1270Y1186D01*
X1270Y1192D01*
X1268Y1192D01*
X1268Y1204D01*
X1266Y1204D01*
X1266Y1206D01*
X1262Y1206D01*
X1262Y1208D01*
X1258Y1208D01*
X1258Y1210D01*
X1254Y1210D01*
X1254Y1212D01*
X1250Y1212D01*
X1250Y1214D01*
X1246Y1214D01*
X1246Y1216D01*
X1242Y1216D01*
X1242Y1218D01*
X1238Y1218D01*
X1238Y1220D01*
X1234Y1220D01*
X1234Y1222D01*
X1230Y1222D01*
X1230Y1224D01*
X1226Y1224D01*
X1226Y1226D01*
X1222Y1226D01*
X1222Y1228D01*
X1218Y1228D01*
X1218Y1230D01*
X1214Y1230D01*
X1214Y1232D01*
X1212Y1232D01*
X1212Y1234D01*
X1208Y1234D01*
X1208Y1236D01*
X1186Y1236D01*
G37*
D02*
G36*
X1354Y1180D02*
X1354Y1178D01*
X1352Y1178D01*
X1352Y1174D01*
X1350Y1174D01*
X1350Y1172D01*
X1348Y1172D01*
X1348Y1170D01*
X1346Y1170D01*
X1346Y1168D01*
X1342Y1168D01*
X1342Y1166D01*
X1340Y1166D01*
X1340Y1164D01*
X1336Y1164D01*
X1336Y1162D01*
X1332Y1162D01*
X1332Y1160D01*
X1326Y1160D01*
X1326Y1158D01*
X1394Y1158D01*
X1394Y1164D01*
X1390Y1164D01*
X1390Y1166D01*
X1386Y1166D01*
X1386Y1168D01*
X1384Y1168D01*
X1384Y1170D01*
X1382Y1170D01*
X1382Y1172D01*
X1380Y1172D01*
X1380Y1174D01*
X1378Y1174D01*
X1378Y1176D01*
X1376Y1176D01*
X1376Y1180D01*
X1354Y1180D01*
G37*
D02*
G36*
X1250Y1158D02*
X1250Y1156D01*
X1394Y1156D01*
X1394Y1158D01*
X1250Y1158D01*
G37*
D02*
G36*
X1250Y1158D02*
X1250Y1156D01*
X1394Y1156D01*
X1394Y1158D01*
X1250Y1158D01*
G37*
D02*
G36*
X1252Y1156D02*
X1252Y1154D01*
X1256Y1154D01*
X1256Y1152D01*
X1260Y1152D01*
X1260Y1150D01*
X1262Y1150D01*
X1262Y1148D01*
X1266Y1148D01*
X1266Y1146D01*
X1270Y1146D01*
X1270Y1144D01*
X1272Y1144D01*
X1272Y1142D01*
X1276Y1142D01*
X1276Y1140D01*
X1280Y1140D01*
X1280Y1138D01*
X1284Y1138D01*
X1284Y1136D01*
X1286Y1136D01*
X1286Y1134D01*
X1290Y1134D01*
X1290Y1132D01*
X1294Y1132D01*
X1294Y1130D01*
X1394Y1130D01*
X1394Y1156D01*
X1252Y1156D01*
G37*
D02*
G36*
X1012Y2234D02*
X1012Y2232D01*
X1014Y2232D01*
X1014Y2230D01*
X1012Y2230D01*
X1012Y2218D01*
X1010Y2218D01*
X1010Y2212D01*
X1008Y2212D01*
X1008Y2208D01*
X1006Y2208D01*
X1006Y2204D01*
X1004Y2204D01*
X1004Y2202D01*
X1002Y2202D01*
X1002Y2200D01*
X1000Y2200D01*
X1000Y2198D01*
X998Y2198D01*
X998Y2196D01*
X996Y2196D01*
X996Y2194D01*
X994Y2194D01*
X994Y2192D01*
X992Y2192D01*
X992Y2190D01*
X988Y2190D01*
X988Y2188D01*
X984Y2188D01*
X984Y2186D01*
X978Y2186D01*
X978Y2184D01*
X1042Y2184D01*
X1042Y2224D01*
X1040Y2224D01*
X1040Y2226D01*
X1038Y2226D01*
X1038Y2228D01*
X1036Y2228D01*
X1036Y2230D01*
X1034Y2230D01*
X1034Y2232D01*
X1032Y2232D01*
X1032Y2234D01*
X1012Y2234D01*
G37*
D02*
G36*
X866Y2208D02*
X866Y2206D01*
X864Y2206D01*
X864Y2202D01*
X862Y2202D01*
X862Y2198D01*
X860Y2198D01*
X860Y2196D01*
X858Y2196D01*
X858Y2194D01*
X856Y2194D01*
X856Y2192D01*
X854Y2192D01*
X854Y2190D01*
X852Y2190D01*
X852Y2188D01*
X850Y2188D01*
X850Y2186D01*
X846Y2186D01*
X846Y2184D01*
X954Y2184D01*
X954Y2186D01*
X948Y2186D01*
X948Y2188D01*
X944Y2188D01*
X944Y2190D01*
X940Y2190D01*
X940Y2192D01*
X938Y2192D01*
X938Y2194D01*
X934Y2194D01*
X934Y2196D01*
X932Y2196D01*
X932Y2198D01*
X930Y2198D01*
X930Y2200D01*
X928Y2200D01*
X928Y2204D01*
X926Y2204D01*
X926Y2206D01*
X924Y2206D01*
X924Y2208D01*
X866Y2208D01*
G37*
D02*
G36*
X844Y2184D02*
X844Y2182D01*
X1042Y2182D01*
X1042Y2184D01*
X844Y2184D01*
G37*
D02*
G36*
X844Y2184D02*
X844Y2182D01*
X1042Y2182D01*
X1042Y2184D01*
X844Y2184D01*
G37*
D02*
G36*
X840Y2182D02*
X840Y2180D01*
X836Y2180D01*
X836Y2178D01*
X830Y2178D01*
X830Y2176D01*
X1042Y2176D01*
X1042Y2182D01*
X840Y2182D01*
G37*
D02*
G36*
X782Y2178D02*
X782Y2176D01*
X802Y2176D01*
X802Y2178D01*
X782Y2178D01*
G37*
D02*
G36*
X778Y2176D02*
X778Y2174D01*
X1042Y2174D01*
X1042Y2176D01*
X778Y2176D01*
G37*
D02*
G36*
X778Y2176D02*
X778Y2174D01*
X1042Y2174D01*
X1042Y2176D01*
X778Y2176D01*
G37*
D02*
G36*
X776Y2174D02*
X776Y2172D01*
X774Y2172D01*
X774Y2170D01*
X770Y2170D01*
X770Y2168D01*
X768Y2168D01*
X768Y2166D01*
X766Y2166D01*
X766Y2164D01*
X762Y2164D01*
X762Y2162D01*
X760Y2162D01*
X760Y2160D01*
X758Y2160D01*
X758Y2158D01*
X754Y2158D01*
X754Y2156D01*
X752Y2156D01*
X752Y2154D01*
X750Y2154D01*
X750Y2152D01*
X748Y2152D01*
X748Y2150D01*
X744Y2150D01*
X744Y2148D01*
X742Y2148D01*
X742Y2146D01*
X740Y2146D01*
X740Y2144D01*
X738Y2144D01*
X738Y1558D01*
X740Y1558D01*
X740Y1532D01*
X738Y1532D01*
X738Y1522D01*
X736Y1522D01*
X736Y1520D01*
X734Y1520D01*
X734Y1516D01*
X732Y1516D01*
X732Y1514D01*
X730Y1514D01*
X730Y1512D01*
X728Y1512D01*
X728Y1510D01*
X726Y1510D01*
X726Y1508D01*
X724Y1508D01*
X724Y1506D01*
X722Y1506D01*
X722Y1504D01*
X720Y1504D01*
X720Y1502D01*
X718Y1502D01*
X718Y1500D01*
X716Y1500D01*
X716Y1498D01*
X714Y1498D01*
X714Y1496D01*
X712Y1496D01*
X712Y1494D01*
X710Y1494D01*
X710Y1492D01*
X708Y1492D01*
X708Y1490D01*
X706Y1490D01*
X706Y1488D01*
X704Y1488D01*
X704Y1486D01*
X702Y1486D01*
X702Y1484D01*
X700Y1484D01*
X700Y1482D01*
X698Y1482D01*
X698Y1480D01*
X696Y1480D01*
X696Y1478D01*
X694Y1478D01*
X694Y1476D01*
X692Y1476D01*
X692Y1474D01*
X690Y1474D01*
X690Y1472D01*
X688Y1472D01*
X688Y1470D01*
X686Y1470D01*
X686Y1468D01*
X684Y1468D01*
X684Y1466D01*
X682Y1466D01*
X682Y1464D01*
X680Y1464D01*
X680Y1462D01*
X678Y1462D01*
X678Y1460D01*
X676Y1460D01*
X676Y1458D01*
X674Y1458D01*
X674Y1456D01*
X672Y1456D01*
X672Y1454D01*
X670Y1454D01*
X670Y1452D01*
X668Y1452D01*
X668Y1450D01*
X666Y1450D01*
X666Y1448D01*
X664Y1448D01*
X664Y1446D01*
X662Y1446D01*
X662Y1444D01*
X660Y1444D01*
X660Y1442D01*
X658Y1442D01*
X658Y1440D01*
X656Y1440D01*
X656Y1438D01*
X654Y1438D01*
X654Y1436D01*
X652Y1436D01*
X652Y1434D01*
X650Y1434D01*
X650Y1432D01*
X648Y1432D01*
X648Y1430D01*
X646Y1430D01*
X646Y1428D01*
X644Y1428D01*
X644Y1426D01*
X642Y1426D01*
X642Y1424D01*
X640Y1424D01*
X640Y1422D01*
X638Y1422D01*
X638Y1420D01*
X636Y1420D01*
X636Y1418D01*
X634Y1418D01*
X634Y1416D01*
X632Y1416D01*
X632Y1414D01*
X630Y1414D01*
X630Y1412D01*
X628Y1412D01*
X628Y1410D01*
X626Y1410D01*
X626Y1408D01*
X624Y1408D01*
X624Y1406D01*
X622Y1406D01*
X622Y1404D01*
X620Y1404D01*
X620Y1402D01*
X618Y1402D01*
X618Y1400D01*
X616Y1400D01*
X616Y1398D01*
X614Y1398D01*
X614Y1396D01*
X612Y1396D01*
X612Y1394D01*
X610Y1394D01*
X610Y1370D01*
X608Y1370D01*
X608Y1364D01*
X606Y1364D01*
X606Y1360D01*
X604Y1360D01*
X604Y1356D01*
X602Y1356D01*
X602Y1354D01*
X600Y1354D01*
X600Y1350D01*
X598Y1350D01*
X598Y1348D01*
X596Y1348D01*
X596Y1346D01*
X592Y1346D01*
X592Y1344D01*
X590Y1344D01*
X590Y1342D01*
X586Y1342D01*
X586Y1320D01*
X588Y1320D01*
X588Y1318D01*
X592Y1318D01*
X592Y1316D01*
X594Y1316D01*
X594Y1314D01*
X596Y1314D01*
X596Y1312D01*
X598Y1312D01*
X598Y1310D01*
X600Y1310D01*
X600Y1308D01*
X602Y1308D01*
X602Y1306D01*
X604Y1306D01*
X604Y1302D01*
X606Y1302D01*
X606Y1298D01*
X608Y1298D01*
X608Y1292D01*
X610Y1292D01*
X610Y1270D01*
X608Y1270D01*
X608Y1264D01*
X606Y1264D01*
X606Y1260D01*
X604Y1260D01*
X604Y1256D01*
X602Y1256D01*
X602Y1254D01*
X600Y1254D01*
X600Y1250D01*
X598Y1250D01*
X598Y1248D01*
X596Y1248D01*
X596Y1246D01*
X592Y1246D01*
X592Y1244D01*
X590Y1244D01*
X590Y1242D01*
X586Y1242D01*
X586Y1220D01*
X588Y1220D01*
X588Y1218D01*
X592Y1218D01*
X592Y1216D01*
X594Y1216D01*
X594Y1214D01*
X596Y1214D01*
X596Y1212D01*
X598Y1212D01*
X598Y1210D01*
X600Y1210D01*
X600Y1208D01*
X602Y1208D01*
X602Y1206D01*
X604Y1206D01*
X604Y1202D01*
X606Y1202D01*
X606Y1198D01*
X608Y1198D01*
X608Y1192D01*
X610Y1192D01*
X610Y1170D01*
X608Y1170D01*
X608Y1164D01*
X606Y1164D01*
X606Y1160D01*
X604Y1160D01*
X604Y1156D01*
X602Y1156D01*
X602Y1154D01*
X600Y1154D01*
X600Y1150D01*
X598Y1150D01*
X598Y1148D01*
X596Y1148D01*
X596Y1146D01*
X592Y1146D01*
X592Y1144D01*
X590Y1144D01*
X590Y1142D01*
X586Y1142D01*
X586Y1120D01*
X588Y1120D01*
X588Y1118D01*
X592Y1118D01*
X592Y1116D01*
X594Y1116D01*
X594Y1114D01*
X596Y1114D01*
X596Y1112D01*
X598Y1112D01*
X598Y1110D01*
X600Y1110D01*
X600Y1108D01*
X602Y1108D01*
X602Y1106D01*
X604Y1106D01*
X604Y1102D01*
X606Y1102D01*
X606Y1098D01*
X608Y1098D01*
X608Y1092D01*
X610Y1092D01*
X610Y1070D01*
X608Y1070D01*
X608Y1064D01*
X606Y1064D01*
X606Y1060D01*
X604Y1060D01*
X604Y1056D01*
X602Y1056D01*
X602Y1054D01*
X600Y1054D01*
X600Y1050D01*
X598Y1050D01*
X598Y1048D01*
X596Y1048D01*
X596Y1046D01*
X592Y1046D01*
X592Y1044D01*
X590Y1044D01*
X590Y1042D01*
X586Y1042D01*
X586Y1020D01*
X588Y1020D01*
X588Y1018D01*
X592Y1018D01*
X592Y1016D01*
X594Y1016D01*
X594Y1014D01*
X596Y1014D01*
X596Y1012D01*
X598Y1012D01*
X598Y1010D01*
X600Y1010D01*
X600Y1008D01*
X602Y1008D01*
X602Y1006D01*
X604Y1006D01*
X604Y1002D01*
X606Y1002D01*
X606Y998D01*
X608Y998D01*
X608Y992D01*
X610Y992D01*
X610Y970D01*
X608Y970D01*
X608Y964D01*
X606Y964D01*
X606Y960D01*
X604Y960D01*
X604Y956D01*
X602Y956D01*
X602Y954D01*
X600Y954D01*
X600Y950D01*
X598Y950D01*
X598Y948D01*
X596Y948D01*
X596Y946D01*
X592Y946D01*
X592Y944D01*
X590Y944D01*
X590Y942D01*
X586Y942D01*
X586Y920D01*
X588Y920D01*
X588Y918D01*
X592Y918D01*
X592Y916D01*
X594Y916D01*
X594Y914D01*
X596Y914D01*
X596Y912D01*
X598Y912D01*
X598Y910D01*
X600Y910D01*
X600Y908D01*
X602Y908D01*
X602Y906D01*
X604Y906D01*
X604Y902D01*
X606Y902D01*
X606Y898D01*
X608Y898D01*
X608Y892D01*
X610Y892D01*
X610Y870D01*
X608Y870D01*
X608Y864D01*
X606Y864D01*
X606Y860D01*
X604Y860D01*
X604Y856D01*
X602Y856D01*
X602Y854D01*
X600Y854D01*
X600Y850D01*
X598Y850D01*
X598Y848D01*
X596Y848D01*
X596Y846D01*
X592Y846D01*
X592Y844D01*
X590Y844D01*
X590Y842D01*
X586Y842D01*
X586Y820D01*
X588Y820D01*
X588Y818D01*
X592Y818D01*
X592Y816D01*
X594Y816D01*
X594Y814D01*
X596Y814D01*
X596Y812D01*
X598Y812D01*
X598Y810D01*
X600Y810D01*
X600Y808D01*
X602Y808D01*
X602Y806D01*
X604Y806D01*
X604Y802D01*
X606Y802D01*
X606Y798D01*
X608Y798D01*
X608Y792D01*
X610Y792D01*
X610Y770D01*
X608Y770D01*
X608Y764D01*
X606Y764D01*
X606Y760D01*
X604Y760D01*
X604Y756D01*
X602Y756D01*
X602Y754D01*
X600Y754D01*
X600Y750D01*
X598Y750D01*
X598Y748D01*
X596Y748D01*
X596Y746D01*
X592Y746D01*
X592Y744D01*
X590Y744D01*
X590Y742D01*
X586Y742D01*
X586Y720D01*
X588Y720D01*
X588Y718D01*
X592Y718D01*
X592Y716D01*
X594Y716D01*
X594Y714D01*
X596Y714D01*
X596Y712D01*
X598Y712D01*
X598Y710D01*
X600Y710D01*
X600Y708D01*
X602Y708D01*
X602Y706D01*
X604Y706D01*
X604Y702D01*
X606Y702D01*
X606Y698D01*
X608Y698D01*
X608Y692D01*
X610Y692D01*
X610Y670D01*
X608Y670D01*
X608Y664D01*
X606Y664D01*
X606Y660D01*
X604Y660D01*
X604Y656D01*
X602Y656D01*
X602Y654D01*
X600Y654D01*
X600Y650D01*
X598Y650D01*
X598Y648D01*
X596Y648D01*
X596Y646D01*
X592Y646D01*
X592Y644D01*
X590Y644D01*
X590Y642D01*
X586Y642D01*
X586Y620D01*
X588Y620D01*
X588Y618D01*
X592Y618D01*
X592Y616D01*
X594Y616D01*
X594Y614D01*
X596Y614D01*
X596Y612D01*
X598Y612D01*
X598Y610D01*
X600Y610D01*
X600Y608D01*
X602Y608D01*
X602Y606D01*
X604Y606D01*
X604Y602D01*
X606Y602D01*
X606Y598D01*
X608Y598D01*
X608Y592D01*
X610Y592D01*
X610Y570D01*
X608Y570D01*
X608Y564D01*
X606Y564D01*
X606Y560D01*
X604Y560D01*
X604Y556D01*
X602Y556D01*
X602Y554D01*
X600Y554D01*
X600Y550D01*
X598Y550D01*
X598Y548D01*
X596Y548D01*
X596Y546D01*
X592Y546D01*
X592Y544D01*
X590Y544D01*
X590Y542D01*
X586Y542D01*
X586Y520D01*
X588Y520D01*
X588Y518D01*
X592Y518D01*
X592Y516D01*
X594Y516D01*
X594Y514D01*
X596Y514D01*
X596Y512D01*
X598Y512D01*
X598Y510D01*
X600Y510D01*
X600Y508D01*
X602Y508D01*
X602Y506D01*
X604Y506D01*
X604Y502D01*
X606Y502D01*
X606Y498D01*
X608Y498D01*
X608Y492D01*
X610Y492D01*
X610Y470D01*
X608Y470D01*
X608Y464D01*
X606Y464D01*
X606Y460D01*
X604Y460D01*
X604Y456D01*
X602Y456D01*
X602Y454D01*
X600Y454D01*
X600Y450D01*
X598Y450D01*
X598Y448D01*
X596Y448D01*
X596Y446D01*
X592Y446D01*
X592Y444D01*
X590Y444D01*
X590Y442D01*
X586Y442D01*
X586Y440D01*
X582Y440D01*
X582Y438D01*
X576Y438D01*
X576Y436D01*
X1046Y436D01*
X1046Y770D01*
X1044Y770D01*
X1044Y1510D01*
X1046Y1510D01*
X1046Y1516D01*
X1048Y1516D01*
X1048Y1518D01*
X1050Y1518D01*
X1050Y1522D01*
X1052Y1522D01*
X1052Y1524D01*
X1056Y1524D01*
X1056Y1526D01*
X1058Y1526D01*
X1058Y1528D01*
X1060Y1528D01*
X1060Y1530D01*
X1064Y1530D01*
X1064Y1532D01*
X1066Y1532D01*
X1066Y1534D01*
X1068Y1534D01*
X1068Y1536D01*
X1072Y1536D01*
X1072Y1538D01*
X1074Y1538D01*
X1074Y1540D01*
X1076Y1540D01*
X1076Y1542D01*
X1080Y1542D01*
X1080Y1544D01*
X1082Y1544D01*
X1082Y1546D01*
X1084Y1546D01*
X1084Y1548D01*
X1088Y1548D01*
X1088Y1550D01*
X1090Y1550D01*
X1090Y1552D01*
X1092Y1552D01*
X1092Y1554D01*
X1096Y1554D01*
X1096Y1556D01*
X1098Y1556D01*
X1098Y1558D01*
X1100Y1558D01*
X1100Y1560D01*
X1104Y1560D01*
X1104Y1562D01*
X1106Y1562D01*
X1106Y1564D01*
X1108Y1564D01*
X1108Y1566D01*
X1110Y1566D01*
X1110Y1568D01*
X1114Y1568D01*
X1114Y1570D01*
X1116Y1570D01*
X1116Y1590D01*
X1114Y1590D01*
X1114Y1592D01*
X1112Y1592D01*
X1112Y1594D01*
X1110Y1594D01*
X1110Y1596D01*
X1106Y1596D01*
X1106Y1598D01*
X1104Y1598D01*
X1104Y1600D01*
X1102Y1600D01*
X1102Y1602D01*
X1098Y1602D01*
X1098Y1604D01*
X1096Y1604D01*
X1096Y1606D01*
X1094Y1606D01*
X1094Y1608D01*
X1090Y1608D01*
X1090Y1610D01*
X1088Y1610D01*
X1088Y1612D01*
X1086Y1612D01*
X1086Y1614D01*
X1082Y1614D01*
X1082Y1616D01*
X1080Y1616D01*
X1080Y1618D01*
X1078Y1618D01*
X1078Y1620D01*
X1074Y1620D01*
X1074Y1622D01*
X1072Y1622D01*
X1072Y1624D01*
X1070Y1624D01*
X1070Y1626D01*
X1066Y1626D01*
X1066Y1628D01*
X1064Y1628D01*
X1064Y1630D01*
X1060Y1630D01*
X1060Y1632D01*
X1058Y1632D01*
X1058Y1634D01*
X1056Y1634D01*
X1056Y1636D01*
X1052Y1636D01*
X1052Y1638D01*
X1050Y1638D01*
X1050Y1640D01*
X1048Y1640D01*
X1048Y1642D01*
X1046Y1642D01*
X1046Y1646D01*
X1044Y1646D01*
X1044Y1652D01*
X1042Y1652D01*
X1042Y2174D01*
X776Y2174D01*
G37*
D02*
G36*
X394Y1818D02*
X394Y1570D01*
X392Y1570D01*
X392Y1566D01*
X390Y1566D01*
X390Y1562D01*
X388Y1562D01*
X388Y1560D01*
X386Y1560D01*
X386Y1558D01*
X384Y1558D01*
X384Y1556D01*
X382Y1556D01*
X382Y1554D01*
X380Y1554D01*
X380Y1552D01*
X378Y1552D01*
X378Y1550D01*
X374Y1550D01*
X374Y1548D01*
X372Y1548D01*
X372Y1546D01*
X370Y1546D01*
X370Y1544D01*
X366Y1544D01*
X366Y1542D01*
X364Y1542D01*
X364Y1540D01*
X362Y1540D01*
X362Y1538D01*
X358Y1538D01*
X358Y1536D01*
X356Y1536D01*
X356Y1534D01*
X352Y1534D01*
X352Y1532D01*
X350Y1532D01*
X350Y1530D01*
X348Y1530D01*
X348Y1528D01*
X344Y1528D01*
X344Y1526D01*
X342Y1526D01*
X342Y1524D01*
X340Y1524D01*
X340Y1522D01*
X336Y1522D01*
X336Y1520D01*
X334Y1520D01*
X334Y1518D01*
X332Y1518D01*
X332Y1516D01*
X328Y1516D01*
X328Y1514D01*
X326Y1514D01*
X326Y1512D01*
X324Y1512D01*
X324Y1510D01*
X322Y1510D01*
X322Y1504D01*
X320Y1504D01*
X320Y1490D01*
X318Y1490D01*
X318Y1484D01*
X316Y1484D01*
X316Y1480D01*
X314Y1480D01*
X314Y1478D01*
X312Y1478D01*
X312Y1474D01*
X310Y1474D01*
X310Y1472D01*
X308Y1472D01*
X308Y1470D01*
X306Y1470D01*
X306Y1466D01*
X304Y1466D01*
X304Y1464D01*
X300Y1464D01*
X300Y1462D01*
X298Y1462D01*
X298Y1460D01*
X296Y1460D01*
X296Y1458D01*
X292Y1458D01*
X292Y1456D01*
X288Y1456D01*
X288Y1454D01*
X282Y1454D01*
X282Y1452D01*
X274Y1452D01*
X274Y1450D01*
X470Y1450D01*
X470Y1796D01*
X468Y1796D01*
X468Y1798D01*
X466Y1798D01*
X466Y1800D01*
X464Y1800D01*
X464Y1802D01*
X462Y1802D01*
X462Y1804D01*
X460Y1804D01*
X460Y1806D01*
X458Y1806D01*
X458Y1808D01*
X432Y1808D01*
X432Y1810D01*
X426Y1810D01*
X426Y1812D01*
X420Y1812D01*
X420Y1814D01*
X416Y1814D01*
X416Y1816D01*
X414Y1816D01*
X414Y1818D01*
X394Y1818D01*
G37*
D02*
G36*
X194Y1488D02*
X194Y1450D01*
X256Y1450D01*
X256Y1452D01*
X248Y1452D01*
X248Y1454D01*
X242Y1454D01*
X242Y1456D01*
X240Y1456D01*
X240Y1458D01*
X236Y1458D01*
X236Y1460D01*
X232Y1460D01*
X232Y1462D01*
X230Y1462D01*
X230Y1464D01*
X228Y1464D01*
X228Y1466D01*
X226Y1466D01*
X226Y1468D01*
X224Y1468D01*
X224Y1470D01*
X222Y1470D01*
X222Y1472D01*
X220Y1472D01*
X220Y1476D01*
X218Y1476D01*
X218Y1480D01*
X216Y1480D01*
X216Y1482D01*
X214Y1482D01*
X214Y1488D01*
X194Y1488D01*
G37*
D02*
G36*
X194Y1450D02*
X194Y1448D01*
X470Y1448D01*
X470Y1450D01*
X194Y1450D01*
G37*
D02*
G36*
X194Y1450D02*
X194Y1448D01*
X470Y1448D01*
X470Y1450D01*
X194Y1450D01*
G37*
D02*
G36*
X194Y1448D02*
X194Y1362D01*
X270Y1362D01*
X270Y1360D01*
X282Y1360D01*
X282Y1358D01*
X286Y1358D01*
X286Y1356D01*
X290Y1356D01*
X290Y1354D01*
X294Y1354D01*
X294Y1352D01*
X298Y1352D01*
X298Y1350D01*
X300Y1350D01*
X300Y1348D01*
X302Y1348D01*
X302Y1346D01*
X304Y1346D01*
X304Y1344D01*
X306Y1344D01*
X306Y1342D01*
X308Y1342D01*
X308Y1340D01*
X310Y1340D01*
X310Y1338D01*
X312Y1338D01*
X312Y1334D01*
X314Y1334D01*
X314Y1330D01*
X316Y1330D01*
X316Y1326D01*
X318Y1326D01*
X318Y1320D01*
X320Y1320D01*
X320Y1308D01*
X322Y1308D01*
X322Y1304D01*
X320Y1304D01*
X320Y1290D01*
X318Y1290D01*
X318Y1284D01*
X316Y1284D01*
X316Y1280D01*
X314Y1280D01*
X314Y1278D01*
X312Y1278D01*
X312Y1274D01*
X310Y1274D01*
X310Y1272D01*
X308Y1272D01*
X308Y1270D01*
X306Y1270D01*
X306Y1266D01*
X304Y1266D01*
X304Y1264D01*
X300Y1264D01*
X300Y1262D01*
X298Y1262D01*
X298Y1260D01*
X296Y1260D01*
X296Y1258D01*
X292Y1258D01*
X292Y1256D01*
X288Y1256D01*
X288Y1254D01*
X282Y1254D01*
X282Y1252D01*
X274Y1252D01*
X274Y1250D01*
X470Y1250D01*
X470Y1448D01*
X194Y1448D01*
G37*
D02*
G36*
X194Y1362D02*
X194Y1324D01*
X214Y1324D01*
X214Y1328D01*
X216Y1328D01*
X216Y1332D01*
X218Y1332D01*
X218Y1336D01*
X220Y1336D01*
X220Y1338D01*
X222Y1338D01*
X222Y1342D01*
X224Y1342D01*
X224Y1344D01*
X226Y1344D01*
X226Y1346D01*
X228Y1346D01*
X228Y1348D01*
X232Y1348D01*
X232Y1350D01*
X234Y1350D01*
X234Y1352D01*
X236Y1352D01*
X236Y1354D01*
X240Y1354D01*
X240Y1356D01*
X244Y1356D01*
X244Y1358D01*
X250Y1358D01*
X250Y1360D01*
X260Y1360D01*
X260Y1362D01*
X194Y1362D01*
G37*
D02*
G36*
X194Y1288D02*
X194Y1250D01*
X256Y1250D01*
X256Y1252D01*
X248Y1252D01*
X248Y1254D01*
X242Y1254D01*
X242Y1256D01*
X240Y1256D01*
X240Y1258D01*
X236Y1258D01*
X236Y1260D01*
X232Y1260D01*
X232Y1262D01*
X230Y1262D01*
X230Y1264D01*
X228Y1264D01*
X228Y1266D01*
X226Y1266D01*
X226Y1268D01*
X224Y1268D01*
X224Y1270D01*
X222Y1270D01*
X222Y1272D01*
X220Y1272D01*
X220Y1276D01*
X218Y1276D01*
X218Y1280D01*
X216Y1280D01*
X216Y1282D01*
X214Y1282D01*
X214Y1288D01*
X194Y1288D01*
G37*
D02*
G36*
X194Y1250D02*
X194Y1248D01*
X470Y1248D01*
X470Y1250D01*
X194Y1250D01*
G37*
D02*
G36*
X194Y1250D02*
X194Y1248D01*
X470Y1248D01*
X470Y1250D01*
X194Y1250D01*
G37*
D02*
G36*
X194Y1248D02*
X194Y1136D01*
X276Y1136D01*
X276Y1134D01*
X284Y1134D01*
X284Y1132D01*
X288Y1132D01*
X288Y1130D01*
X292Y1130D01*
X292Y1128D01*
X296Y1128D01*
X296Y1126D01*
X298Y1126D01*
X298Y1124D01*
X302Y1124D01*
X302Y1122D01*
X304Y1122D01*
X304Y1120D01*
X306Y1120D01*
X306Y1118D01*
X308Y1118D01*
X308Y1114D01*
X310Y1114D01*
X310Y1112D01*
X312Y1112D01*
X312Y1110D01*
X314Y1110D01*
X314Y1106D01*
X316Y1106D01*
X316Y1102D01*
X318Y1102D01*
X318Y1096D01*
X320Y1096D01*
X320Y1084D01*
X322Y1084D01*
X322Y1078D01*
X320Y1078D01*
X320Y1066D01*
X318Y1066D01*
X318Y1060D01*
X316Y1060D01*
X316Y1056D01*
X314Y1056D01*
X314Y1052D01*
X312Y1052D01*
X312Y1048D01*
X310Y1048D01*
X310Y1046D01*
X308Y1046D01*
X308Y1044D01*
X306Y1044D01*
X306Y1042D01*
X304Y1042D01*
X304Y1040D01*
X302Y1040D01*
X302Y1038D01*
X300Y1038D01*
X300Y1036D01*
X296Y1036D01*
X296Y1034D01*
X294Y1034D01*
X294Y1032D01*
X290Y1032D01*
X290Y1030D01*
X286Y1030D01*
X286Y1028D01*
X280Y1028D01*
X280Y1026D01*
X480Y1026D01*
X480Y1028D01*
X482Y1028D01*
X482Y1030D01*
X484Y1030D01*
X484Y1032D01*
X486Y1032D01*
X486Y1034D01*
X488Y1034D01*
X488Y1036D01*
X490Y1036D01*
X490Y1038D01*
X492Y1038D01*
X492Y1040D01*
X494Y1040D01*
X494Y1042D01*
X496Y1042D01*
X496Y1044D01*
X498Y1044D01*
X498Y1046D01*
X500Y1046D01*
X500Y1048D01*
X502Y1048D01*
X502Y1050D01*
X504Y1050D01*
X504Y1052D01*
X506Y1052D01*
X506Y1054D01*
X508Y1054D01*
X508Y1056D01*
X510Y1056D01*
X510Y1058D01*
X512Y1058D01*
X512Y1060D01*
X514Y1060D01*
X514Y1062D01*
X516Y1062D01*
X516Y1064D01*
X518Y1064D01*
X518Y1066D01*
X520Y1066D01*
X520Y1086D01*
X522Y1086D01*
X522Y1094D01*
X524Y1094D01*
X524Y1100D01*
X526Y1100D01*
X526Y1104D01*
X528Y1104D01*
X528Y1106D01*
X530Y1106D01*
X530Y1110D01*
X532Y1110D01*
X532Y1112D01*
X534Y1112D01*
X534Y1114D01*
X536Y1114D01*
X536Y1116D01*
X540Y1116D01*
X540Y1118D01*
X542Y1118D01*
X542Y1120D01*
X546Y1120D01*
X546Y1140D01*
X544Y1140D01*
X544Y1142D01*
X542Y1142D01*
X542Y1144D01*
X538Y1144D01*
X538Y1146D01*
X536Y1146D01*
X536Y1148D01*
X534Y1148D01*
X534Y1150D01*
X532Y1150D01*
X532Y1152D01*
X530Y1152D01*
X530Y1154D01*
X528Y1154D01*
X528Y1158D01*
X526Y1158D01*
X526Y1162D01*
X524Y1162D01*
X524Y1166D01*
X522Y1166D01*
X522Y1176D01*
X520Y1176D01*
X520Y1196D01*
X518Y1196D01*
X518Y1198D01*
X516Y1198D01*
X516Y1200D01*
X514Y1200D01*
X514Y1202D01*
X512Y1202D01*
X512Y1204D01*
X510Y1204D01*
X510Y1206D01*
X508Y1206D01*
X508Y1208D01*
X506Y1208D01*
X506Y1212D01*
X504Y1212D01*
X504Y1214D01*
X502Y1214D01*
X502Y1216D01*
X500Y1216D01*
X500Y1218D01*
X498Y1218D01*
X498Y1220D01*
X496Y1220D01*
X496Y1222D01*
X494Y1222D01*
X494Y1224D01*
X492Y1224D01*
X492Y1226D01*
X490Y1226D01*
X490Y1228D01*
X488Y1228D01*
X488Y1230D01*
X486Y1230D01*
X486Y1232D01*
X484Y1232D01*
X484Y1234D01*
X482Y1234D01*
X482Y1236D01*
X480Y1236D01*
X480Y1238D01*
X478Y1238D01*
X478Y1240D01*
X476Y1240D01*
X476Y1242D01*
X474Y1242D01*
X474Y1244D01*
X472Y1244D01*
X472Y1248D01*
X194Y1248D01*
G37*
D02*
G36*
X194Y1136D02*
X194Y1098D01*
X214Y1098D01*
X214Y1104D01*
X216Y1104D01*
X216Y1108D01*
X218Y1108D01*
X218Y1110D01*
X220Y1110D01*
X220Y1114D01*
X222Y1114D01*
X222Y1116D01*
X224Y1116D01*
X224Y1118D01*
X226Y1118D01*
X226Y1120D01*
X228Y1120D01*
X228Y1122D01*
X230Y1122D01*
X230Y1124D01*
X232Y1124D01*
X232Y1126D01*
X236Y1126D01*
X236Y1128D01*
X238Y1128D01*
X238Y1130D01*
X242Y1130D01*
X242Y1132D01*
X246Y1132D01*
X246Y1134D01*
X254Y1134D01*
X254Y1136D01*
X194Y1136D01*
G37*
D02*
G36*
X194Y1062D02*
X194Y1026D01*
X252Y1026D01*
X252Y1028D01*
X246Y1028D01*
X246Y1030D01*
X242Y1030D01*
X242Y1032D01*
X238Y1032D01*
X238Y1034D01*
X234Y1034D01*
X234Y1036D01*
X232Y1036D01*
X232Y1038D01*
X230Y1038D01*
X230Y1040D01*
X226Y1040D01*
X226Y1042D01*
X224Y1042D01*
X224Y1046D01*
X222Y1046D01*
X222Y1048D01*
X220Y1048D01*
X220Y1050D01*
X218Y1050D01*
X218Y1054D01*
X216Y1054D01*
X216Y1058D01*
X214Y1058D01*
X214Y1062D01*
X194Y1062D01*
G37*
D02*
G36*
X194Y1026D02*
X194Y1024D01*
X478Y1024D01*
X478Y1026D01*
X194Y1026D01*
G37*
D02*
G36*
X194Y1026D02*
X194Y1024D01*
X478Y1024D01*
X478Y1026D01*
X194Y1026D01*
G37*
D02*
G36*
X194Y1024D02*
X194Y994D01*
X196Y994D01*
X196Y992D01*
X198Y992D01*
X198Y990D01*
X200Y990D01*
X200Y988D01*
X202Y988D01*
X202Y986D01*
X204Y986D01*
X204Y984D01*
X206Y984D01*
X206Y982D01*
X208Y982D01*
X208Y980D01*
X210Y980D01*
X210Y978D01*
X212Y978D01*
X212Y976D01*
X214Y976D01*
X214Y974D01*
X216Y974D01*
X216Y972D01*
X218Y972D01*
X218Y970D01*
X220Y970D01*
X220Y968D01*
X222Y968D01*
X222Y966D01*
X224Y966D01*
X224Y964D01*
X226Y964D01*
X226Y962D01*
X228Y962D01*
X228Y960D01*
X230Y960D01*
X230Y958D01*
X232Y958D01*
X232Y956D01*
X234Y956D01*
X234Y954D01*
X236Y954D01*
X236Y952D01*
X238Y952D01*
X238Y950D01*
X240Y950D01*
X240Y948D01*
X242Y948D01*
X242Y946D01*
X244Y946D01*
X244Y944D01*
X246Y944D01*
X246Y942D01*
X248Y942D01*
X248Y940D01*
X250Y940D01*
X250Y938D01*
X252Y938D01*
X252Y936D01*
X276Y936D01*
X276Y934D01*
X284Y934D01*
X284Y932D01*
X288Y932D01*
X288Y930D01*
X292Y930D01*
X292Y928D01*
X296Y928D01*
X296Y926D01*
X298Y926D01*
X298Y924D01*
X302Y924D01*
X302Y922D01*
X304Y922D01*
X304Y920D01*
X306Y920D01*
X306Y918D01*
X308Y918D01*
X308Y914D01*
X310Y914D01*
X310Y912D01*
X312Y912D01*
X312Y910D01*
X314Y910D01*
X314Y906D01*
X316Y906D01*
X316Y902D01*
X318Y902D01*
X318Y896D01*
X320Y896D01*
X320Y884D01*
X322Y884D01*
X322Y866D01*
X324Y866D01*
X324Y864D01*
X326Y864D01*
X326Y862D01*
X328Y862D01*
X328Y860D01*
X330Y860D01*
X330Y858D01*
X332Y858D01*
X332Y856D01*
X334Y856D01*
X334Y854D01*
X336Y854D01*
X336Y852D01*
X338Y852D01*
X338Y850D01*
X340Y850D01*
X340Y848D01*
X342Y848D01*
X342Y846D01*
X344Y846D01*
X344Y844D01*
X346Y844D01*
X346Y842D01*
X348Y842D01*
X348Y840D01*
X350Y840D01*
X350Y838D01*
X352Y838D01*
X352Y836D01*
X354Y836D01*
X354Y834D01*
X356Y834D01*
X356Y832D01*
X358Y832D01*
X358Y830D01*
X360Y830D01*
X360Y828D01*
X362Y828D01*
X362Y824D01*
X364Y824D01*
X364Y822D01*
X366Y822D01*
X366Y820D01*
X368Y820D01*
X368Y816D01*
X370Y816D01*
X370Y810D01*
X372Y810D01*
X372Y472D01*
X370Y472D01*
X370Y458D01*
X432Y458D01*
X432Y460D01*
X426Y460D01*
X426Y462D01*
X420Y462D01*
X420Y464D01*
X416Y464D01*
X416Y466D01*
X414Y466D01*
X414Y468D01*
X410Y468D01*
X410Y470D01*
X408Y470D01*
X408Y472D01*
X406Y472D01*
X406Y474D01*
X404Y474D01*
X404Y478D01*
X402Y478D01*
X402Y480D01*
X400Y480D01*
X400Y484D01*
X398Y484D01*
X398Y486D01*
X396Y486D01*
X396Y494D01*
X394Y494D01*
X394Y518D01*
X396Y518D01*
X396Y524D01*
X398Y524D01*
X398Y528D01*
X400Y528D01*
X400Y532D01*
X402Y532D01*
X402Y534D01*
X404Y534D01*
X404Y536D01*
X406Y536D01*
X406Y540D01*
X410Y540D01*
X410Y542D01*
X412Y542D01*
X412Y544D01*
X414Y544D01*
X414Y546D01*
X418Y546D01*
X418Y548D01*
X422Y548D01*
X422Y550D01*
X428Y550D01*
X428Y552D01*
X436Y552D01*
X436Y554D01*
X460Y554D01*
X460Y556D01*
X462Y556D01*
X462Y558D01*
X464Y558D01*
X464Y560D01*
X466Y560D01*
X466Y562D01*
X468Y562D01*
X468Y564D01*
X470Y564D01*
X470Y1014D01*
X472Y1014D01*
X472Y1018D01*
X474Y1018D01*
X474Y1020D01*
X476Y1020D01*
X476Y1024D01*
X194Y1024D01*
G37*
D02*
G36*
X512Y552D02*
X512Y546D01*
X510Y546D01*
X510Y542D01*
X508Y542D01*
X508Y540D01*
X506Y540D01*
X506Y538D01*
X504Y538D01*
X504Y536D01*
X502Y536D01*
X502Y534D01*
X500Y534D01*
X500Y532D01*
X498Y532D01*
X498Y530D01*
X496Y530D01*
X496Y528D01*
X494Y528D01*
X494Y526D01*
X492Y526D01*
X492Y524D01*
X490Y524D01*
X490Y522D01*
X488Y522D01*
X488Y496D01*
X486Y496D01*
X486Y490D01*
X484Y490D01*
X484Y484D01*
X482Y484D01*
X482Y482D01*
X480Y482D01*
X480Y478D01*
X478Y478D01*
X478Y476D01*
X476Y476D01*
X476Y474D01*
X474Y474D01*
X474Y472D01*
X472Y472D01*
X472Y470D01*
X470Y470D01*
X470Y468D01*
X468Y468D01*
X468Y466D01*
X464Y466D01*
X464Y464D01*
X460Y464D01*
X460Y462D01*
X456Y462D01*
X456Y460D01*
X448Y460D01*
X448Y458D01*
X526Y458D01*
X526Y462D01*
X524Y462D01*
X524Y466D01*
X522Y466D01*
X522Y476D01*
X520Y476D01*
X520Y486D01*
X522Y486D01*
X522Y494D01*
X524Y494D01*
X524Y500D01*
X526Y500D01*
X526Y504D01*
X528Y504D01*
X528Y506D01*
X530Y506D01*
X530Y510D01*
X532Y510D01*
X532Y512D01*
X534Y512D01*
X534Y514D01*
X536Y514D01*
X536Y516D01*
X540Y516D01*
X540Y518D01*
X542Y518D01*
X542Y520D01*
X546Y520D01*
X546Y540D01*
X544Y540D01*
X544Y542D01*
X542Y542D01*
X542Y544D01*
X538Y544D01*
X538Y546D01*
X536Y546D01*
X536Y548D01*
X534Y548D01*
X534Y550D01*
X532Y550D01*
X532Y552D01*
X512Y552D01*
G37*
D02*
G36*
X370Y458D02*
X370Y456D01*
X528Y456D01*
X528Y458D01*
X370Y458D01*
G37*
D02*
G36*
X370Y458D02*
X370Y456D01*
X528Y456D01*
X528Y458D01*
X370Y458D01*
G37*
D02*
G36*
X370Y456D02*
X370Y436D01*
X556Y436D01*
X556Y438D01*
X548Y438D01*
X548Y440D01*
X544Y440D01*
X544Y442D01*
X542Y442D01*
X542Y444D01*
X538Y444D01*
X538Y446D01*
X536Y446D01*
X536Y448D01*
X534Y448D01*
X534Y450D01*
X532Y450D01*
X532Y452D01*
X530Y452D01*
X530Y454D01*
X528Y454D01*
X528Y456D01*
X370Y456D01*
G37*
D02*
G36*
X370Y436D02*
X370Y434D01*
X1046Y434D01*
X1046Y436D01*
X370Y436D01*
G37*
D02*
G36*
X370Y436D02*
X370Y434D01*
X1046Y434D01*
X1046Y436D01*
X370Y436D01*
G37*
D02*
G36*
X370Y434D02*
X370Y360D01*
X1046Y360D01*
X1046Y434D01*
X370Y434D01*
G37*
D02*
G36*
X1906Y706D02*
X1906Y704D01*
X1904Y704D01*
X1904Y702D01*
X1902Y702D01*
X1902Y700D01*
X1900Y700D01*
X1900Y698D01*
X1898Y698D01*
X1898Y696D01*
X1896Y696D01*
X1896Y694D01*
X1894Y694D01*
X1894Y692D01*
X1892Y692D01*
X1892Y690D01*
X1890Y690D01*
X1890Y688D01*
X1888Y688D01*
X1888Y684D01*
X1886Y684D01*
X1886Y682D01*
X1884Y682D01*
X1884Y680D01*
X1882Y680D01*
X1882Y678D01*
X1880Y678D01*
X1880Y676D01*
X1878Y676D01*
X1878Y674D01*
X1876Y674D01*
X1876Y672D01*
X1874Y672D01*
X1874Y670D01*
X1872Y670D01*
X1872Y668D01*
X1870Y668D01*
X1870Y444D01*
X1946Y444D01*
X1946Y706D01*
X1906Y706D01*
G37*
D02*
G54D20*
D02*
G04 End of Copper1*
M02*