; NON-PLATED HOLES START AT T1
; THROUGH (PLATED) HOLES START AT T100
M48
INCH
T1C0.047244
T2C0.125984
T100C0.051181
T101C0.035000
T102C0.038000
T103C0.036000
%
T1
X018499Y018495
X019483Y013495
X018499Y014558
X018499Y009558
X019483Y018495
X016530Y011526
X018499Y013495
X019483Y014558
X019483Y009558
X016530Y016526
T2
X008155Y001558
X017405Y021308
T100
X016530Y012510
X002655Y017058
X016530Y018495
X016530Y013495
X002655Y010808
X016530Y015542
X002655Y006808
X016530Y010542
X002655Y008808
X006155Y022308
X016530Y009558
X015405Y001308
X002655Y013058
X008155Y022308
X016530Y014558
X013405Y001308
X018499Y011526
X002655Y015058
X016530Y017510
X018499Y016526
T101
X013146Y012052
X014146Y021052
X013146Y018552
X018405Y002558
X014146Y013552
X002655Y003308
X002655Y022308
X012655Y022308
X018405Y001558
X001405Y005058
X009655Y022308
X002655Y020308
X002655Y001308
X014146Y012052
X013146Y021052
X004405Y005058
X013146Y013552
X013146Y009052
X013146Y016552
X014146Y009052
X014146Y018552
X001405Y018558
X004405Y018558
X014146Y016552
T102
X013143Y007560
X019143Y003960
X013143Y003960
X019143Y007560
T103
X005655Y008808
X011655Y007808
X011655Y008808
X005655Y004808
X005655Y005808
X011655Y006808
X011655Y014808
X011655Y005808
X011655Y004808
X005655Y014808
X011655Y010808
X005655Y017808
X005655Y011808
X005655Y013808
X005655Y018808
X005655Y009808
X011655Y009808
X011655Y012808
X011655Y018808
X005655Y012808
X005655Y007808
X005655Y015808
X011655Y015808
X011655Y017808
X005655Y016808
X005655Y006808
X005655Y010808
X011655Y011808
X011655Y013808
X011655Y016808
T00
M30
