G04 MADE WITH FRITZING*
G04 WWW.FRITZING.ORG*
G04 DOUBLE SIDED*
G04 HOLES PLATED*
G04 CONTOUR ON CENTER OF CONTOUR VECTOR*
%ASAXBY*%
%FSLAX23Y23*%
%MOIN*%
%OFA0B0*%
%SFA1.0B1.0*%
%ADD10R,1.987460X2.360090X1.971460X2.344090*%
%ADD11C,0.008000*%
%ADD12R,0.001000X0.001000*%
%LNSILK0*%
G90*
G70*
G54D11*
X4Y2356D02*
X1983Y2356D01*
X1983Y4D01*
X4Y4D01*
X4Y2356D01*
D02*
G54D12*
X946Y1897D02*
X946Y1897D01*
X945Y1896D02*
X946Y1896D01*
X944Y1895D02*
X947Y1895D01*
X942Y1894D02*
X947Y1894D01*
X941Y1893D02*
X947Y1893D01*
X939Y1892D02*
X947Y1892D01*
X938Y1891D02*
X947Y1891D01*
X937Y1890D02*
X947Y1890D01*
X936Y1889D02*
X947Y1889D01*
X934Y1888D02*
X947Y1888D01*
X933Y1887D02*
X947Y1887D01*
X932Y1886D02*
X947Y1886D01*
X931Y1885D02*
X947Y1885D01*
X930Y1884D02*
X947Y1884D01*
X929Y1883D02*
X947Y1883D01*
X928Y1882D02*
X947Y1882D01*
X926Y1881D02*
X947Y1881D01*
X925Y1880D02*
X947Y1880D01*
X924Y1879D02*
X947Y1879D01*
X923Y1878D02*
X947Y1878D01*
X922Y1877D02*
X947Y1877D01*
X921Y1876D02*
X947Y1876D01*
X832Y1875D02*
X834Y1875D01*
X920Y1875D02*
X947Y1875D01*
X827Y1874D02*
X834Y1874D01*
X919Y1874D02*
X947Y1874D01*
X823Y1873D02*
X834Y1873D01*
X918Y1873D02*
X947Y1873D01*
X820Y1872D02*
X835Y1872D01*
X917Y1872D02*
X947Y1872D01*
X817Y1871D02*
X835Y1871D01*
X916Y1871D02*
X947Y1871D01*
X814Y1870D02*
X835Y1870D01*
X915Y1870D02*
X947Y1870D01*
X812Y1869D02*
X835Y1869D01*
X914Y1869D02*
X947Y1869D01*
X809Y1868D02*
X835Y1868D01*
X913Y1868D02*
X947Y1868D01*
X806Y1867D02*
X835Y1867D01*
X912Y1867D02*
X947Y1867D01*
X803Y1866D02*
X835Y1866D01*
X911Y1866D02*
X947Y1866D01*
X801Y1865D02*
X835Y1865D01*
X910Y1865D02*
X947Y1865D01*
X798Y1864D02*
X836Y1864D01*
X909Y1864D02*
X946Y1864D01*
X795Y1863D02*
X836Y1863D01*
X908Y1863D02*
X946Y1863D01*
X792Y1862D02*
X836Y1862D01*
X907Y1862D02*
X946Y1862D01*
X788Y1861D02*
X836Y1861D01*
X906Y1861D02*
X946Y1861D01*
X787Y1860D02*
X836Y1860D01*
X905Y1860D02*
X946Y1860D01*
X787Y1859D02*
X836Y1859D01*
X904Y1859D02*
X946Y1859D01*
X786Y1858D02*
X836Y1858D01*
X903Y1858D02*
X946Y1858D01*
X786Y1857D02*
X836Y1857D01*
X902Y1857D02*
X946Y1857D01*
X786Y1856D02*
X836Y1856D01*
X901Y1856D02*
X946Y1856D01*
X786Y1855D02*
X835Y1855D01*
X900Y1855D02*
X946Y1855D01*
X786Y1854D02*
X835Y1854D01*
X899Y1854D02*
X946Y1854D01*
X786Y1853D02*
X835Y1853D01*
X898Y1853D02*
X946Y1853D01*
X786Y1852D02*
X835Y1852D01*
X897Y1852D02*
X946Y1852D01*
X786Y1851D02*
X835Y1851D01*
X896Y1851D02*
X946Y1851D01*
X786Y1850D02*
X835Y1850D01*
X895Y1850D02*
X946Y1850D01*
X786Y1849D02*
X835Y1849D01*
X894Y1849D02*
X946Y1849D01*
X786Y1848D02*
X835Y1848D01*
X893Y1848D02*
X946Y1848D01*
X786Y1847D02*
X835Y1847D01*
X892Y1847D02*
X946Y1847D01*
X786Y1846D02*
X835Y1846D01*
X891Y1846D02*
X946Y1846D01*
X786Y1845D02*
X835Y1845D01*
X890Y1845D02*
X946Y1845D01*
X786Y1844D02*
X835Y1844D01*
X889Y1844D02*
X946Y1844D01*
X786Y1843D02*
X835Y1843D01*
X888Y1843D02*
X946Y1843D01*
X786Y1842D02*
X835Y1842D01*
X887Y1842D02*
X946Y1842D01*
X786Y1841D02*
X835Y1841D01*
X886Y1841D02*
X946Y1841D01*
X786Y1840D02*
X835Y1840D01*
X885Y1840D02*
X946Y1840D01*
X785Y1839D02*
X835Y1839D01*
X884Y1839D02*
X946Y1839D01*
X785Y1838D02*
X835Y1838D01*
X883Y1838D02*
X946Y1838D01*
X785Y1837D02*
X835Y1837D01*
X882Y1837D02*
X946Y1837D01*
X785Y1836D02*
X835Y1836D01*
X880Y1836D02*
X946Y1836D01*
X785Y1835D02*
X835Y1835D01*
X879Y1835D02*
X946Y1835D01*
X785Y1834D02*
X835Y1834D01*
X878Y1834D02*
X946Y1834D01*
X785Y1833D02*
X835Y1833D01*
X877Y1833D02*
X945Y1833D01*
X785Y1832D02*
X835Y1832D01*
X876Y1832D02*
X944Y1832D01*
X785Y1831D02*
X835Y1831D01*
X874Y1831D02*
X943Y1831D01*
X785Y1830D02*
X835Y1830D01*
X873Y1830D02*
X942Y1830D01*
X785Y1829D02*
X835Y1829D01*
X872Y1829D02*
X941Y1829D01*
X785Y1828D02*
X835Y1828D01*
X871Y1828D02*
X940Y1828D01*
X785Y1827D02*
X835Y1827D01*
X869Y1827D02*
X939Y1827D01*
X785Y1826D02*
X835Y1826D01*
X868Y1826D02*
X938Y1826D01*
X785Y1825D02*
X835Y1825D01*
X867Y1825D02*
X937Y1825D01*
X785Y1824D02*
X835Y1824D01*
X865Y1824D02*
X936Y1824D01*
X785Y1823D02*
X836Y1823D01*
X864Y1823D02*
X935Y1823D01*
X785Y1822D02*
X836Y1822D01*
X862Y1822D02*
X934Y1822D01*
X785Y1821D02*
X836Y1821D01*
X861Y1821D02*
X933Y1821D01*
X785Y1820D02*
X836Y1820D01*
X859Y1820D02*
X931Y1820D01*
X785Y1819D02*
X836Y1819D01*
X858Y1819D02*
X930Y1819D01*
X786Y1818D02*
X837Y1818D01*
X856Y1818D02*
X929Y1818D01*
X786Y1817D02*
X837Y1817D01*
X854Y1817D02*
X928Y1817D01*
X786Y1816D02*
X838Y1816D01*
X852Y1816D02*
X926Y1816D01*
X786Y1815D02*
X838Y1815D01*
X851Y1815D02*
X925Y1815D01*
X786Y1814D02*
X839Y1814D01*
X849Y1814D02*
X924Y1814D01*
X786Y1813D02*
X839Y1813D01*
X846Y1813D02*
X923Y1813D01*
X786Y1812D02*
X840Y1812D01*
X844Y1812D02*
X922Y1812D01*
X786Y1811D02*
X920Y1811D01*
X786Y1810D02*
X919Y1810D01*
X786Y1809D02*
X918Y1809D01*
X787Y1808D02*
X917Y1808D01*
X787Y1807D02*
X916Y1807D01*
X787Y1806D02*
X915Y1806D01*
X787Y1805D02*
X914Y1805D01*
X787Y1804D02*
X913Y1804D01*
X787Y1803D02*
X912Y1803D01*
X788Y1802D02*
X911Y1802D01*
X788Y1801D02*
X910Y1801D01*
X788Y1800D02*
X909Y1800D01*
X788Y1799D02*
X908Y1799D01*
X789Y1798D02*
X907Y1798D01*
X789Y1797D02*
X907Y1797D01*
X790Y1796D02*
X906Y1796D01*
X790Y1795D02*
X905Y1795D01*
X790Y1794D02*
X905Y1794D01*
X791Y1793D02*
X904Y1793D01*
X791Y1792D02*
X905Y1792D01*
X792Y1791D02*
X908Y1791D01*
X792Y1790D02*
X912Y1790D01*
X793Y1789D02*
X915Y1789D01*
X793Y1788D02*
X918Y1788D01*
X794Y1787D02*
X920Y1787D01*
X795Y1786D02*
X923Y1786D01*
X795Y1785D02*
X926Y1785D01*
X796Y1784D02*
X928Y1784D01*
X797Y1783D02*
X930Y1783D01*
X798Y1782D02*
X933Y1782D01*
X799Y1781D02*
X935Y1781D01*
X800Y1780D02*
X937Y1780D01*
X802Y1779D02*
X939Y1779D01*
X803Y1778D02*
X942Y1778D01*
X805Y1777D02*
X944Y1777D01*
X806Y1776D02*
X946Y1776D01*
X806Y1775D02*
X946Y1775D01*
X804Y1774D02*
X946Y1774D01*
X803Y1773D02*
X946Y1773D01*
X660Y1772D02*
X688Y1772D01*
X801Y1772D02*
X946Y1772D01*
X659Y1771D02*
X690Y1771D01*
X800Y1771D02*
X946Y1771D01*
X658Y1770D02*
X690Y1770D01*
X799Y1770D02*
X946Y1770D01*
X657Y1769D02*
X691Y1769D01*
X798Y1769D02*
X946Y1769D01*
X657Y1768D02*
X691Y1768D01*
X797Y1768D02*
X946Y1768D01*
X657Y1767D02*
X691Y1767D01*
X796Y1767D02*
X946Y1767D01*
X657Y1766D02*
X691Y1766D01*
X795Y1766D02*
X946Y1766D01*
X657Y1765D02*
X691Y1765D01*
X794Y1765D02*
X946Y1765D01*
X657Y1764D02*
X690Y1764D01*
X794Y1764D02*
X946Y1764D01*
X657Y1763D02*
X689Y1763D01*
X793Y1763D02*
X946Y1763D01*
X657Y1762D02*
X666Y1762D01*
X792Y1762D02*
X946Y1762D01*
X657Y1761D02*
X666Y1761D01*
X792Y1761D02*
X946Y1761D01*
X657Y1760D02*
X666Y1760D01*
X791Y1760D02*
X946Y1760D01*
X657Y1759D02*
X666Y1759D01*
X791Y1759D02*
X946Y1759D01*
X657Y1758D02*
X666Y1758D01*
X790Y1758D02*
X946Y1758D01*
X657Y1757D02*
X666Y1757D01*
X790Y1757D02*
X946Y1757D01*
X657Y1756D02*
X666Y1756D01*
X790Y1756D02*
X946Y1756D01*
X657Y1755D02*
X666Y1755D01*
X789Y1755D02*
X946Y1755D01*
X657Y1754D02*
X666Y1754D01*
X789Y1754D02*
X946Y1754D01*
X657Y1753D02*
X666Y1753D01*
X789Y1753D02*
X946Y1753D01*
X657Y1752D02*
X734Y1752D01*
X788Y1752D02*
X946Y1752D01*
X657Y1751D02*
X734Y1751D01*
X788Y1751D02*
X946Y1751D01*
X657Y1750D02*
X734Y1750D01*
X788Y1750D02*
X946Y1750D01*
X657Y1749D02*
X734Y1749D01*
X787Y1749D02*
X946Y1749D01*
X657Y1748D02*
X734Y1748D01*
X787Y1748D02*
X946Y1748D01*
X657Y1747D02*
X734Y1747D01*
X787Y1747D02*
X849Y1747D01*
X852Y1747D02*
X946Y1747D01*
X657Y1746D02*
X734Y1746D01*
X787Y1746D02*
X847Y1746D01*
X852Y1746D02*
X946Y1746D01*
X657Y1745D02*
X734Y1745D01*
X787Y1745D02*
X846Y1745D01*
X852Y1745D02*
X946Y1745D01*
X657Y1744D02*
X734Y1744D01*
X787Y1744D02*
X845Y1744D01*
X853Y1744D02*
X946Y1744D01*
X657Y1743D02*
X734Y1743D01*
X787Y1743D02*
X843Y1743D01*
X853Y1743D02*
X946Y1743D01*
X657Y1742D02*
X666Y1742D01*
X725Y1742D02*
X734Y1742D01*
X786Y1742D02*
X842Y1742D01*
X853Y1742D02*
X946Y1742D01*
X657Y1741D02*
X666Y1741D01*
X725Y1741D02*
X734Y1741D01*
X786Y1741D02*
X841Y1741D01*
X853Y1741D02*
X946Y1741D01*
X657Y1740D02*
X666Y1740D01*
X725Y1740D02*
X734Y1740D01*
X786Y1740D02*
X840Y1740D01*
X853Y1740D02*
X946Y1740D01*
X657Y1739D02*
X666Y1739D01*
X725Y1739D02*
X734Y1739D01*
X786Y1739D02*
X838Y1739D01*
X853Y1739D02*
X946Y1739D01*
X657Y1738D02*
X666Y1738D01*
X725Y1738D02*
X734Y1738D01*
X786Y1738D02*
X837Y1738D01*
X853Y1738D02*
X946Y1738D01*
X657Y1737D02*
X666Y1737D01*
X725Y1737D02*
X734Y1737D01*
X786Y1737D02*
X836Y1737D01*
X853Y1737D02*
X946Y1737D01*
X657Y1736D02*
X666Y1736D01*
X725Y1736D02*
X734Y1736D01*
X786Y1736D02*
X835Y1736D01*
X853Y1736D02*
X946Y1736D01*
X657Y1735D02*
X666Y1735D01*
X725Y1735D02*
X734Y1735D01*
X786Y1735D02*
X834Y1735D01*
X853Y1735D02*
X904Y1735D01*
X912Y1735D02*
X946Y1735D01*
X657Y1734D02*
X666Y1734D01*
X725Y1734D02*
X734Y1734D01*
X786Y1734D02*
X833Y1734D01*
X853Y1734D02*
X904Y1734D01*
X916Y1734D02*
X946Y1734D01*
X657Y1733D02*
X666Y1733D01*
X725Y1733D02*
X734Y1733D01*
X786Y1733D02*
X831Y1733D01*
X853Y1733D02*
X904Y1733D01*
X919Y1733D02*
X946Y1733D01*
X657Y1732D02*
X666Y1732D01*
X725Y1732D02*
X734Y1732D01*
X786Y1732D02*
X830Y1732D01*
X853Y1732D02*
X904Y1732D01*
X921Y1732D02*
X946Y1732D01*
X657Y1731D02*
X666Y1731D01*
X725Y1731D02*
X734Y1731D01*
X786Y1731D02*
X829Y1731D01*
X853Y1731D02*
X904Y1731D01*
X924Y1731D02*
X946Y1731D01*
X657Y1730D02*
X666Y1730D01*
X725Y1730D02*
X734Y1730D01*
X786Y1730D02*
X828Y1730D01*
X853Y1730D02*
X904Y1730D01*
X927Y1730D02*
X946Y1730D01*
X657Y1729D02*
X666Y1729D01*
X725Y1729D02*
X734Y1729D01*
X786Y1729D02*
X827Y1729D01*
X853Y1729D02*
X904Y1729D01*
X929Y1729D02*
X946Y1729D01*
X657Y1728D02*
X666Y1728D01*
X725Y1728D02*
X734Y1728D01*
X786Y1728D02*
X826Y1728D01*
X853Y1728D02*
X904Y1728D01*
X932Y1728D02*
X946Y1728D01*
X657Y1727D02*
X666Y1727D01*
X725Y1727D02*
X734Y1727D01*
X786Y1727D02*
X825Y1727D01*
X853Y1727D02*
X904Y1727D01*
X935Y1727D02*
X946Y1727D01*
X657Y1726D02*
X666Y1726D01*
X725Y1726D02*
X734Y1726D01*
X786Y1726D02*
X824Y1726D01*
X853Y1726D02*
X904Y1726D01*
X939Y1726D02*
X946Y1726D01*
X658Y1725D02*
X665Y1725D01*
X725Y1725D02*
X733Y1725D01*
X786Y1725D02*
X823Y1725D01*
X853Y1725D02*
X904Y1725D01*
X658Y1724D02*
X664Y1724D01*
X726Y1724D02*
X732Y1724D01*
X786Y1724D02*
X822Y1724D01*
X853Y1724D02*
X904Y1724D01*
X660Y1723D02*
X663Y1723D01*
X728Y1723D02*
X731Y1723D01*
X786Y1723D02*
X821Y1723D01*
X853Y1723D02*
X904Y1723D01*
X786Y1722D02*
X820Y1722D01*
X853Y1722D02*
X904Y1722D01*
X786Y1721D02*
X819Y1721D01*
X853Y1721D02*
X904Y1721D01*
X786Y1720D02*
X818Y1720D01*
X853Y1720D02*
X904Y1720D01*
X786Y1719D02*
X817Y1719D01*
X853Y1719D02*
X904Y1719D01*
X786Y1718D02*
X816Y1718D01*
X853Y1718D02*
X904Y1718D01*
X786Y1717D02*
X814Y1717D01*
X853Y1717D02*
X904Y1717D01*
X786Y1716D02*
X813Y1716D01*
X853Y1716D02*
X904Y1716D01*
X786Y1715D02*
X812Y1715D01*
X853Y1715D02*
X904Y1715D01*
X786Y1714D02*
X811Y1714D01*
X853Y1714D02*
X904Y1714D01*
X786Y1713D02*
X810Y1713D01*
X853Y1713D02*
X904Y1713D01*
X786Y1712D02*
X809Y1712D01*
X853Y1712D02*
X904Y1712D01*
X786Y1711D02*
X808Y1711D01*
X852Y1711D02*
X904Y1711D01*
X786Y1710D02*
X807Y1710D01*
X848Y1710D02*
X904Y1710D01*
X786Y1709D02*
X806Y1709D01*
X844Y1709D02*
X904Y1709D01*
X786Y1708D02*
X805Y1708D01*
X841Y1708D02*
X904Y1708D01*
X786Y1707D02*
X804Y1707D01*
X839Y1707D02*
X904Y1707D01*
X786Y1706D02*
X803Y1706D01*
X836Y1706D02*
X904Y1706D01*
X786Y1705D02*
X802Y1705D01*
X834Y1705D02*
X905Y1705D01*
X786Y1704D02*
X800Y1704D01*
X832Y1704D02*
X908Y1704D01*
X786Y1703D02*
X799Y1703D01*
X831Y1703D02*
X910Y1703D01*
X786Y1702D02*
X798Y1702D01*
X829Y1702D02*
X912Y1702D01*
X786Y1701D02*
X797Y1701D01*
X827Y1701D02*
X914Y1701D01*
X786Y1700D02*
X796Y1700D01*
X826Y1700D02*
X916Y1700D01*
X786Y1699D02*
X794Y1699D01*
X824Y1699D02*
X918Y1699D01*
X786Y1698D02*
X793Y1698D01*
X823Y1698D02*
X919Y1698D01*
X786Y1697D02*
X792Y1697D01*
X821Y1697D02*
X921Y1697D01*
X787Y1696D02*
X790Y1696D01*
X820Y1696D02*
X922Y1696D01*
X787Y1695D02*
X789Y1695D01*
X819Y1695D02*
X923Y1695D01*
X787Y1694D02*
X787Y1694D01*
X818Y1694D02*
X925Y1694D01*
X817Y1693D02*
X926Y1693D01*
X815Y1692D02*
X927Y1692D01*
X814Y1691D02*
X928Y1691D01*
X813Y1690D02*
X929Y1690D01*
X812Y1689D02*
X930Y1689D01*
X811Y1688D02*
X931Y1688D01*
X810Y1687D02*
X932Y1687D01*
X809Y1686D02*
X933Y1686D01*
X673Y1685D02*
X684Y1685D01*
X808Y1685D02*
X933Y1685D01*
X671Y1684D02*
X685Y1684D01*
X807Y1684D02*
X934Y1684D01*
X670Y1683D02*
X686Y1683D01*
X807Y1683D02*
X935Y1683D01*
X670Y1682D02*
X687Y1682D01*
X806Y1682D02*
X936Y1682D01*
X670Y1681D02*
X687Y1681D01*
X805Y1681D02*
X936Y1681D01*
X670Y1680D02*
X687Y1680D01*
X804Y1680D02*
X937Y1680D01*
X670Y1679D02*
X687Y1679D01*
X803Y1679D02*
X937Y1679D01*
X670Y1678D02*
X687Y1678D01*
X803Y1678D02*
X938Y1678D01*
X670Y1677D02*
X687Y1677D01*
X802Y1677D02*
X939Y1677D01*
X670Y1676D02*
X687Y1676D01*
X801Y1676D02*
X939Y1676D01*
X670Y1675D02*
X687Y1675D01*
X800Y1675D02*
X940Y1675D01*
X670Y1674D02*
X687Y1674D01*
X800Y1674D02*
X940Y1674D01*
X670Y1673D02*
X687Y1673D01*
X799Y1673D02*
X941Y1673D01*
X670Y1672D02*
X687Y1672D01*
X798Y1672D02*
X941Y1672D01*
X670Y1671D02*
X687Y1671D01*
X798Y1671D02*
X941Y1671D01*
X670Y1670D02*
X687Y1670D01*
X797Y1670D02*
X942Y1670D01*
X670Y1669D02*
X687Y1669D01*
X796Y1669D02*
X942Y1669D01*
X670Y1668D02*
X686Y1668D01*
X796Y1668D02*
X943Y1668D01*
X671Y1667D02*
X686Y1667D01*
X795Y1667D02*
X943Y1667D01*
X672Y1666D02*
X685Y1666D01*
X795Y1666D02*
X943Y1666D01*
X794Y1665D02*
X944Y1665D01*
X794Y1664D02*
X944Y1664D01*
X793Y1663D02*
X944Y1663D01*
X792Y1662D02*
X944Y1662D01*
X792Y1661D02*
X945Y1661D01*
X792Y1660D02*
X945Y1660D01*
X791Y1659D02*
X945Y1659D01*
X791Y1658D02*
X945Y1658D01*
X790Y1657D02*
X945Y1657D01*
X790Y1656D02*
X946Y1656D01*
X789Y1655D02*
X946Y1655D01*
X789Y1654D02*
X946Y1654D01*
X788Y1653D02*
X852Y1653D01*
X855Y1653D02*
X946Y1653D01*
X788Y1652D02*
X850Y1652D01*
X855Y1652D02*
X946Y1652D01*
X788Y1651D02*
X849Y1651D01*
X855Y1651D02*
X946Y1651D01*
X787Y1650D02*
X847Y1650D01*
X855Y1650D02*
X946Y1650D01*
X787Y1649D02*
X846Y1649D01*
X856Y1649D02*
X947Y1649D01*
X787Y1648D02*
X844Y1648D01*
X856Y1648D02*
X947Y1648D01*
X786Y1647D02*
X843Y1647D01*
X856Y1647D02*
X947Y1647D01*
X786Y1646D02*
X842Y1646D01*
X856Y1646D02*
X947Y1646D01*
X786Y1645D02*
X841Y1645D01*
X857Y1645D02*
X947Y1645D01*
X785Y1644D02*
X840Y1644D01*
X857Y1644D02*
X947Y1644D01*
X785Y1643D02*
X839Y1643D01*
X858Y1643D02*
X947Y1643D01*
X785Y1642D02*
X838Y1642D01*
X858Y1642D02*
X947Y1642D01*
X784Y1641D02*
X837Y1641D01*
X859Y1641D02*
X947Y1641D01*
X784Y1640D02*
X836Y1640D01*
X859Y1640D02*
X947Y1640D01*
X784Y1639D02*
X836Y1639D01*
X860Y1639D02*
X947Y1639D01*
X784Y1638D02*
X835Y1638D01*
X861Y1638D02*
X947Y1638D01*
X783Y1637D02*
X835Y1637D01*
X861Y1637D02*
X947Y1637D01*
X783Y1636D02*
X834Y1636D01*
X862Y1636D02*
X947Y1636D01*
X783Y1635D02*
X834Y1635D01*
X863Y1635D02*
X947Y1635D01*
X783Y1634D02*
X833Y1634D01*
X864Y1634D02*
X947Y1634D01*
X783Y1633D02*
X833Y1633D01*
X865Y1633D02*
X947Y1633D01*
X782Y1632D02*
X833Y1632D01*
X867Y1632D02*
X946Y1632D01*
X782Y1631D02*
X832Y1631D01*
X868Y1631D02*
X946Y1631D01*
X782Y1630D02*
X832Y1630D01*
X870Y1630D02*
X946Y1630D01*
X782Y1629D02*
X832Y1629D01*
X871Y1629D02*
X946Y1629D01*
X660Y1628D02*
X688Y1628D01*
X782Y1628D02*
X832Y1628D01*
X873Y1628D02*
X946Y1628D01*
X659Y1627D02*
X690Y1627D01*
X782Y1627D02*
X832Y1627D01*
X875Y1627D02*
X946Y1627D01*
X658Y1626D02*
X690Y1626D01*
X782Y1626D02*
X832Y1626D01*
X877Y1626D02*
X946Y1626D01*
X657Y1625D02*
X691Y1625D01*
X781Y1625D02*
X832Y1625D01*
X880Y1625D02*
X945Y1625D01*
X657Y1624D02*
X691Y1624D01*
X781Y1624D02*
X832Y1624D01*
X882Y1624D02*
X945Y1624D01*
X657Y1623D02*
X691Y1623D01*
X781Y1623D02*
X832Y1623D01*
X884Y1623D02*
X945Y1623D01*
X657Y1622D02*
X691Y1622D01*
X781Y1622D02*
X832Y1622D01*
X887Y1622D02*
X945Y1622D01*
X657Y1621D02*
X691Y1621D01*
X781Y1621D02*
X832Y1621D01*
X889Y1621D02*
X945Y1621D01*
X657Y1620D02*
X690Y1620D01*
X781Y1620D02*
X832Y1620D01*
X890Y1620D02*
X944Y1620D01*
X657Y1619D02*
X689Y1619D01*
X781Y1619D02*
X832Y1619D01*
X889Y1619D02*
X944Y1619D01*
X657Y1618D02*
X666Y1618D01*
X781Y1618D02*
X832Y1618D01*
X888Y1618D02*
X944Y1618D01*
X657Y1617D02*
X666Y1617D01*
X781Y1617D02*
X833Y1617D01*
X887Y1617D02*
X944Y1617D01*
X657Y1616D02*
X666Y1616D01*
X781Y1616D02*
X833Y1616D01*
X886Y1616D02*
X943Y1616D01*
X657Y1615D02*
X666Y1615D01*
X781Y1615D02*
X834Y1615D01*
X885Y1615D02*
X943Y1615D01*
X657Y1614D02*
X666Y1614D01*
X781Y1614D02*
X834Y1614D01*
X884Y1614D02*
X943Y1614D01*
X657Y1613D02*
X666Y1613D01*
X781Y1613D02*
X835Y1613D01*
X883Y1613D02*
X942Y1613D01*
X657Y1612D02*
X666Y1612D01*
X781Y1612D02*
X835Y1612D01*
X882Y1612D02*
X942Y1612D01*
X657Y1611D02*
X666Y1611D01*
X781Y1611D02*
X836Y1611D01*
X881Y1611D02*
X942Y1611D01*
X657Y1610D02*
X666Y1610D01*
X781Y1610D02*
X837Y1610D01*
X879Y1610D02*
X941Y1610D01*
X657Y1609D02*
X666Y1609D01*
X782Y1609D02*
X838Y1609D01*
X877Y1609D02*
X941Y1609D01*
X657Y1608D02*
X734Y1608D01*
X782Y1608D02*
X839Y1608D01*
X876Y1608D02*
X940Y1608D01*
X657Y1607D02*
X734Y1607D01*
X782Y1607D02*
X840Y1607D01*
X873Y1607D02*
X940Y1607D01*
X657Y1606D02*
X734Y1606D01*
X782Y1606D02*
X842Y1606D01*
X871Y1606D02*
X939Y1606D01*
X657Y1605D02*
X734Y1605D01*
X782Y1605D02*
X844Y1605D01*
X868Y1605D02*
X939Y1605D01*
X657Y1604D02*
X734Y1604D01*
X782Y1604D02*
X848Y1604D01*
X864Y1604D02*
X939Y1604D01*
X657Y1603D02*
X734Y1603D01*
X782Y1603D02*
X938Y1603D01*
X657Y1602D02*
X734Y1602D01*
X783Y1602D02*
X937Y1602D01*
X657Y1601D02*
X734Y1601D01*
X783Y1601D02*
X937Y1601D01*
X657Y1600D02*
X734Y1600D01*
X783Y1600D02*
X936Y1600D01*
X657Y1599D02*
X734Y1599D01*
X783Y1599D02*
X936Y1599D01*
X657Y1598D02*
X666Y1598D01*
X725Y1598D02*
X734Y1598D01*
X784Y1598D02*
X935Y1598D01*
X1016Y1598D02*
X1042Y1598D01*
X657Y1597D02*
X666Y1597D01*
X725Y1597D02*
X734Y1597D01*
X784Y1597D02*
X935Y1597D01*
X1010Y1597D02*
X1047Y1597D01*
X657Y1596D02*
X666Y1596D01*
X725Y1596D02*
X734Y1596D01*
X784Y1596D02*
X934Y1596D01*
X1006Y1596D02*
X1051Y1596D01*
X657Y1595D02*
X666Y1595D01*
X725Y1595D02*
X734Y1595D01*
X784Y1595D02*
X933Y1595D01*
X1002Y1595D02*
X1054Y1595D01*
X657Y1594D02*
X666Y1594D01*
X725Y1594D02*
X734Y1594D01*
X785Y1594D02*
X933Y1594D01*
X999Y1594D02*
X1056Y1594D01*
X657Y1593D02*
X666Y1593D01*
X725Y1593D02*
X734Y1593D01*
X785Y1593D02*
X932Y1593D01*
X996Y1593D02*
X1059Y1593D01*
X657Y1592D02*
X666Y1592D01*
X725Y1592D02*
X734Y1592D01*
X786Y1592D02*
X932Y1592D01*
X994Y1592D02*
X1061Y1592D01*
X657Y1591D02*
X666Y1591D01*
X725Y1591D02*
X734Y1591D01*
X786Y1591D02*
X931Y1591D01*
X991Y1591D02*
X1063Y1591D01*
X657Y1590D02*
X666Y1590D01*
X725Y1590D02*
X734Y1590D01*
X786Y1590D02*
X930Y1590D01*
X989Y1590D02*
X1064Y1590D01*
X657Y1589D02*
X666Y1589D01*
X725Y1589D02*
X734Y1589D01*
X787Y1589D02*
X929Y1589D01*
X987Y1589D02*
X1066Y1589D01*
X657Y1588D02*
X666Y1588D01*
X725Y1588D02*
X734Y1588D01*
X787Y1588D02*
X929Y1588D01*
X985Y1588D02*
X1067Y1588D01*
X657Y1587D02*
X666Y1587D01*
X725Y1587D02*
X734Y1587D01*
X788Y1587D02*
X928Y1587D01*
X983Y1587D02*
X1069Y1587D01*
X657Y1586D02*
X666Y1586D01*
X725Y1586D02*
X734Y1586D01*
X788Y1586D02*
X927Y1586D01*
X981Y1586D02*
X1070Y1586D01*
X657Y1585D02*
X666Y1585D01*
X725Y1585D02*
X734Y1585D01*
X789Y1585D02*
X926Y1585D01*
X979Y1585D02*
X1071Y1585D01*
X657Y1584D02*
X666Y1584D01*
X725Y1584D02*
X734Y1584D01*
X789Y1584D02*
X925Y1584D01*
X978Y1584D02*
X1072Y1584D01*
X657Y1583D02*
X666Y1583D01*
X725Y1583D02*
X734Y1583D01*
X790Y1583D02*
X924Y1583D01*
X976Y1583D02*
X1073Y1583D01*
X657Y1582D02*
X666Y1582D01*
X725Y1582D02*
X734Y1582D01*
X790Y1582D02*
X923Y1582D01*
X974Y1582D02*
X1074Y1582D01*
X658Y1581D02*
X665Y1581D01*
X725Y1581D02*
X733Y1581D01*
X791Y1581D02*
X923Y1581D01*
X973Y1581D02*
X1075Y1581D01*
X658Y1580D02*
X664Y1580D01*
X726Y1580D02*
X732Y1580D01*
X792Y1580D02*
X922Y1580D01*
X971Y1580D02*
X1076Y1580D01*
X660Y1579D02*
X663Y1579D01*
X728Y1579D02*
X731Y1579D01*
X792Y1579D02*
X921Y1579D01*
X970Y1579D02*
X1077Y1579D01*
X793Y1578D02*
X920Y1578D01*
X968Y1578D02*
X1078Y1578D01*
X794Y1577D02*
X919Y1577D01*
X967Y1577D02*
X1079Y1577D01*
X795Y1576D02*
X917Y1576D01*
X965Y1576D02*
X1079Y1576D01*
X795Y1575D02*
X916Y1575D01*
X964Y1575D02*
X1080Y1575D01*
X796Y1574D02*
X915Y1574D01*
X963Y1574D02*
X1081Y1574D01*
X797Y1573D02*
X914Y1573D01*
X961Y1573D02*
X1081Y1573D01*
X798Y1572D02*
X913Y1572D01*
X960Y1572D02*
X1082Y1572D01*
X799Y1571D02*
X911Y1571D01*
X959Y1571D02*
X1082Y1571D01*
X800Y1570D02*
X910Y1570D01*
X957Y1570D02*
X1083Y1570D01*
X801Y1569D02*
X909Y1569D01*
X956Y1569D02*
X1083Y1569D01*
X802Y1568D02*
X907Y1568D01*
X955Y1568D02*
X1084Y1568D01*
X803Y1567D02*
X906Y1567D01*
X954Y1567D02*
X1084Y1567D01*
X805Y1566D02*
X904Y1566D01*
X952Y1566D02*
X1085Y1566D01*
X806Y1565D02*
X903Y1565D01*
X951Y1565D02*
X1085Y1565D01*
X807Y1564D02*
X901Y1564D01*
X950Y1564D02*
X1085Y1564D01*
X808Y1563D02*
X899Y1563D01*
X949Y1563D02*
X1086Y1563D01*
X810Y1562D02*
X898Y1562D01*
X948Y1562D02*
X1086Y1562D01*
X812Y1561D02*
X896Y1561D01*
X947Y1561D02*
X1087Y1561D01*
X813Y1560D02*
X894Y1560D01*
X945Y1560D02*
X1087Y1560D01*
X815Y1559D02*
X892Y1559D01*
X944Y1559D02*
X1087Y1559D01*
X817Y1558D02*
X889Y1558D01*
X943Y1558D02*
X1087Y1558D01*
X819Y1557D02*
X887Y1557D01*
X942Y1557D02*
X1088Y1557D01*
X821Y1556D02*
X885Y1556D01*
X941Y1556D02*
X1088Y1556D01*
X824Y1555D02*
X882Y1555D01*
X940Y1555D02*
X1088Y1555D01*
X826Y1554D02*
X879Y1554D01*
X938Y1554D02*
X1088Y1554D01*
X829Y1553D02*
X875Y1553D01*
X937Y1553D02*
X1088Y1553D01*
X833Y1552D02*
X871Y1552D01*
X936Y1552D02*
X1089Y1552D01*
X838Y1551D02*
X866Y1551D01*
X935Y1551D02*
X1089Y1551D01*
X847Y1550D02*
X857Y1550D01*
X934Y1550D02*
X1089Y1550D01*
X933Y1549D02*
X1089Y1549D01*
X932Y1548D02*
X1020Y1548D01*
X1033Y1548D02*
X1089Y1548D01*
X931Y1547D02*
X1014Y1547D01*
X1038Y1547D02*
X1089Y1547D01*
X929Y1546D02*
X1011Y1546D01*
X1040Y1546D02*
X1089Y1546D01*
X928Y1545D02*
X1008Y1545D01*
X1040Y1545D02*
X1089Y1545D01*
X927Y1544D02*
X1005Y1544D01*
X1040Y1544D02*
X1089Y1544D01*
X805Y1543D02*
X826Y1543D01*
X926Y1543D02*
X1003Y1543D01*
X1040Y1543D02*
X1089Y1543D01*
X803Y1542D02*
X833Y1542D01*
X925Y1542D02*
X1001Y1542D01*
X1040Y1542D02*
X1089Y1542D01*
X801Y1541D02*
X838Y1541D01*
X924Y1541D02*
X999Y1541D01*
X1040Y1541D02*
X1089Y1541D01*
X799Y1540D02*
X842Y1540D01*
X923Y1540D02*
X997Y1540D01*
X1040Y1540D02*
X1089Y1540D01*
X798Y1539D02*
X846Y1539D01*
X921Y1539D02*
X996Y1539D01*
X1040Y1539D02*
X1089Y1539D01*
X796Y1538D02*
X849Y1538D01*
X920Y1538D02*
X994Y1538D01*
X1040Y1538D02*
X1089Y1538D01*
X795Y1537D02*
X852Y1537D01*
X919Y1537D02*
X992Y1537D01*
X1040Y1537D02*
X1089Y1537D01*
X794Y1536D02*
X854Y1536D01*
X918Y1536D02*
X991Y1536D01*
X1040Y1536D02*
X1089Y1536D01*
X793Y1535D02*
X857Y1535D01*
X917Y1535D02*
X989Y1535D01*
X1040Y1535D02*
X1089Y1535D01*
X792Y1534D02*
X859Y1534D01*
X915Y1534D02*
X988Y1534D01*
X1040Y1534D02*
X1089Y1534D01*
X791Y1533D02*
X862Y1533D01*
X914Y1533D02*
X987Y1533D01*
X1040Y1533D02*
X1089Y1533D01*
X791Y1532D02*
X864Y1532D01*
X913Y1532D02*
X985Y1532D01*
X1040Y1532D02*
X1089Y1532D01*
X790Y1531D02*
X866Y1531D01*
X911Y1531D02*
X984Y1531D01*
X1040Y1531D02*
X1089Y1531D01*
X789Y1530D02*
X868Y1530D01*
X910Y1530D02*
X983Y1530D01*
X1040Y1530D02*
X1089Y1530D01*
X789Y1529D02*
X870Y1529D01*
X909Y1529D02*
X982Y1529D01*
X1040Y1529D02*
X1089Y1529D01*
X788Y1528D02*
X872Y1528D01*
X908Y1528D02*
X980Y1528D01*
X1039Y1528D02*
X1088Y1528D01*
X788Y1527D02*
X875Y1527D01*
X906Y1527D02*
X979Y1527D01*
X1039Y1527D02*
X1088Y1527D01*
X787Y1526D02*
X877Y1526D01*
X905Y1526D02*
X978Y1526D01*
X1039Y1526D02*
X1088Y1526D01*
X787Y1525D02*
X879Y1525D01*
X903Y1525D02*
X977Y1525D01*
X1039Y1525D02*
X1088Y1525D01*
X786Y1524D02*
X881Y1524D01*
X902Y1524D02*
X975Y1524D01*
X1038Y1524D02*
X1088Y1524D01*
X786Y1523D02*
X883Y1523D01*
X900Y1523D02*
X974Y1523D01*
X1038Y1523D02*
X1088Y1523D01*
X785Y1522D02*
X886Y1522D01*
X899Y1522D02*
X973Y1522D01*
X1038Y1522D02*
X1087Y1522D01*
X785Y1521D02*
X888Y1521D01*
X897Y1521D02*
X972Y1521D01*
X1037Y1521D02*
X1087Y1521D01*
X785Y1520D02*
X890Y1520D01*
X895Y1520D02*
X971Y1520D01*
X1037Y1520D02*
X1087Y1520D01*
X784Y1519D02*
X969Y1519D01*
X1037Y1519D02*
X1087Y1519D01*
X784Y1518D02*
X968Y1518D01*
X1036Y1518D02*
X1086Y1518D01*
X784Y1517D02*
X967Y1517D01*
X1036Y1517D02*
X1086Y1517D01*
X784Y1516D02*
X966Y1516D01*
X1035Y1516D02*
X1086Y1516D01*
X783Y1515D02*
X965Y1515D01*
X1035Y1515D02*
X1086Y1515D01*
X783Y1514D02*
X964Y1514D01*
X1034Y1514D02*
X1085Y1514D01*
X783Y1513D02*
X962Y1513D01*
X1034Y1513D02*
X1085Y1513D01*
X783Y1512D02*
X961Y1512D01*
X1033Y1512D02*
X1085Y1512D01*
X782Y1511D02*
X960Y1511D01*
X1033Y1511D02*
X1084Y1511D01*
X782Y1510D02*
X959Y1510D01*
X1032Y1510D02*
X1084Y1510D01*
X782Y1509D02*
X958Y1509D01*
X1031Y1509D02*
X1084Y1509D01*
X782Y1508D02*
X957Y1508D01*
X1031Y1508D02*
X1083Y1508D01*
X782Y1507D02*
X955Y1507D01*
X1030Y1507D02*
X1083Y1507D01*
X781Y1506D02*
X954Y1506D01*
X1029Y1506D02*
X1082Y1506D01*
X781Y1505D02*
X953Y1505D01*
X1029Y1505D02*
X1082Y1505D01*
X781Y1504D02*
X952Y1504D01*
X1028Y1504D02*
X1082Y1504D01*
X781Y1503D02*
X951Y1503D01*
X1027Y1503D02*
X1081Y1503D01*
X781Y1502D02*
X949Y1502D01*
X1027Y1502D02*
X1081Y1502D01*
X781Y1501D02*
X948Y1501D01*
X1026Y1501D02*
X1080Y1501D01*
X781Y1500D02*
X947Y1500D01*
X1025Y1500D02*
X1080Y1500D01*
X781Y1499D02*
X946Y1499D01*
X1024Y1499D02*
X1079Y1499D01*
X781Y1498D02*
X945Y1498D01*
X1023Y1498D02*
X1079Y1498D01*
X781Y1497D02*
X944Y1497D01*
X1023Y1497D02*
X1078Y1497D01*
X780Y1496D02*
X943Y1496D01*
X1022Y1496D02*
X1078Y1496D01*
X780Y1495D02*
X942Y1495D01*
X1021Y1495D02*
X1078Y1495D01*
X780Y1494D02*
X940Y1494D01*
X1020Y1494D02*
X1077Y1494D01*
X780Y1493D02*
X939Y1493D01*
X1019Y1493D02*
X1076Y1493D01*
X780Y1492D02*
X938Y1492D01*
X1018Y1492D02*
X1076Y1492D01*
X780Y1491D02*
X937Y1491D01*
X1017Y1491D02*
X1075Y1491D01*
X780Y1490D02*
X936Y1490D01*
X1016Y1490D02*
X1075Y1490D01*
X780Y1489D02*
X832Y1489D01*
X834Y1489D02*
X935Y1489D01*
X1015Y1489D02*
X1074Y1489D01*
X780Y1488D02*
X832Y1488D01*
X838Y1488D02*
X934Y1488D01*
X1014Y1488D02*
X1074Y1488D01*
X780Y1487D02*
X832Y1487D01*
X841Y1487D02*
X932Y1487D01*
X1013Y1487D02*
X1073Y1487D01*
X780Y1486D02*
X832Y1486D01*
X844Y1486D02*
X931Y1486D01*
X1012Y1486D02*
X1072Y1486D01*
X780Y1485D02*
X832Y1485D01*
X847Y1485D02*
X930Y1485D01*
X1011Y1485D02*
X1072Y1485D01*
X699Y1484D02*
X709Y1484D01*
X780Y1484D02*
X832Y1484D01*
X849Y1484D02*
X929Y1484D01*
X1010Y1484D02*
X1071Y1484D01*
X696Y1483D02*
X711Y1483D01*
X780Y1483D02*
X831Y1483D01*
X851Y1483D02*
X928Y1483D01*
X1009Y1483D02*
X1070Y1483D01*
X694Y1482D02*
X712Y1482D01*
X780Y1482D02*
X831Y1482D01*
X854Y1482D02*
X927Y1482D01*
X1008Y1482D02*
X1070Y1482D01*
X692Y1481D02*
X712Y1481D01*
X780Y1481D02*
X831Y1481D01*
X856Y1481D02*
X925Y1481D01*
X1007Y1481D02*
X1069Y1481D01*
X689Y1480D02*
X712Y1480D01*
X780Y1480D02*
X831Y1480D01*
X858Y1480D02*
X924Y1480D01*
X1006Y1480D02*
X1069Y1480D01*
X687Y1479D02*
X713Y1479D01*
X780Y1479D02*
X831Y1479D01*
X861Y1479D02*
X923Y1479D01*
X1004Y1479D02*
X1068Y1479D01*
X685Y1478D02*
X712Y1478D01*
X780Y1478D02*
X831Y1478D01*
X863Y1478D02*
X922Y1478D01*
X1003Y1478D02*
X1067Y1478D01*
X682Y1477D02*
X712Y1477D01*
X780Y1477D02*
X831Y1477D01*
X865Y1477D02*
X921Y1477D01*
X1002Y1477D02*
X1066Y1477D01*
X680Y1476D02*
X711Y1476D01*
X780Y1476D02*
X831Y1476D01*
X868Y1476D02*
X919Y1476D01*
X1001Y1476D02*
X1066Y1476D01*
X678Y1475D02*
X710Y1475D01*
X780Y1475D02*
X831Y1475D01*
X870Y1475D02*
X918Y1475D01*
X999Y1475D02*
X1065Y1475D01*
X676Y1474D02*
X700Y1474D01*
X780Y1474D02*
X831Y1474D01*
X872Y1474D02*
X917Y1474D01*
X998Y1474D02*
X1064Y1474D01*
X673Y1473D02*
X697Y1473D01*
X780Y1473D02*
X831Y1473D01*
X874Y1473D02*
X915Y1473D01*
X997Y1473D02*
X1063Y1473D01*
X671Y1472D02*
X695Y1472D01*
X780Y1472D02*
X831Y1472D01*
X876Y1472D02*
X914Y1472D01*
X995Y1472D02*
X1063Y1472D01*
X669Y1471D02*
X693Y1471D01*
X780Y1471D02*
X831Y1471D01*
X878Y1471D02*
X913Y1471D01*
X994Y1471D02*
X1062Y1471D01*
X666Y1470D02*
X691Y1470D01*
X780Y1470D02*
X831Y1470D01*
X881Y1470D02*
X911Y1470D01*
X993Y1470D02*
X1061Y1470D01*
X664Y1469D02*
X688Y1469D01*
X780Y1469D02*
X831Y1469D01*
X883Y1469D02*
X910Y1469D01*
X991Y1469D02*
X1060Y1469D01*
X662Y1468D02*
X686Y1468D01*
X780Y1468D02*
X831Y1468D01*
X885Y1468D02*
X908Y1468D01*
X990Y1468D02*
X1059Y1468D01*
X660Y1467D02*
X684Y1467D01*
X780Y1467D02*
X831Y1467D01*
X887Y1467D02*
X907Y1467D01*
X988Y1467D02*
X1059Y1467D01*
X658Y1466D02*
X681Y1466D01*
X780Y1466D02*
X831Y1466D01*
X890Y1466D02*
X905Y1466D01*
X987Y1466D02*
X1058Y1466D01*
X657Y1465D02*
X679Y1465D01*
X780Y1465D02*
X831Y1465D01*
X892Y1465D02*
X904Y1465D01*
X985Y1465D02*
X1057Y1465D01*
X657Y1464D02*
X677Y1464D01*
X780Y1464D02*
X831Y1464D01*
X894Y1464D02*
X902Y1464D01*
X984Y1464D02*
X1056Y1464D01*
X657Y1463D02*
X675Y1463D01*
X780Y1463D02*
X831Y1463D01*
X896Y1463D02*
X900Y1463D01*
X982Y1463D02*
X1055Y1463D01*
X657Y1462D02*
X672Y1462D01*
X780Y1462D02*
X831Y1462D01*
X899Y1462D02*
X899Y1462D01*
X980Y1462D02*
X1054Y1462D01*
X657Y1461D02*
X670Y1461D01*
X780Y1461D02*
X831Y1461D01*
X979Y1461D02*
X1053Y1461D01*
X657Y1460D02*
X668Y1460D01*
X780Y1460D02*
X831Y1460D01*
X977Y1460D02*
X1052Y1460D01*
X657Y1459D02*
X667Y1459D01*
X780Y1459D02*
X831Y1459D01*
X975Y1459D02*
X1052Y1459D01*
X657Y1458D02*
X669Y1458D01*
X780Y1458D02*
X830Y1458D01*
X973Y1458D02*
X1051Y1458D01*
X657Y1457D02*
X672Y1457D01*
X780Y1457D02*
X830Y1457D01*
X972Y1457D02*
X1050Y1457D01*
X657Y1456D02*
X674Y1456D01*
X780Y1456D02*
X830Y1456D01*
X970Y1456D02*
X1049Y1456D01*
X657Y1455D02*
X676Y1455D01*
X780Y1455D02*
X830Y1455D01*
X968Y1455D02*
X1048Y1455D01*
X657Y1454D02*
X678Y1454D01*
X780Y1454D02*
X830Y1454D01*
X966Y1454D02*
X1047Y1454D01*
X658Y1453D02*
X681Y1453D01*
X780Y1453D02*
X830Y1453D01*
X964Y1453D02*
X1046Y1453D01*
X659Y1452D02*
X683Y1452D01*
X780Y1452D02*
X830Y1452D01*
X962Y1452D02*
X1045Y1452D01*
X661Y1451D02*
X685Y1451D01*
X780Y1451D02*
X830Y1451D01*
X960Y1451D02*
X1044Y1451D01*
X664Y1450D02*
X688Y1450D01*
X780Y1450D02*
X830Y1450D01*
X958Y1450D02*
X1043Y1450D01*
X666Y1449D02*
X690Y1449D01*
X780Y1449D02*
X830Y1449D01*
X955Y1449D02*
X1042Y1449D01*
X668Y1448D02*
X692Y1448D01*
X781Y1448D02*
X830Y1448D01*
X953Y1448D02*
X1041Y1448D01*
X670Y1447D02*
X695Y1447D01*
X781Y1447D02*
X830Y1447D01*
X951Y1447D02*
X1039Y1447D01*
X673Y1446D02*
X697Y1446D01*
X781Y1446D02*
X830Y1446D01*
X949Y1446D02*
X1038Y1446D01*
X675Y1445D02*
X699Y1445D01*
X781Y1445D02*
X830Y1445D01*
X946Y1445D02*
X1037Y1445D01*
X677Y1444D02*
X710Y1444D01*
X781Y1444D02*
X830Y1444D01*
X944Y1444D02*
X1036Y1444D01*
X680Y1443D02*
X711Y1443D01*
X781Y1443D02*
X830Y1443D01*
X941Y1443D02*
X1035Y1443D01*
X682Y1442D02*
X712Y1442D01*
X781Y1442D02*
X830Y1442D01*
X939Y1442D02*
X1034Y1442D01*
X684Y1441D02*
X712Y1441D01*
X781Y1441D02*
X830Y1441D01*
X936Y1441D02*
X1033Y1441D01*
X686Y1440D02*
X713Y1440D01*
X781Y1440D02*
X830Y1440D01*
X933Y1440D02*
X1032Y1440D01*
X689Y1439D02*
X713Y1439D01*
X781Y1439D02*
X830Y1439D01*
X930Y1439D02*
X1030Y1439D01*
X691Y1438D02*
X712Y1438D01*
X781Y1438D02*
X830Y1438D01*
X927Y1438D02*
X1029Y1438D01*
X693Y1437D02*
X712Y1437D01*
X781Y1437D02*
X830Y1437D01*
X924Y1437D02*
X1028Y1437D01*
X696Y1436D02*
X711Y1436D01*
X781Y1436D02*
X830Y1436D01*
X921Y1436D02*
X1027Y1436D01*
X698Y1435D02*
X710Y1435D01*
X781Y1435D02*
X830Y1435D01*
X918Y1435D02*
X1025Y1435D01*
X781Y1434D02*
X830Y1434D01*
X915Y1434D02*
X1024Y1434D01*
X781Y1433D02*
X830Y1433D01*
X911Y1433D02*
X1023Y1433D01*
X781Y1432D02*
X830Y1432D01*
X908Y1432D02*
X1022Y1432D01*
X781Y1431D02*
X830Y1431D01*
X904Y1431D02*
X1020Y1431D01*
X781Y1430D02*
X830Y1430D01*
X900Y1430D02*
X1019Y1430D01*
X781Y1429D02*
X830Y1429D01*
X896Y1429D02*
X1017Y1429D01*
X781Y1428D02*
X830Y1428D01*
X891Y1428D02*
X1016Y1428D01*
X781Y1427D02*
X830Y1427D01*
X887Y1427D02*
X1015Y1427D01*
X781Y1426D02*
X830Y1426D01*
X881Y1426D02*
X1013Y1426D01*
X781Y1425D02*
X830Y1425D01*
X876Y1425D02*
X1012Y1425D01*
X781Y1424D02*
X830Y1424D01*
X870Y1424D02*
X1010Y1424D01*
X781Y1423D02*
X830Y1423D01*
X864Y1423D02*
X1009Y1423D01*
X781Y1422D02*
X830Y1422D01*
X856Y1422D02*
X1007Y1422D01*
X781Y1421D02*
X830Y1421D01*
X850Y1421D02*
X1006Y1421D01*
X781Y1420D02*
X830Y1420D01*
X849Y1420D02*
X1004Y1420D01*
X781Y1419D02*
X830Y1419D01*
X849Y1419D02*
X1002Y1419D01*
X781Y1418D02*
X830Y1418D01*
X849Y1418D02*
X1001Y1418D01*
X781Y1417D02*
X830Y1417D01*
X849Y1417D02*
X999Y1417D01*
X781Y1416D02*
X830Y1416D01*
X849Y1416D02*
X997Y1416D01*
X781Y1415D02*
X830Y1415D01*
X849Y1415D02*
X996Y1415D01*
X781Y1414D02*
X830Y1414D01*
X849Y1414D02*
X994Y1414D01*
X781Y1413D02*
X830Y1413D01*
X849Y1413D02*
X992Y1413D01*
X660Y1412D02*
X662Y1412D01*
X682Y1412D02*
X698Y1412D01*
X781Y1412D02*
X830Y1412D01*
X849Y1412D02*
X990Y1412D01*
X659Y1411D02*
X664Y1411D01*
X680Y1411D02*
X701Y1411D01*
X781Y1411D02*
X830Y1411D01*
X849Y1411D02*
X988Y1411D01*
X658Y1410D02*
X665Y1410D01*
X679Y1410D02*
X702Y1410D01*
X781Y1410D02*
X830Y1410D01*
X849Y1410D02*
X986Y1410D01*
X657Y1409D02*
X666Y1409D01*
X678Y1409D02*
X704Y1409D01*
X781Y1409D02*
X830Y1409D01*
X849Y1409D02*
X984Y1409D01*
X657Y1408D02*
X666Y1408D01*
X678Y1408D02*
X705Y1408D01*
X781Y1408D02*
X830Y1408D01*
X849Y1408D02*
X982Y1408D01*
X657Y1407D02*
X666Y1407D01*
X678Y1407D02*
X706Y1407D01*
X781Y1407D02*
X830Y1407D01*
X849Y1407D02*
X980Y1407D01*
X657Y1406D02*
X666Y1406D01*
X678Y1406D02*
X707Y1406D01*
X781Y1406D02*
X830Y1406D01*
X849Y1406D02*
X978Y1406D01*
X657Y1405D02*
X666Y1405D01*
X678Y1405D02*
X708Y1405D01*
X781Y1405D02*
X830Y1405D01*
X849Y1405D02*
X976Y1405D01*
X657Y1404D02*
X666Y1404D01*
X678Y1404D02*
X709Y1404D01*
X781Y1404D02*
X830Y1404D01*
X849Y1404D02*
X974Y1404D01*
X657Y1403D02*
X666Y1403D01*
X678Y1403D02*
X709Y1403D01*
X781Y1403D02*
X830Y1403D01*
X849Y1403D02*
X972Y1403D01*
X657Y1402D02*
X666Y1402D01*
X678Y1402D02*
X687Y1402D01*
X697Y1402D02*
X710Y1402D01*
X781Y1402D02*
X830Y1402D01*
X849Y1402D02*
X970Y1402D01*
X657Y1401D02*
X666Y1401D01*
X678Y1401D02*
X687Y1401D01*
X699Y1401D02*
X711Y1401D01*
X781Y1401D02*
X830Y1401D01*
X849Y1401D02*
X967Y1401D01*
X657Y1400D02*
X666Y1400D01*
X678Y1400D02*
X687Y1400D01*
X700Y1400D02*
X711Y1400D01*
X781Y1400D02*
X830Y1400D01*
X849Y1400D02*
X965Y1400D01*
X657Y1399D02*
X666Y1399D01*
X678Y1399D02*
X687Y1399D01*
X701Y1399D02*
X712Y1399D01*
X781Y1399D02*
X830Y1399D01*
X849Y1399D02*
X963Y1399D01*
X657Y1398D02*
X666Y1398D01*
X678Y1398D02*
X687Y1398D01*
X702Y1398D02*
X712Y1398D01*
X781Y1398D02*
X830Y1398D01*
X849Y1398D02*
X960Y1398D01*
X657Y1397D02*
X666Y1397D01*
X678Y1397D02*
X687Y1397D01*
X702Y1397D02*
X712Y1397D01*
X781Y1397D02*
X830Y1397D01*
X849Y1397D02*
X958Y1397D01*
X657Y1396D02*
X666Y1396D01*
X678Y1396D02*
X687Y1396D01*
X703Y1396D02*
X712Y1396D01*
X781Y1396D02*
X830Y1396D01*
X849Y1396D02*
X955Y1396D01*
X657Y1395D02*
X666Y1395D01*
X678Y1395D02*
X687Y1395D01*
X703Y1395D02*
X713Y1395D01*
X781Y1395D02*
X830Y1395D01*
X849Y1395D02*
X952Y1395D01*
X657Y1394D02*
X666Y1394D01*
X678Y1394D02*
X687Y1394D01*
X703Y1394D02*
X713Y1394D01*
X781Y1394D02*
X830Y1394D01*
X849Y1394D02*
X950Y1394D01*
X657Y1393D02*
X666Y1393D01*
X678Y1393D02*
X687Y1393D01*
X704Y1393D02*
X713Y1393D01*
X781Y1393D02*
X830Y1393D01*
X849Y1393D02*
X947Y1393D01*
X657Y1392D02*
X666Y1392D01*
X678Y1392D02*
X687Y1392D01*
X704Y1392D02*
X713Y1392D01*
X780Y1392D02*
X830Y1392D01*
X849Y1392D02*
X944Y1392D01*
X657Y1391D02*
X666Y1391D01*
X678Y1391D02*
X687Y1391D01*
X704Y1391D02*
X713Y1391D01*
X780Y1391D02*
X830Y1391D01*
X849Y1391D02*
X941Y1391D01*
X657Y1390D02*
X666Y1390D01*
X678Y1390D02*
X687Y1390D01*
X704Y1390D02*
X713Y1390D01*
X780Y1390D02*
X830Y1390D01*
X849Y1390D02*
X938Y1390D01*
X657Y1389D02*
X666Y1389D01*
X678Y1389D02*
X687Y1389D01*
X704Y1389D02*
X713Y1389D01*
X780Y1389D02*
X830Y1389D01*
X849Y1389D02*
X935Y1389D01*
X657Y1388D02*
X666Y1388D01*
X678Y1388D02*
X687Y1388D01*
X704Y1388D02*
X713Y1388D01*
X780Y1388D02*
X830Y1388D01*
X849Y1388D02*
X932Y1388D01*
X657Y1387D02*
X666Y1387D01*
X678Y1387D02*
X687Y1387D01*
X704Y1387D02*
X713Y1387D01*
X780Y1387D02*
X830Y1387D01*
X849Y1387D02*
X928Y1387D01*
X657Y1386D02*
X666Y1386D01*
X678Y1386D02*
X687Y1386D01*
X704Y1386D02*
X713Y1386D01*
X780Y1386D02*
X830Y1386D01*
X849Y1386D02*
X925Y1386D01*
X657Y1385D02*
X666Y1385D01*
X678Y1385D02*
X687Y1385D01*
X704Y1385D02*
X713Y1385D01*
X780Y1385D02*
X830Y1385D01*
X849Y1385D02*
X921Y1385D01*
X657Y1384D02*
X666Y1384D01*
X678Y1384D02*
X687Y1384D01*
X704Y1384D02*
X713Y1384D01*
X780Y1384D02*
X830Y1384D01*
X849Y1384D02*
X917Y1384D01*
X657Y1383D02*
X666Y1383D01*
X678Y1383D02*
X687Y1383D01*
X704Y1383D02*
X713Y1383D01*
X780Y1383D02*
X830Y1383D01*
X849Y1383D02*
X913Y1383D01*
X657Y1382D02*
X666Y1382D01*
X678Y1382D02*
X687Y1382D01*
X704Y1382D02*
X713Y1382D01*
X780Y1382D02*
X830Y1382D01*
X849Y1382D02*
X909Y1382D01*
X657Y1381D02*
X666Y1381D01*
X678Y1381D02*
X687Y1381D01*
X704Y1381D02*
X713Y1381D01*
X780Y1381D02*
X830Y1381D01*
X849Y1381D02*
X905Y1381D01*
X657Y1380D02*
X666Y1380D01*
X678Y1380D02*
X687Y1380D01*
X703Y1380D02*
X713Y1380D01*
X780Y1380D02*
X830Y1380D01*
X849Y1380D02*
X900Y1380D01*
X657Y1379D02*
X667Y1379D01*
X678Y1379D02*
X687Y1379D01*
X703Y1379D02*
X712Y1379D01*
X780Y1379D02*
X830Y1379D01*
X849Y1379D02*
X895Y1379D01*
X657Y1378D02*
X667Y1378D01*
X678Y1378D02*
X687Y1378D01*
X702Y1378D02*
X712Y1378D01*
X780Y1378D02*
X830Y1378D01*
X849Y1378D02*
X890Y1378D01*
X916Y1378D02*
X918Y1378D01*
X657Y1377D02*
X668Y1377D01*
X678Y1377D02*
X687Y1377D01*
X702Y1377D02*
X712Y1377D01*
X780Y1377D02*
X830Y1377D01*
X849Y1377D02*
X884Y1377D01*
X914Y1377D02*
X920Y1377D01*
X658Y1376D02*
X669Y1376D01*
X678Y1376D02*
X687Y1376D01*
X701Y1376D02*
X712Y1376D01*
X780Y1376D02*
X830Y1376D01*
X849Y1376D02*
X877Y1376D01*
X913Y1376D02*
X921Y1376D01*
X658Y1375D02*
X669Y1375D01*
X678Y1375D02*
X687Y1375D01*
X700Y1375D02*
X711Y1375D01*
X780Y1375D02*
X830Y1375D01*
X849Y1375D02*
X870Y1375D01*
X912Y1375D02*
X922Y1375D01*
X659Y1374D02*
X671Y1374D01*
X678Y1374D02*
X687Y1374D01*
X699Y1374D02*
X711Y1374D01*
X780Y1374D02*
X830Y1374D01*
X849Y1374D02*
X860Y1374D01*
X911Y1374D02*
X924Y1374D01*
X659Y1373D02*
X672Y1373D01*
X678Y1373D02*
X687Y1373D01*
X697Y1373D02*
X710Y1373D01*
X780Y1373D02*
X830Y1373D01*
X910Y1373D02*
X925Y1373D01*
X660Y1372D02*
X709Y1372D01*
X780Y1372D02*
X830Y1372D01*
X909Y1372D02*
X926Y1372D01*
X661Y1371D02*
X709Y1371D01*
X780Y1371D02*
X830Y1371D01*
X908Y1371D02*
X927Y1371D01*
X661Y1370D02*
X708Y1370D01*
X780Y1370D02*
X830Y1370D01*
X907Y1370D02*
X928Y1370D01*
X662Y1369D02*
X707Y1369D01*
X780Y1369D02*
X830Y1369D01*
X907Y1369D02*
X929Y1369D01*
X663Y1368D02*
X706Y1368D01*
X780Y1368D02*
X830Y1368D01*
X906Y1368D02*
X931Y1368D01*
X664Y1367D02*
X705Y1367D01*
X780Y1367D02*
X830Y1367D01*
X905Y1367D02*
X932Y1367D01*
X665Y1366D02*
X704Y1366D01*
X780Y1366D02*
X830Y1366D01*
X905Y1366D02*
X933Y1366D01*
X667Y1365D02*
X703Y1365D01*
X779Y1365D02*
X830Y1365D01*
X904Y1365D02*
X934Y1365D01*
X668Y1364D02*
X701Y1364D01*
X779Y1364D02*
X830Y1364D01*
X903Y1364D02*
X935Y1364D01*
X671Y1363D02*
X698Y1363D01*
X779Y1363D02*
X830Y1363D01*
X903Y1363D02*
X936Y1363D01*
X779Y1362D02*
X830Y1362D01*
X902Y1362D02*
X938Y1362D01*
X779Y1361D02*
X830Y1361D01*
X902Y1361D02*
X939Y1361D01*
X779Y1360D02*
X830Y1360D01*
X901Y1360D02*
X940Y1360D01*
X779Y1359D02*
X830Y1359D01*
X900Y1359D02*
X941Y1359D01*
X779Y1358D02*
X830Y1358D01*
X900Y1358D02*
X943Y1358D01*
X779Y1357D02*
X830Y1357D01*
X899Y1357D02*
X944Y1357D01*
X779Y1356D02*
X830Y1356D01*
X899Y1356D02*
X945Y1356D01*
X779Y1355D02*
X830Y1355D01*
X898Y1355D02*
X946Y1355D01*
X779Y1354D02*
X830Y1354D01*
X897Y1354D02*
X947Y1354D01*
X779Y1353D02*
X830Y1353D01*
X897Y1353D02*
X948Y1353D01*
X779Y1352D02*
X830Y1352D01*
X896Y1352D02*
X949Y1352D01*
X779Y1351D02*
X830Y1351D01*
X896Y1351D02*
X950Y1351D01*
X779Y1350D02*
X830Y1350D01*
X895Y1350D02*
X950Y1350D01*
X779Y1349D02*
X830Y1349D01*
X894Y1349D02*
X951Y1349D01*
X779Y1348D02*
X830Y1348D01*
X894Y1348D02*
X951Y1348D01*
X779Y1347D02*
X830Y1347D01*
X893Y1347D02*
X952Y1347D01*
X779Y1346D02*
X830Y1346D01*
X893Y1346D02*
X951Y1346D01*
X779Y1345D02*
X830Y1345D01*
X892Y1345D02*
X950Y1345D01*
X779Y1344D02*
X830Y1344D01*
X891Y1344D02*
X950Y1344D01*
X779Y1343D02*
X830Y1343D01*
X891Y1343D02*
X949Y1343D01*
X779Y1342D02*
X830Y1342D01*
X890Y1342D02*
X948Y1342D01*
X779Y1341D02*
X830Y1341D01*
X889Y1341D02*
X948Y1341D01*
X1089Y1341D02*
X1090Y1341D01*
X694Y1340D02*
X701Y1340D01*
X779Y1340D02*
X830Y1340D01*
X889Y1340D02*
X947Y1340D01*
X1085Y1340D02*
X1090Y1340D01*
X693Y1339D02*
X704Y1339D01*
X779Y1339D02*
X830Y1339D01*
X888Y1339D02*
X946Y1339D01*
X1081Y1339D02*
X1090Y1339D01*
X692Y1338D02*
X706Y1338D01*
X779Y1338D02*
X830Y1338D01*
X887Y1338D02*
X946Y1338D01*
X1078Y1338D02*
X1090Y1338D01*
X691Y1337D02*
X707Y1337D01*
X779Y1337D02*
X830Y1337D01*
X886Y1337D02*
X945Y1337D01*
X1074Y1337D02*
X1090Y1337D01*
X691Y1336D02*
X708Y1336D01*
X779Y1336D02*
X830Y1336D01*
X886Y1336D02*
X944Y1336D01*
X1071Y1336D02*
X1090Y1336D01*
X691Y1335D02*
X709Y1335D01*
X779Y1335D02*
X830Y1335D01*
X885Y1335D02*
X943Y1335D01*
X1067Y1335D02*
X1090Y1335D01*
X691Y1334D02*
X710Y1334D01*
X779Y1334D02*
X830Y1334D01*
X884Y1334D02*
X943Y1334D01*
X1064Y1334D02*
X1090Y1334D01*
X691Y1333D02*
X710Y1333D01*
X779Y1333D02*
X830Y1333D01*
X883Y1333D02*
X942Y1333D01*
X1061Y1333D02*
X1090Y1333D01*
X692Y1332D02*
X711Y1332D01*
X779Y1332D02*
X830Y1332D01*
X883Y1332D02*
X941Y1332D01*
X1058Y1332D02*
X1090Y1332D01*
X693Y1331D02*
X711Y1331D01*
X779Y1331D02*
X830Y1331D01*
X882Y1331D02*
X940Y1331D01*
X1055Y1331D02*
X1090Y1331D01*
X700Y1330D02*
X712Y1330D01*
X779Y1330D02*
X830Y1330D01*
X881Y1330D02*
X940Y1330D01*
X1052Y1330D02*
X1090Y1330D01*
X702Y1329D02*
X712Y1329D01*
X780Y1329D02*
X830Y1329D01*
X880Y1329D02*
X939Y1329D01*
X1048Y1329D02*
X1090Y1329D01*
X703Y1328D02*
X712Y1328D01*
X780Y1328D02*
X830Y1328D01*
X879Y1328D02*
X938Y1328D01*
X1045Y1328D02*
X1090Y1328D01*
X703Y1327D02*
X712Y1327D01*
X780Y1327D02*
X830Y1327D01*
X878Y1327D02*
X937Y1327D01*
X1042Y1327D02*
X1090Y1327D01*
X703Y1326D02*
X713Y1326D01*
X780Y1326D02*
X830Y1326D01*
X878Y1326D02*
X937Y1326D01*
X1039Y1326D02*
X1090Y1326D01*
X704Y1325D02*
X713Y1325D01*
X780Y1325D02*
X830Y1325D01*
X877Y1325D02*
X936Y1325D01*
X1036Y1325D02*
X1090Y1325D01*
X704Y1324D02*
X713Y1324D01*
X780Y1324D02*
X830Y1324D01*
X876Y1324D02*
X935Y1324D01*
X1034Y1324D02*
X1090Y1324D01*
X704Y1323D02*
X713Y1323D01*
X780Y1323D02*
X830Y1323D01*
X875Y1323D02*
X934Y1323D01*
X1031Y1323D02*
X1090Y1323D01*
X704Y1322D02*
X713Y1322D01*
X780Y1322D02*
X830Y1322D01*
X874Y1322D02*
X934Y1322D01*
X1028Y1322D02*
X1090Y1322D01*
X704Y1321D02*
X713Y1321D01*
X780Y1321D02*
X830Y1321D01*
X874Y1321D02*
X933Y1321D01*
X1025Y1321D02*
X1090Y1321D01*
X704Y1320D02*
X713Y1320D01*
X780Y1320D02*
X830Y1320D01*
X873Y1320D02*
X932Y1320D01*
X1022Y1320D02*
X1090Y1320D01*
X704Y1319D02*
X713Y1319D01*
X780Y1319D02*
X830Y1319D01*
X872Y1319D02*
X931Y1319D01*
X1019Y1319D02*
X1090Y1319D01*
X704Y1318D02*
X713Y1318D01*
X781Y1318D02*
X830Y1318D01*
X871Y1318D02*
X931Y1318D01*
X1016Y1318D02*
X1090Y1318D01*
X703Y1317D02*
X713Y1317D01*
X781Y1317D02*
X832Y1317D01*
X870Y1317D02*
X930Y1317D01*
X1013Y1317D02*
X1090Y1317D01*
X702Y1316D02*
X713Y1316D01*
X781Y1316D02*
X835Y1316D01*
X870Y1316D02*
X929Y1316D01*
X1010Y1316D02*
X1090Y1316D01*
X702Y1315D02*
X713Y1315D01*
X781Y1315D02*
X838Y1315D01*
X869Y1315D02*
X928Y1315D01*
X1008Y1315D02*
X1090Y1315D01*
X701Y1314D02*
X712Y1314D01*
X781Y1314D02*
X840Y1314D01*
X868Y1314D02*
X928Y1314D01*
X1005Y1314D02*
X1090Y1314D01*
X700Y1313D02*
X712Y1313D01*
X781Y1313D02*
X842Y1313D01*
X867Y1313D02*
X927Y1313D01*
X1002Y1313D02*
X1090Y1313D01*
X699Y1312D02*
X711Y1312D01*
X781Y1312D02*
X845Y1312D01*
X867Y1312D02*
X926Y1312D01*
X999Y1312D02*
X1090Y1312D01*
X698Y1311D02*
X711Y1311D01*
X782Y1311D02*
X847Y1311D01*
X866Y1311D02*
X925Y1311D01*
X996Y1311D02*
X1090Y1311D01*
X697Y1310D02*
X710Y1310D01*
X782Y1310D02*
X849Y1310D01*
X865Y1310D02*
X925Y1310D01*
X993Y1310D02*
X1090Y1310D01*
X696Y1309D02*
X709Y1309D01*
X782Y1309D02*
X851Y1309D01*
X865Y1309D02*
X924Y1309D01*
X990Y1309D02*
X1090Y1309D01*
X696Y1308D02*
X708Y1308D01*
X782Y1308D02*
X853Y1308D01*
X864Y1308D02*
X923Y1308D01*
X988Y1308D02*
X1090Y1308D01*
X695Y1307D02*
X707Y1307D01*
X783Y1307D02*
X855Y1307D01*
X864Y1307D02*
X922Y1307D01*
X985Y1307D02*
X1090Y1307D01*
X694Y1306D02*
X706Y1306D01*
X783Y1306D02*
X858Y1306D01*
X863Y1306D02*
X922Y1306D01*
X982Y1306D02*
X1090Y1306D01*
X693Y1305D02*
X705Y1305D01*
X783Y1305D02*
X921Y1305D01*
X979Y1305D02*
X1090Y1305D01*
X692Y1304D02*
X705Y1304D01*
X783Y1304D02*
X920Y1304D01*
X976Y1304D02*
X1090Y1304D01*
X691Y1303D02*
X704Y1303D01*
X784Y1303D02*
X920Y1303D01*
X973Y1303D02*
X1090Y1303D01*
X690Y1302D02*
X703Y1302D01*
X784Y1302D02*
X919Y1302D01*
X970Y1302D02*
X1090Y1302D01*
X690Y1301D02*
X702Y1301D01*
X784Y1301D02*
X918Y1301D01*
X967Y1301D02*
X1090Y1301D01*
X660Y1300D02*
X710Y1300D01*
X785Y1300D02*
X917Y1300D01*
X964Y1300D02*
X1090Y1300D01*
X658Y1299D02*
X711Y1299D01*
X785Y1299D02*
X917Y1299D01*
X962Y1299D02*
X1090Y1299D01*
X658Y1298D02*
X712Y1298D01*
X785Y1298D02*
X916Y1298D01*
X959Y1298D02*
X1090Y1298D01*
X657Y1297D02*
X712Y1297D01*
X786Y1297D02*
X916Y1297D01*
X956Y1297D02*
X1090Y1297D01*
X657Y1296D02*
X713Y1296D01*
X786Y1296D02*
X915Y1296D01*
X953Y1296D02*
X1090Y1296D01*
X657Y1295D02*
X713Y1295D01*
X787Y1295D02*
X914Y1295D01*
X950Y1295D02*
X1090Y1295D01*
X657Y1294D02*
X712Y1294D01*
X787Y1294D02*
X914Y1294D01*
X947Y1294D02*
X1090Y1294D01*
X658Y1293D02*
X712Y1293D01*
X788Y1293D02*
X913Y1293D01*
X943Y1293D02*
X1089Y1293D01*
X658Y1292D02*
X711Y1292D01*
X788Y1292D02*
X912Y1292D01*
X940Y1292D02*
X1086Y1292D01*
X660Y1291D02*
X710Y1291D01*
X789Y1291D02*
X912Y1291D01*
X937Y1291D02*
X1083Y1291D01*
X790Y1290D02*
X911Y1290D01*
X934Y1290D02*
X1081Y1290D01*
X790Y1289D02*
X911Y1289D01*
X931Y1289D02*
X1078Y1289D01*
X791Y1288D02*
X910Y1288D01*
X927Y1288D02*
X1075Y1288D01*
X792Y1287D02*
X910Y1287D01*
X924Y1287D02*
X1073Y1287D01*
X793Y1286D02*
X909Y1286D01*
X920Y1286D02*
X1070Y1286D01*
X794Y1285D02*
X909Y1285D01*
X917Y1285D02*
X1068Y1285D01*
X795Y1284D02*
X908Y1284D01*
X913Y1284D02*
X1065Y1284D01*
X797Y1283D02*
X908Y1283D01*
X910Y1283D02*
X1062Y1283D01*
X798Y1282D02*
X1059Y1282D01*
X799Y1281D02*
X1056Y1281D01*
X801Y1280D02*
X1053Y1280D01*
X803Y1279D02*
X1051Y1279D01*
X804Y1278D02*
X1048Y1278D01*
X806Y1277D02*
X1045Y1277D01*
X808Y1276D02*
X1042Y1276D01*
X810Y1275D02*
X1039Y1275D01*
X812Y1274D02*
X1036Y1274D01*
X814Y1273D02*
X1033Y1273D01*
X816Y1272D02*
X1030Y1272D01*
X818Y1271D02*
X1027Y1271D01*
X820Y1270D02*
X1024Y1270D01*
X823Y1269D02*
X1021Y1269D01*
X825Y1268D02*
X1018Y1268D01*
X827Y1267D02*
X1015Y1267D01*
X828Y1266D02*
X1012Y1266D01*
X830Y1265D02*
X1009Y1265D01*
X832Y1264D02*
X1006Y1264D01*
X833Y1263D02*
X1003Y1263D01*
X835Y1262D02*
X1000Y1262D01*
X836Y1261D02*
X997Y1261D01*
X836Y1260D02*
X994Y1260D01*
X834Y1259D02*
X991Y1259D01*
X832Y1258D02*
X988Y1258D01*
X829Y1257D02*
X985Y1257D01*
X827Y1256D02*
X982Y1256D01*
X825Y1255D02*
X979Y1255D01*
X822Y1254D02*
X976Y1254D01*
X819Y1253D02*
X972Y1253D01*
X817Y1252D02*
X969Y1252D01*
X814Y1251D02*
X966Y1251D01*
X811Y1250D02*
X964Y1250D01*
X808Y1249D02*
X961Y1249D01*
X805Y1248D02*
X958Y1248D01*
X802Y1247D02*
X955Y1247D01*
X799Y1246D02*
X952Y1246D01*
X796Y1245D02*
X949Y1245D01*
X793Y1244D02*
X946Y1244D01*
X790Y1243D02*
X943Y1243D01*
X787Y1242D02*
X940Y1242D01*
X784Y1241D02*
X938Y1241D01*
X781Y1240D02*
X935Y1240D01*
X781Y1239D02*
X932Y1239D01*
X781Y1238D02*
X929Y1238D01*
X781Y1237D02*
X927Y1237D01*
X781Y1236D02*
X924Y1236D01*
X781Y1235D02*
X921Y1235D01*
X781Y1234D02*
X918Y1234D01*
X781Y1233D02*
X916Y1233D01*
X781Y1232D02*
X913Y1232D01*
X781Y1231D02*
X911Y1231D01*
X781Y1230D02*
X908Y1230D01*
X781Y1229D02*
X906Y1229D01*
X781Y1228D02*
X903Y1228D01*
X781Y1227D02*
X901Y1227D01*
X781Y1226D02*
X898Y1226D01*
X781Y1225D02*
X896Y1225D01*
X781Y1224D02*
X896Y1224D01*
X781Y1223D02*
X896Y1223D01*
X781Y1222D02*
X896Y1222D01*
X781Y1221D02*
X895Y1221D01*
X781Y1220D02*
X895Y1220D01*
X781Y1219D02*
X895Y1219D01*
X781Y1218D02*
X895Y1218D01*
X781Y1217D02*
X895Y1217D01*
X781Y1216D02*
X895Y1216D01*
X781Y1215D02*
X895Y1215D01*
X781Y1214D02*
X895Y1214D01*
X781Y1213D02*
X895Y1213D01*
X781Y1212D02*
X895Y1212D01*
X781Y1211D02*
X895Y1211D01*
X781Y1210D02*
X842Y1210D01*
X846Y1210D02*
X895Y1210D01*
X781Y1209D02*
X838Y1209D01*
X846Y1209D02*
X895Y1209D01*
X781Y1208D02*
X834Y1208D01*
X846Y1208D02*
X895Y1208D01*
X781Y1207D02*
X831Y1207D01*
X846Y1207D02*
X895Y1207D01*
X781Y1206D02*
X828Y1206D01*
X846Y1206D02*
X895Y1206D01*
X781Y1205D02*
X825Y1205D01*
X846Y1205D02*
X895Y1205D01*
X781Y1204D02*
X822Y1204D01*
X847Y1204D02*
X895Y1204D01*
X781Y1203D02*
X819Y1203D01*
X846Y1203D02*
X895Y1203D01*
X781Y1202D02*
X816Y1202D01*
X846Y1202D02*
X895Y1202D01*
X781Y1201D02*
X814Y1201D01*
X846Y1201D02*
X895Y1201D01*
X781Y1200D02*
X811Y1200D01*
X846Y1200D02*
X895Y1200D01*
X781Y1199D02*
X808Y1199D01*
X846Y1199D02*
X895Y1199D01*
X781Y1198D02*
X805Y1198D01*
X845Y1198D02*
X895Y1198D01*
X781Y1197D02*
X802Y1197D01*
X845Y1197D02*
X895Y1197D01*
X670Y1196D02*
X674Y1196D01*
X781Y1196D02*
X799Y1196D01*
X844Y1196D02*
X895Y1196D01*
X666Y1195D02*
X677Y1195D01*
X703Y1195D02*
X705Y1195D01*
X781Y1195D02*
X795Y1195D01*
X843Y1195D02*
X895Y1195D01*
X664Y1194D02*
X679Y1194D01*
X701Y1194D02*
X707Y1194D01*
X781Y1194D02*
X791Y1194D01*
X843Y1194D02*
X895Y1194D01*
X663Y1193D02*
X680Y1193D01*
X700Y1193D02*
X708Y1193D01*
X781Y1193D02*
X786Y1193D01*
X841Y1193D02*
X895Y1193D01*
X662Y1192D02*
X682Y1192D01*
X700Y1192D02*
X709Y1192D01*
X840Y1192D02*
X895Y1192D01*
X661Y1191D02*
X683Y1191D01*
X699Y1191D02*
X710Y1191D01*
X838Y1191D02*
X895Y1191D01*
X660Y1190D02*
X683Y1190D01*
X699Y1190D02*
X710Y1190D01*
X837Y1190D02*
X895Y1190D01*
X659Y1189D02*
X684Y1189D01*
X699Y1189D02*
X711Y1189D01*
X835Y1189D02*
X897Y1189D01*
X659Y1188D02*
X685Y1188D01*
X700Y1188D02*
X711Y1188D01*
X833Y1188D02*
X898Y1188D01*
X658Y1187D02*
X685Y1187D01*
X701Y1187D02*
X712Y1187D01*
X830Y1187D02*
X900Y1187D01*
X658Y1186D02*
X686Y1186D01*
X701Y1186D02*
X712Y1186D01*
X828Y1186D02*
X901Y1186D01*
X657Y1185D02*
X668Y1185D01*
X675Y1185D02*
X686Y1185D01*
X702Y1185D02*
X712Y1185D01*
X826Y1185D02*
X903Y1185D01*
X657Y1184D02*
X667Y1184D01*
X676Y1184D02*
X687Y1184D01*
X703Y1184D02*
X712Y1184D01*
X824Y1184D02*
X905Y1184D01*
X657Y1183D02*
X666Y1183D01*
X677Y1183D02*
X687Y1183D01*
X703Y1183D02*
X713Y1183D01*
X822Y1183D02*
X906Y1183D01*
X657Y1182D02*
X666Y1182D01*
X677Y1182D02*
X687Y1182D01*
X704Y1182D02*
X713Y1182D01*
X821Y1182D02*
X908Y1182D01*
X657Y1181D02*
X666Y1181D01*
X678Y1181D02*
X688Y1181D01*
X704Y1181D02*
X713Y1181D01*
X819Y1181D02*
X909Y1181D01*
X657Y1180D02*
X666Y1180D01*
X678Y1180D02*
X688Y1180D01*
X704Y1180D02*
X713Y1180D01*
X818Y1180D02*
X911Y1180D01*
X657Y1179D02*
X666Y1179D01*
X679Y1179D02*
X689Y1179D01*
X704Y1179D02*
X713Y1179D01*
X816Y1179D02*
X912Y1179D01*
X657Y1178D02*
X666Y1178D01*
X679Y1178D02*
X689Y1178D01*
X704Y1178D02*
X713Y1178D01*
X815Y1178D02*
X914Y1178D01*
X657Y1177D02*
X666Y1177D01*
X680Y1177D02*
X690Y1177D01*
X704Y1177D02*
X713Y1177D01*
X813Y1177D02*
X915Y1177D01*
X657Y1176D02*
X666Y1176D01*
X680Y1176D02*
X690Y1176D01*
X704Y1176D02*
X713Y1176D01*
X812Y1176D02*
X916Y1176D01*
X657Y1175D02*
X666Y1175D01*
X681Y1175D02*
X690Y1175D01*
X704Y1175D02*
X713Y1175D01*
X810Y1175D02*
X918Y1175D01*
X657Y1174D02*
X666Y1174D01*
X681Y1174D02*
X691Y1174D01*
X704Y1174D02*
X713Y1174D01*
X809Y1174D02*
X919Y1174D01*
X657Y1173D02*
X666Y1173D01*
X681Y1173D02*
X691Y1173D01*
X704Y1173D02*
X713Y1173D01*
X808Y1173D02*
X920Y1173D01*
X657Y1172D02*
X666Y1172D01*
X682Y1172D02*
X692Y1172D01*
X704Y1172D02*
X713Y1172D01*
X807Y1172D02*
X921Y1172D01*
X657Y1171D02*
X666Y1171D01*
X682Y1171D02*
X692Y1171D01*
X704Y1171D02*
X713Y1171D01*
X805Y1171D02*
X922Y1171D01*
X657Y1170D02*
X666Y1170D01*
X683Y1170D02*
X693Y1170D01*
X704Y1170D02*
X713Y1170D01*
X804Y1170D02*
X923Y1170D01*
X657Y1169D02*
X666Y1169D01*
X683Y1169D02*
X693Y1169D01*
X704Y1169D02*
X713Y1169D01*
X803Y1169D02*
X923Y1169D01*
X657Y1168D02*
X666Y1168D01*
X684Y1168D02*
X693Y1168D01*
X704Y1168D02*
X713Y1168D01*
X802Y1168D02*
X924Y1168D01*
X657Y1167D02*
X666Y1167D01*
X684Y1167D02*
X694Y1167D01*
X704Y1167D02*
X713Y1167D01*
X801Y1167D02*
X925Y1167D01*
X657Y1166D02*
X666Y1166D01*
X684Y1166D02*
X694Y1166D01*
X704Y1166D02*
X713Y1166D01*
X800Y1166D02*
X926Y1166D01*
X657Y1165D02*
X666Y1165D01*
X685Y1165D02*
X695Y1165D01*
X704Y1165D02*
X713Y1165D01*
X799Y1165D02*
X926Y1165D01*
X657Y1164D02*
X666Y1164D01*
X685Y1164D02*
X695Y1164D01*
X704Y1164D02*
X713Y1164D01*
X798Y1164D02*
X927Y1164D01*
X657Y1163D02*
X666Y1163D01*
X686Y1163D02*
X696Y1163D01*
X704Y1163D02*
X713Y1163D01*
X797Y1163D02*
X927Y1163D01*
X657Y1162D02*
X666Y1162D01*
X686Y1162D02*
X696Y1162D01*
X704Y1162D02*
X713Y1162D01*
X796Y1162D02*
X928Y1162D01*
X657Y1161D02*
X666Y1161D01*
X687Y1161D02*
X697Y1161D01*
X704Y1161D02*
X713Y1161D01*
X795Y1161D02*
X929Y1161D01*
X657Y1160D02*
X666Y1160D01*
X687Y1160D02*
X697Y1160D01*
X703Y1160D02*
X713Y1160D01*
X794Y1160D02*
X929Y1160D01*
X657Y1159D02*
X666Y1159D01*
X687Y1159D02*
X697Y1159D01*
X703Y1159D02*
X712Y1159D01*
X793Y1159D02*
X930Y1159D01*
X657Y1158D02*
X667Y1158D01*
X688Y1158D02*
X698Y1158D01*
X702Y1158D02*
X712Y1158D01*
X792Y1158D02*
X930Y1158D01*
X658Y1157D02*
X668Y1157D01*
X688Y1157D02*
X712Y1157D01*
X791Y1157D02*
X931Y1157D01*
X658Y1156D02*
X668Y1156D01*
X689Y1156D02*
X712Y1156D01*
X790Y1156D02*
X931Y1156D01*
X658Y1155D02*
X669Y1155D01*
X689Y1155D02*
X711Y1155D01*
X789Y1155D02*
X932Y1155D01*
X659Y1154D02*
X669Y1154D01*
X690Y1154D02*
X711Y1154D01*
X788Y1154D02*
X932Y1154D01*
X659Y1153D02*
X670Y1153D01*
X690Y1153D02*
X710Y1153D01*
X788Y1153D02*
X932Y1153D01*
X660Y1152D02*
X670Y1152D01*
X691Y1152D02*
X709Y1152D01*
X787Y1152D02*
X933Y1152D01*
X660Y1151D02*
X670Y1151D01*
X692Y1151D02*
X708Y1151D01*
X786Y1151D02*
X933Y1151D01*
X661Y1150D02*
X670Y1150D01*
X694Y1150D02*
X707Y1150D01*
X786Y1150D02*
X933Y1150D01*
X662Y1149D02*
X669Y1149D01*
X695Y1149D02*
X706Y1149D01*
X785Y1149D02*
X934Y1149D01*
X663Y1148D02*
X669Y1148D01*
X699Y1148D02*
X703Y1148D01*
X784Y1148D02*
X934Y1148D01*
X664Y1147D02*
X667Y1147D01*
X784Y1147D02*
X934Y1147D01*
X783Y1146D02*
X935Y1146D01*
X783Y1145D02*
X935Y1145D01*
X782Y1144D02*
X935Y1144D01*
X781Y1143D02*
X935Y1143D01*
X781Y1142D02*
X936Y1142D01*
X780Y1141D02*
X936Y1141D01*
X780Y1140D02*
X936Y1140D01*
X780Y1139D02*
X936Y1139D01*
X779Y1138D02*
X936Y1138D01*
X779Y1137D02*
X936Y1137D01*
X778Y1136D02*
X844Y1136D01*
X848Y1136D02*
X936Y1136D01*
X778Y1135D02*
X841Y1135D01*
X848Y1135D02*
X937Y1135D01*
X778Y1134D02*
X839Y1134D01*
X848Y1134D02*
X937Y1134D01*
X777Y1133D02*
X837Y1133D01*
X848Y1133D02*
X937Y1133D01*
X777Y1132D02*
X836Y1132D01*
X848Y1132D02*
X937Y1132D01*
X777Y1131D02*
X835Y1131D01*
X848Y1131D02*
X937Y1131D01*
X777Y1130D02*
X833Y1130D01*
X848Y1130D02*
X937Y1130D01*
X776Y1129D02*
X832Y1129D01*
X848Y1129D02*
X937Y1129D01*
X776Y1128D02*
X831Y1128D01*
X849Y1128D02*
X937Y1128D01*
X776Y1127D02*
X831Y1127D01*
X849Y1127D02*
X937Y1127D01*
X776Y1126D02*
X830Y1126D01*
X849Y1126D02*
X937Y1126D01*
X775Y1125D02*
X829Y1125D01*
X850Y1125D02*
X937Y1125D01*
X668Y1124D02*
X671Y1124D01*
X775Y1124D02*
X828Y1124D01*
X850Y1124D02*
X937Y1124D01*
X666Y1123D02*
X673Y1123D01*
X775Y1123D02*
X828Y1123D01*
X851Y1123D02*
X937Y1123D01*
X664Y1122D02*
X673Y1122D01*
X775Y1122D02*
X827Y1122D01*
X851Y1122D02*
X937Y1122D01*
X663Y1121D02*
X674Y1121D01*
X775Y1121D02*
X827Y1121D01*
X852Y1121D02*
X937Y1121D01*
X662Y1120D02*
X674Y1120D01*
X775Y1120D02*
X826Y1120D01*
X853Y1120D02*
X937Y1120D01*
X661Y1119D02*
X674Y1119D01*
X707Y1119D02*
X709Y1119D01*
X774Y1119D02*
X826Y1119D01*
X854Y1119D02*
X937Y1119D01*
X660Y1118D02*
X674Y1118D01*
X705Y1118D02*
X711Y1118D01*
X774Y1118D02*
X825Y1118D01*
X855Y1118D02*
X937Y1118D01*
X659Y1117D02*
X674Y1117D01*
X704Y1117D02*
X712Y1117D01*
X774Y1117D02*
X825Y1117D01*
X856Y1117D02*
X936Y1117D01*
X659Y1116D02*
X673Y1116D01*
X704Y1116D02*
X712Y1116D01*
X774Y1116D02*
X825Y1116D01*
X857Y1116D02*
X936Y1116D01*
X658Y1115D02*
X672Y1115D01*
X704Y1115D02*
X712Y1115D01*
X774Y1115D02*
X825Y1115D01*
X858Y1115D02*
X936Y1115D01*
X658Y1114D02*
X670Y1114D01*
X704Y1114D02*
X713Y1114D01*
X774Y1114D02*
X824Y1114D01*
X860Y1114D02*
X936Y1114D01*
X657Y1113D02*
X668Y1113D01*
X704Y1113D02*
X713Y1113D01*
X774Y1113D02*
X824Y1113D01*
X862Y1113D02*
X936Y1113D01*
X657Y1112D02*
X667Y1112D01*
X704Y1112D02*
X713Y1112D01*
X774Y1112D02*
X824Y1112D01*
X863Y1112D02*
X936Y1112D01*
X657Y1111D02*
X666Y1111D01*
X704Y1111D02*
X713Y1111D01*
X774Y1111D02*
X824Y1111D01*
X865Y1111D02*
X935Y1111D01*
X657Y1110D02*
X666Y1110D01*
X704Y1110D02*
X713Y1110D01*
X774Y1110D02*
X824Y1110D01*
X867Y1110D02*
X935Y1110D01*
X657Y1109D02*
X666Y1109D01*
X704Y1109D02*
X713Y1109D01*
X774Y1109D02*
X824Y1109D01*
X869Y1109D02*
X935Y1109D01*
X657Y1108D02*
X666Y1108D01*
X704Y1108D02*
X713Y1108D01*
X774Y1108D02*
X824Y1108D01*
X872Y1108D02*
X935Y1108D01*
X657Y1107D02*
X666Y1107D01*
X704Y1107D02*
X713Y1107D01*
X774Y1107D02*
X824Y1107D01*
X874Y1107D02*
X935Y1107D01*
X657Y1106D02*
X666Y1106D01*
X704Y1106D02*
X713Y1106D01*
X774Y1106D02*
X824Y1106D01*
X876Y1106D02*
X934Y1106D01*
X657Y1105D02*
X666Y1105D01*
X704Y1105D02*
X713Y1105D01*
X774Y1105D02*
X824Y1105D01*
X878Y1105D02*
X934Y1105D01*
X657Y1104D02*
X666Y1104D01*
X704Y1104D02*
X713Y1104D01*
X774Y1104D02*
X824Y1104D01*
X880Y1104D02*
X934Y1104D01*
X657Y1103D02*
X666Y1103D01*
X704Y1103D02*
X713Y1103D01*
X774Y1103D02*
X824Y1103D01*
X881Y1103D02*
X934Y1103D01*
X657Y1102D02*
X666Y1102D01*
X704Y1102D02*
X713Y1102D01*
X774Y1102D02*
X824Y1102D01*
X880Y1102D02*
X933Y1102D01*
X657Y1101D02*
X666Y1101D01*
X704Y1101D02*
X713Y1101D01*
X774Y1101D02*
X825Y1101D01*
X879Y1101D02*
X933Y1101D01*
X657Y1100D02*
X666Y1100D01*
X704Y1100D02*
X713Y1100D01*
X774Y1100D02*
X825Y1100D01*
X879Y1100D02*
X933Y1100D01*
X657Y1099D02*
X666Y1099D01*
X704Y1099D02*
X713Y1099D01*
X774Y1099D02*
X825Y1099D01*
X878Y1099D02*
X933Y1099D01*
X657Y1098D02*
X666Y1098D01*
X704Y1098D02*
X713Y1098D01*
X774Y1098D02*
X826Y1098D01*
X877Y1098D02*
X932Y1098D01*
X657Y1097D02*
X667Y1097D01*
X704Y1097D02*
X713Y1097D01*
X774Y1097D02*
X826Y1097D01*
X876Y1097D02*
X932Y1097D01*
X657Y1096D02*
X667Y1096D01*
X704Y1096D02*
X713Y1096D01*
X774Y1096D02*
X827Y1096D01*
X875Y1096D02*
X931Y1096D01*
X658Y1095D02*
X669Y1095D01*
X704Y1095D02*
X713Y1095D01*
X775Y1095D02*
X827Y1095D01*
X874Y1095D02*
X931Y1095D01*
X658Y1094D02*
X727Y1094D01*
X775Y1094D02*
X828Y1094D01*
X872Y1094D02*
X931Y1094D01*
X658Y1093D02*
X728Y1093D01*
X775Y1093D02*
X829Y1093D01*
X871Y1093D02*
X930Y1093D01*
X659Y1092D02*
X729Y1092D01*
X775Y1092D02*
X830Y1092D01*
X869Y1092D02*
X930Y1092D01*
X659Y1091D02*
X729Y1091D01*
X775Y1091D02*
X831Y1091D01*
X867Y1091D02*
X930Y1091D01*
X660Y1090D02*
X730Y1090D01*
X776Y1090D02*
X832Y1090D01*
X865Y1090D02*
X929Y1090D01*
X661Y1089D02*
X730Y1089D01*
X776Y1089D02*
X834Y1089D01*
X862Y1089D02*
X929Y1089D01*
X662Y1088D02*
X729Y1088D01*
X776Y1088D02*
X836Y1088D01*
X859Y1088D02*
X928Y1088D01*
X664Y1087D02*
X729Y1087D01*
X776Y1087D02*
X840Y1087D01*
X855Y1087D02*
X928Y1087D01*
X665Y1086D02*
X728Y1086D01*
X777Y1086D02*
X927Y1086D01*
X668Y1085D02*
X727Y1085D01*
X777Y1085D02*
X927Y1085D01*
X703Y1084D02*
X713Y1084D01*
X777Y1084D02*
X927Y1084D01*
X704Y1083D02*
X713Y1083D01*
X778Y1083D02*
X926Y1083D01*
X704Y1082D02*
X713Y1082D01*
X778Y1082D02*
X926Y1082D01*
X704Y1081D02*
X713Y1081D01*
X778Y1081D02*
X925Y1081D01*
X704Y1080D02*
X713Y1080D01*
X779Y1080D02*
X924Y1080D01*
X704Y1079D02*
X713Y1079D01*
X779Y1079D02*
X924Y1079D01*
X704Y1078D02*
X712Y1078D01*
X779Y1078D02*
X923Y1078D01*
X704Y1077D02*
X712Y1077D01*
X780Y1077D02*
X923Y1077D01*
X705Y1076D02*
X711Y1076D01*
X780Y1076D02*
X922Y1076D01*
X706Y1075D02*
X710Y1075D01*
X781Y1075D02*
X922Y1075D01*
X781Y1074D02*
X921Y1074D01*
X782Y1073D02*
X920Y1073D01*
X782Y1072D02*
X920Y1072D01*
X783Y1071D02*
X919Y1071D01*
X783Y1070D02*
X918Y1070D01*
X784Y1069D02*
X918Y1069D01*
X785Y1068D02*
X917Y1068D01*
X785Y1067D02*
X916Y1067D01*
X786Y1066D02*
X916Y1066D01*
X787Y1065D02*
X915Y1065D01*
X787Y1064D02*
X914Y1064D01*
X788Y1063D02*
X913Y1063D01*
X789Y1062D02*
X912Y1062D01*
X790Y1061D02*
X912Y1061D01*
X790Y1060D02*
X911Y1060D01*
X791Y1059D02*
X910Y1059D01*
X792Y1058D02*
X909Y1058D01*
X793Y1057D02*
X908Y1057D01*
X794Y1056D02*
X907Y1056D01*
X795Y1055D02*
X906Y1055D01*
X796Y1054D02*
X905Y1054D01*
X797Y1053D02*
X904Y1053D01*
X661Y1052D02*
X668Y1052D01*
X798Y1052D02*
X902Y1052D01*
X659Y1051D02*
X698Y1051D01*
X800Y1051D02*
X901Y1051D01*
X658Y1050D02*
X703Y1050D01*
X801Y1050D02*
X900Y1050D01*
X657Y1049D02*
X705Y1049D01*
X802Y1049D02*
X899Y1049D01*
X657Y1048D02*
X707Y1048D01*
X804Y1048D02*
X897Y1048D01*
X657Y1047D02*
X708Y1047D01*
X805Y1047D02*
X896Y1047D01*
X657Y1046D02*
X709Y1046D01*
X807Y1046D02*
X895Y1046D01*
X657Y1045D02*
X710Y1045D01*
X808Y1045D02*
X895Y1045D01*
X658Y1044D02*
X710Y1044D01*
X810Y1044D02*
X895Y1044D01*
X659Y1043D02*
X711Y1043D01*
X812Y1043D02*
X895Y1043D01*
X668Y1042D02*
X711Y1042D01*
X814Y1042D02*
X895Y1042D01*
X697Y1041D02*
X712Y1041D01*
X817Y1041D02*
X895Y1041D01*
X701Y1040D02*
X712Y1040D01*
X819Y1040D02*
X895Y1040D01*
X702Y1039D02*
X712Y1039D01*
X822Y1039D02*
X895Y1039D01*
X703Y1038D02*
X712Y1038D01*
X825Y1038D02*
X895Y1038D01*
X703Y1037D02*
X713Y1037D01*
X829Y1037D02*
X895Y1037D01*
X704Y1036D02*
X713Y1036D01*
X835Y1036D02*
X895Y1036D01*
X704Y1035D02*
X713Y1035D01*
X844Y1035D02*
X895Y1035D01*
X704Y1034D02*
X713Y1034D01*
X844Y1034D02*
X895Y1034D01*
X704Y1033D02*
X713Y1033D01*
X844Y1033D02*
X895Y1033D01*
X704Y1032D02*
X713Y1032D01*
X844Y1032D02*
X895Y1032D01*
X704Y1031D02*
X713Y1031D01*
X844Y1031D02*
X895Y1031D01*
X704Y1030D02*
X713Y1030D01*
X844Y1030D02*
X895Y1030D01*
X703Y1029D02*
X713Y1029D01*
X844Y1029D02*
X895Y1029D01*
X703Y1028D02*
X712Y1028D01*
X844Y1028D02*
X895Y1028D01*
X702Y1027D02*
X712Y1027D01*
X844Y1027D02*
X895Y1027D01*
X702Y1026D02*
X712Y1026D01*
X844Y1026D02*
X895Y1026D01*
X701Y1025D02*
X712Y1025D01*
X844Y1025D02*
X895Y1025D01*
X700Y1024D02*
X711Y1024D01*
X844Y1024D02*
X895Y1024D01*
X700Y1023D02*
X711Y1023D01*
X844Y1023D02*
X895Y1023D01*
X699Y1022D02*
X710Y1022D01*
X844Y1022D02*
X895Y1022D01*
X698Y1021D02*
X709Y1021D01*
X844Y1021D02*
X895Y1021D01*
X698Y1020D02*
X709Y1020D01*
X844Y1020D02*
X895Y1020D01*
X697Y1019D02*
X708Y1019D01*
X844Y1019D02*
X895Y1019D01*
X696Y1018D02*
X708Y1018D01*
X842Y1018D02*
X895Y1018D01*
X696Y1017D02*
X707Y1017D01*
X838Y1017D02*
X895Y1017D01*
X695Y1016D02*
X706Y1016D01*
X835Y1016D02*
X895Y1016D01*
X695Y1015D02*
X706Y1015D01*
X832Y1015D02*
X895Y1015D01*
X694Y1014D02*
X705Y1014D01*
X829Y1014D02*
X895Y1014D01*
X693Y1013D02*
X704Y1013D01*
X827Y1013D02*
X895Y1013D01*
X660Y1012D02*
X731Y1012D01*
X825Y1012D02*
X895Y1012D01*
X658Y1011D02*
X732Y1011D01*
X823Y1011D02*
X895Y1011D01*
X658Y1010D02*
X733Y1010D01*
X821Y1010D02*
X897Y1010D01*
X657Y1009D02*
X734Y1009D01*
X819Y1009D02*
X899Y1009D01*
X657Y1008D02*
X734Y1008D01*
X818Y1008D02*
X901Y1008D01*
X657Y1007D02*
X734Y1007D01*
X816Y1007D02*
X903Y1007D01*
X657Y1006D02*
X734Y1006D01*
X815Y1006D02*
X904Y1006D01*
X658Y1005D02*
X733Y1005D01*
X813Y1005D02*
X906Y1005D01*
X658Y1004D02*
X732Y1004D01*
X812Y1004D02*
X907Y1004D01*
X660Y1003D02*
X731Y1003D01*
X810Y1003D02*
X909Y1003D01*
X809Y1002D02*
X910Y1002D01*
X808Y1001D02*
X911Y1001D01*
X806Y1000D02*
X912Y1000D01*
X805Y999D02*
X913Y999D01*
X804Y998D02*
X914Y998D01*
X803Y997D02*
X915Y997D01*
X802Y996D02*
X916Y996D01*
X801Y995D02*
X917Y995D01*
X800Y994D02*
X918Y994D01*
X799Y993D02*
X919Y993D01*
X798Y992D02*
X920Y992D01*
X797Y991D02*
X921Y991D01*
X796Y990D02*
X921Y990D01*
X795Y989D02*
X922Y989D01*
X794Y988D02*
X923Y988D01*
X793Y987D02*
X924Y987D01*
X793Y986D02*
X924Y986D01*
X792Y985D02*
X925Y985D01*
X791Y984D02*
X925Y984D01*
X790Y983D02*
X926Y983D01*
X789Y982D02*
X927Y982D01*
X789Y981D02*
X927Y981D01*
X650Y980D02*
X709Y980D01*
X788Y980D02*
X928Y980D01*
X648Y979D02*
X711Y979D01*
X787Y979D02*
X928Y979D01*
X646Y978D02*
X712Y978D01*
X787Y978D02*
X928Y978D01*
X645Y977D02*
X712Y977D01*
X786Y977D02*
X929Y977D01*
X643Y976D02*
X712Y976D01*
X785Y976D02*
X929Y976D01*
X642Y975D02*
X713Y975D01*
X785Y975D02*
X930Y975D01*
X642Y974D02*
X712Y974D01*
X784Y974D02*
X930Y974D01*
X641Y973D02*
X712Y973D01*
X784Y973D02*
X930Y973D01*
X640Y972D02*
X711Y972D01*
X783Y972D02*
X931Y972D01*
X639Y971D02*
X710Y971D01*
X782Y971D02*
X931Y971D01*
X638Y970D02*
X651Y970D01*
X667Y970D02*
X681Y970D01*
X693Y970D02*
X706Y970D01*
X782Y970D02*
X932Y970D01*
X638Y969D02*
X650Y969D01*
X667Y969D02*
X679Y969D01*
X694Y969D02*
X707Y969D01*
X781Y969D02*
X932Y969D01*
X637Y968D02*
X649Y968D01*
X666Y968D02*
X678Y968D01*
X695Y968D02*
X708Y968D01*
X781Y968D02*
X932Y968D01*
X637Y967D02*
X648Y967D01*
X665Y967D02*
X678Y967D01*
X696Y967D02*
X709Y967D01*
X780Y967D02*
X932Y967D01*
X636Y966D02*
X647Y966D01*
X664Y966D02*
X677Y966D01*
X697Y966D02*
X709Y966D01*
X780Y966D02*
X933Y966D01*
X636Y965D02*
X646Y965D01*
X664Y965D02*
X676Y965D01*
X698Y965D02*
X710Y965D01*
X780Y965D02*
X933Y965D01*
X636Y964D02*
X645Y964D01*
X663Y964D02*
X675Y964D01*
X699Y964D02*
X711Y964D01*
X779Y964D02*
X933Y964D01*
X636Y963D02*
X645Y963D01*
X663Y963D02*
X674Y963D01*
X700Y963D02*
X711Y963D01*
X779Y963D02*
X933Y963D01*
X636Y962D02*
X645Y962D01*
X662Y962D02*
X673Y962D01*
X700Y962D02*
X712Y962D01*
X778Y962D02*
X934Y962D01*
X636Y961D02*
X645Y961D01*
X662Y961D02*
X672Y961D01*
X701Y961D02*
X712Y961D01*
X778Y961D02*
X934Y961D01*
X636Y960D02*
X645Y960D01*
X661Y960D02*
X672Y960D01*
X702Y960D02*
X712Y960D01*
X778Y960D02*
X841Y960D01*
X844Y960D02*
X934Y960D01*
X636Y959D02*
X645Y959D01*
X661Y959D02*
X671Y959D01*
X703Y959D02*
X712Y959D01*
X777Y959D02*
X839Y959D01*
X844Y959D02*
X934Y959D01*
X636Y958D02*
X645Y958D01*
X661Y958D02*
X670Y958D01*
X703Y958D02*
X712Y958D01*
X777Y958D02*
X838Y958D01*
X844Y958D02*
X934Y958D01*
X636Y957D02*
X645Y957D01*
X661Y957D02*
X670Y957D01*
X703Y957D02*
X713Y957D01*
X777Y957D02*
X836Y957D01*
X844Y957D02*
X934Y957D01*
X636Y956D02*
X645Y956D01*
X661Y956D02*
X670Y956D01*
X704Y956D02*
X713Y956D01*
X776Y956D02*
X835Y956D01*
X845Y956D02*
X935Y956D01*
X636Y955D02*
X645Y955D01*
X661Y955D02*
X670Y955D01*
X704Y955D02*
X713Y955D01*
X776Y955D02*
X834Y955D01*
X845Y955D02*
X935Y955D01*
X636Y954D02*
X645Y954D01*
X661Y954D02*
X670Y954D01*
X704Y954D02*
X713Y954D01*
X776Y954D02*
X833Y954D01*
X845Y954D02*
X935Y954D01*
X636Y953D02*
X645Y953D01*
X661Y953D02*
X670Y953D01*
X704Y953D02*
X713Y953D01*
X775Y953D02*
X832Y953D01*
X845Y953D02*
X935Y953D01*
X636Y952D02*
X645Y952D01*
X661Y952D02*
X670Y952D01*
X704Y952D02*
X713Y952D01*
X775Y952D02*
X831Y952D01*
X846Y952D02*
X935Y952D01*
X636Y951D02*
X645Y951D01*
X661Y951D02*
X670Y951D01*
X704Y951D02*
X713Y951D01*
X775Y951D02*
X830Y951D01*
X846Y951D02*
X935Y951D01*
X636Y950D02*
X645Y950D01*
X661Y950D02*
X670Y950D01*
X704Y950D02*
X713Y950D01*
X775Y950D02*
X829Y950D01*
X846Y950D02*
X935Y950D01*
X636Y949D02*
X645Y949D01*
X661Y949D02*
X670Y949D01*
X704Y949D02*
X713Y949D01*
X774Y949D02*
X828Y949D01*
X847Y949D02*
X935Y949D01*
X636Y948D02*
X645Y948D01*
X661Y948D02*
X670Y948D01*
X703Y948D02*
X713Y948D01*
X774Y948D02*
X828Y948D01*
X847Y948D02*
X935Y948D01*
X636Y947D02*
X645Y947D01*
X661Y947D02*
X671Y947D01*
X703Y947D02*
X712Y947D01*
X774Y947D02*
X827Y947D01*
X848Y947D02*
X935Y947D01*
X636Y946D02*
X645Y946D01*
X661Y946D02*
X671Y946D01*
X702Y946D02*
X712Y946D01*
X774Y946D02*
X826Y946D01*
X849Y946D02*
X935Y946D01*
X636Y945D02*
X645Y945D01*
X662Y945D02*
X672Y945D01*
X702Y945D02*
X712Y945D01*
X774Y945D02*
X826Y945D01*
X849Y945D02*
X935Y945D01*
X636Y944D02*
X645Y944D01*
X662Y944D02*
X672Y944D01*
X701Y944D02*
X712Y944D01*
X773Y944D02*
X825Y944D01*
X850Y944D02*
X935Y944D01*
X636Y943D02*
X645Y943D01*
X662Y943D02*
X673Y943D01*
X700Y943D02*
X711Y943D01*
X773Y943D02*
X825Y943D01*
X851Y943D02*
X935Y943D01*
X636Y942D02*
X645Y942D01*
X663Y942D02*
X674Y942D01*
X699Y942D02*
X711Y942D01*
X773Y942D02*
X824Y942D01*
X852Y942D02*
X935Y942D01*
X636Y941D02*
X645Y941D01*
X664Y941D02*
X676Y941D01*
X697Y941D02*
X710Y941D01*
X773Y941D02*
X823Y941D01*
X852Y941D02*
X935Y941D01*
X636Y940D02*
X645Y940D01*
X664Y940D02*
X709Y940D01*
X773Y940D02*
X823Y940D01*
X854Y940D02*
X935Y940D01*
X636Y939D02*
X644Y939D01*
X665Y939D02*
X709Y939D01*
X773Y939D02*
X823Y939D01*
X855Y939D02*
X935Y939D01*
X636Y938D02*
X644Y938D01*
X666Y938D02*
X708Y938D01*
X773Y938D02*
X822Y938D01*
X856Y938D02*
X935Y938D01*
X637Y937D02*
X643Y937D01*
X667Y937D02*
X707Y937D01*
X773Y937D02*
X822Y937D01*
X857Y937D02*
X935Y937D01*
X638Y936D02*
X642Y936D01*
X668Y936D02*
X706Y936D01*
X773Y936D02*
X822Y936D01*
X859Y936D02*
X935Y936D01*
X669Y935D02*
X705Y935D01*
X772Y935D02*
X821Y935D01*
X860Y935D02*
X935Y935D01*
X670Y934D02*
X704Y934D01*
X772Y934D02*
X821Y934D01*
X861Y934D02*
X935Y934D01*
X671Y933D02*
X703Y933D01*
X772Y933D02*
X821Y933D01*
X863Y933D02*
X935Y933D01*
X673Y932D02*
X701Y932D01*
X772Y932D02*
X821Y932D01*
X865Y932D02*
X935Y932D01*
X676Y931D02*
X699Y931D01*
X772Y931D02*
X820Y931D01*
X867Y931D02*
X935Y931D01*
X772Y930D02*
X820Y930D01*
X868Y930D02*
X934Y930D01*
X772Y929D02*
X820Y929D01*
X870Y929D02*
X934Y929D01*
X772Y928D02*
X820Y928D01*
X872Y928D02*
X934Y928D01*
X772Y927D02*
X820Y927D01*
X874Y927D02*
X934Y927D01*
X773Y926D02*
X820Y926D01*
X876Y926D02*
X934Y926D01*
X773Y925D02*
X820Y925D01*
X878Y925D02*
X933Y925D01*
X773Y924D02*
X821Y924D01*
X879Y924D02*
X933Y924D01*
X773Y923D02*
X821Y923D01*
X878Y923D02*
X933Y923D01*
X773Y922D02*
X821Y922D01*
X876Y922D02*
X933Y922D01*
X773Y921D02*
X821Y921D01*
X875Y921D02*
X933Y921D01*
X773Y920D02*
X822Y920D01*
X874Y920D02*
X932Y920D01*
X773Y919D02*
X822Y919D01*
X873Y919D02*
X932Y919D01*
X773Y918D02*
X823Y918D01*
X871Y918D02*
X932Y918D01*
X774Y917D02*
X823Y917D01*
X870Y917D02*
X931Y917D01*
X774Y916D02*
X824Y916D01*
X869Y916D02*
X931Y916D01*
X774Y915D02*
X824Y915D01*
X867Y915D02*
X931Y915D01*
X774Y914D02*
X825Y914D01*
X865Y914D02*
X930Y914D01*
X774Y913D02*
X826Y913D01*
X863Y913D02*
X930Y913D01*
X775Y912D02*
X827Y912D01*
X861Y912D02*
X930Y912D01*
X775Y911D02*
X829Y911D01*
X859Y911D02*
X929Y911D01*
X775Y910D02*
X830Y910D01*
X857Y910D02*
X929Y910D01*
X776Y909D02*
X832Y909D01*
X854Y909D02*
X928Y909D01*
X776Y908D02*
X835Y908D01*
X850Y908D02*
X928Y908D01*
X776Y907D02*
X927Y907D01*
X776Y906D02*
X927Y906D01*
X777Y905D02*
X926Y905D01*
X777Y904D02*
X926Y904D01*
X660Y903D02*
X663Y903D01*
X777Y903D02*
X925Y903D01*
X659Y902D02*
X664Y902D01*
X778Y902D02*
X925Y902D01*
X658Y901D02*
X665Y901D01*
X778Y901D02*
X924Y901D01*
X657Y900D02*
X666Y900D01*
X779Y900D02*
X924Y900D01*
X657Y899D02*
X666Y899D01*
X779Y899D02*
X923Y899D01*
X657Y898D02*
X666Y898D01*
X780Y898D02*
X922Y898D01*
X657Y897D02*
X666Y897D01*
X780Y897D02*
X922Y897D01*
X657Y896D02*
X666Y896D01*
X780Y896D02*
X921Y896D01*
X657Y895D02*
X666Y895D01*
X781Y895D02*
X920Y895D01*
X657Y894D02*
X666Y894D01*
X781Y894D02*
X920Y894D01*
X657Y893D02*
X666Y893D01*
X782Y893D02*
X919Y893D01*
X657Y892D02*
X666Y892D01*
X782Y892D02*
X918Y892D01*
X657Y891D02*
X666Y891D01*
X783Y891D02*
X917Y891D01*
X657Y890D02*
X666Y890D01*
X782Y890D02*
X917Y890D01*
X657Y889D02*
X666Y889D01*
X782Y889D02*
X916Y889D01*
X657Y888D02*
X709Y888D01*
X728Y888D02*
X735Y888D01*
X782Y888D02*
X915Y888D01*
X657Y887D02*
X711Y887D01*
X726Y887D02*
X736Y887D01*
X781Y887D02*
X914Y887D01*
X657Y886D02*
X712Y886D01*
X726Y886D02*
X737Y886D01*
X781Y886D02*
X913Y886D01*
X657Y885D02*
X712Y885D01*
X725Y885D02*
X738Y885D01*
X780Y885D02*
X912Y885D01*
X657Y884D02*
X713Y884D01*
X725Y884D02*
X738Y884D01*
X780Y884D02*
X911Y884D01*
X657Y883D02*
X713Y883D01*
X725Y883D02*
X738Y883D01*
X779Y883D02*
X910Y883D01*
X1073Y883D02*
X1074Y883D01*
X657Y882D02*
X713Y882D01*
X725Y882D02*
X738Y882D01*
X779Y882D02*
X909Y882D01*
X1070Y882D02*
X1074Y882D01*
X657Y881D02*
X713Y881D01*
X725Y881D02*
X738Y881D01*
X779Y881D02*
X908Y881D01*
X1067Y881D02*
X1074Y881D01*
X657Y880D02*
X713Y880D01*
X725Y880D02*
X738Y880D01*
X778Y880D02*
X907Y880D01*
X1064Y880D02*
X1074Y880D01*
X657Y879D02*
X713Y879D01*
X725Y879D02*
X738Y879D01*
X778Y879D02*
X906Y879D01*
X1061Y879D02*
X1074Y879D01*
X657Y878D02*
X666Y878D01*
X703Y878D02*
X713Y878D01*
X725Y878D02*
X738Y878D01*
X778Y878D02*
X905Y878D01*
X1059Y878D02*
X1074Y878D01*
X657Y877D02*
X666Y877D01*
X704Y877D02*
X713Y877D01*
X725Y877D02*
X738Y877D01*
X777Y877D02*
X903Y877D01*
X1056Y877D02*
X1075Y877D01*
X657Y876D02*
X666Y876D01*
X704Y876D02*
X713Y876D01*
X725Y876D02*
X737Y876D01*
X777Y876D02*
X902Y876D01*
X1054Y876D02*
X1075Y876D01*
X657Y875D02*
X666Y875D01*
X704Y875D02*
X713Y875D01*
X726Y875D02*
X737Y875D01*
X777Y875D02*
X901Y875D01*
X1052Y875D02*
X1075Y875D01*
X657Y874D02*
X666Y874D01*
X704Y874D02*
X713Y874D01*
X727Y874D02*
X735Y874D01*
X776Y874D02*
X899Y874D01*
X1049Y874D02*
X1075Y874D01*
X657Y873D02*
X666Y873D01*
X704Y873D02*
X713Y873D01*
X776Y873D02*
X898Y873D01*
X1047Y873D02*
X1075Y873D01*
X657Y872D02*
X666Y872D01*
X704Y872D02*
X713Y872D01*
X776Y872D02*
X897Y872D01*
X1045Y872D02*
X1075Y872D01*
X657Y871D02*
X666Y871D01*
X704Y871D02*
X713Y871D01*
X775Y871D02*
X895Y871D01*
X1042Y871D02*
X1075Y871D01*
X657Y870D02*
X666Y870D01*
X704Y870D02*
X713Y870D01*
X775Y870D02*
X893Y870D01*
X1040Y870D02*
X1075Y870D01*
X657Y869D02*
X666Y869D01*
X704Y869D02*
X713Y869D01*
X775Y869D02*
X892Y869D01*
X1038Y869D02*
X1075Y869D01*
X657Y868D02*
X666Y868D01*
X704Y868D02*
X713Y868D01*
X775Y868D02*
X890Y868D01*
X1036Y868D02*
X1075Y868D01*
X657Y867D02*
X666Y867D01*
X704Y867D02*
X712Y867D01*
X774Y867D02*
X888Y867D01*
X1034Y867D02*
X1075Y867D01*
X658Y866D02*
X665Y866D01*
X704Y866D02*
X712Y866D01*
X774Y866D02*
X887Y866D01*
X1032Y866D02*
X1075Y866D01*
X658Y865D02*
X664Y865D01*
X705Y865D02*
X711Y865D01*
X774Y865D02*
X884Y865D01*
X1030Y865D02*
X1075Y865D01*
X660Y864D02*
X663Y864D01*
X706Y864D02*
X710Y864D01*
X774Y864D02*
X882Y864D01*
X1028Y864D02*
X1075Y864D01*
X774Y863D02*
X880Y863D01*
X1026Y863D02*
X1075Y863D01*
X773Y862D02*
X878Y862D01*
X1024Y862D02*
X1075Y862D01*
X773Y861D02*
X875Y861D01*
X1022Y861D02*
X1075Y861D01*
X773Y860D02*
X873Y860D01*
X1020Y860D02*
X1075Y860D01*
X773Y859D02*
X870Y859D01*
X1017Y859D02*
X1075Y859D01*
X773Y858D02*
X867Y858D01*
X1015Y858D02*
X1076Y858D01*
X773Y857D02*
X863Y857D01*
X1013Y857D02*
X1076Y857D01*
X773Y856D02*
X859Y856D01*
X1011Y856D02*
X1076Y856D01*
X772Y855D02*
X855Y855D01*
X1009Y855D02*
X1076Y855D01*
X772Y854D02*
X850Y854D01*
X1007Y854D02*
X1076Y854D01*
X772Y853D02*
X843Y853D01*
X1005Y853D02*
X1076Y853D01*
X772Y852D02*
X825Y852D01*
X1003Y852D02*
X1076Y852D01*
X772Y851D02*
X824Y851D01*
X1001Y851D02*
X1076Y851D01*
X772Y850D02*
X824Y850D01*
X999Y850D02*
X1076Y850D01*
X772Y849D02*
X824Y849D01*
X997Y849D02*
X1076Y849D01*
X772Y848D02*
X824Y848D01*
X995Y848D02*
X1076Y848D01*
X772Y847D02*
X824Y847D01*
X993Y847D02*
X1076Y847D01*
X772Y846D02*
X824Y846D01*
X991Y846D02*
X1076Y846D01*
X772Y845D02*
X824Y845D01*
X989Y845D02*
X1076Y845D01*
X772Y844D02*
X824Y844D01*
X987Y844D02*
X1076Y844D01*
X772Y843D02*
X824Y843D01*
X985Y843D02*
X1076Y843D01*
X772Y842D02*
X824Y842D01*
X983Y842D02*
X1076Y842D01*
X772Y841D02*
X824Y841D01*
X981Y841D02*
X1076Y841D01*
X772Y840D02*
X824Y840D01*
X979Y840D02*
X1076Y840D01*
X772Y839D02*
X824Y839D01*
X977Y839D02*
X1076Y839D01*
X772Y838D02*
X824Y838D01*
X975Y838D02*
X1076Y838D01*
X772Y837D02*
X824Y837D01*
X973Y837D02*
X1076Y837D01*
X660Y836D02*
X663Y836D01*
X772Y836D02*
X824Y836D01*
X971Y836D02*
X1076Y836D01*
X659Y835D02*
X664Y835D01*
X772Y835D02*
X824Y835D01*
X968Y835D02*
X1076Y835D01*
X658Y834D02*
X665Y834D01*
X772Y834D02*
X824Y834D01*
X966Y834D02*
X1076Y834D01*
X657Y833D02*
X666Y833D01*
X772Y833D02*
X825Y833D01*
X964Y833D02*
X1076Y833D01*
X657Y832D02*
X666Y832D01*
X772Y832D02*
X825Y832D01*
X962Y832D02*
X1076Y832D01*
X657Y831D02*
X666Y831D01*
X772Y831D02*
X825Y831D01*
X960Y831D02*
X1076Y831D01*
X657Y830D02*
X666Y830D01*
X772Y830D02*
X825Y830D01*
X958Y830D02*
X1076Y830D01*
X657Y829D02*
X666Y829D01*
X772Y829D02*
X825Y829D01*
X955Y829D02*
X1076Y829D01*
X657Y828D02*
X666Y828D01*
X773Y828D02*
X826Y828D01*
X953Y828D02*
X1076Y828D01*
X657Y827D02*
X666Y827D01*
X773Y827D02*
X826Y827D01*
X951Y827D02*
X1076Y827D01*
X657Y826D02*
X666Y826D01*
X773Y826D02*
X826Y826D01*
X948Y826D02*
X1076Y826D01*
X657Y825D02*
X666Y825D01*
X773Y825D02*
X827Y825D01*
X946Y825D02*
X1076Y825D01*
X657Y824D02*
X666Y824D01*
X773Y824D02*
X827Y824D01*
X944Y824D02*
X1075Y824D01*
X657Y823D02*
X666Y823D01*
X773Y823D02*
X827Y823D01*
X941Y823D02*
X1074Y823D01*
X657Y822D02*
X666Y822D01*
X773Y822D02*
X828Y822D01*
X939Y822D02*
X1072Y822D01*
X657Y821D02*
X666Y821D01*
X774Y821D02*
X828Y821D01*
X936Y821D02*
X1071Y821D01*
X657Y820D02*
X666Y820D01*
X774Y820D02*
X829Y820D01*
X934Y820D02*
X1070Y820D01*
X657Y819D02*
X666Y819D01*
X774Y819D02*
X829Y819D01*
X931Y819D02*
X1069Y819D01*
X657Y818D02*
X666Y818D01*
X774Y818D02*
X830Y818D01*
X929Y818D02*
X1068Y818D01*
X657Y817D02*
X666Y817D01*
X775Y817D02*
X831Y817D01*
X926Y817D02*
X1066Y817D01*
X657Y816D02*
X666Y816D01*
X775Y816D02*
X831Y816D01*
X923Y816D02*
X1065Y816D01*
X657Y815D02*
X666Y815D01*
X775Y815D02*
X832Y815D01*
X920Y815D02*
X1064Y815D01*
X657Y814D02*
X666Y814D01*
X775Y814D02*
X833Y814D01*
X917Y814D02*
X1063Y814D01*
X657Y813D02*
X666Y813D01*
X776Y813D02*
X834Y813D01*
X914Y813D02*
X1061Y813D01*
X657Y812D02*
X666Y812D01*
X776Y812D02*
X835Y812D01*
X911Y812D02*
X1060Y812D01*
X657Y811D02*
X666Y811D01*
X776Y811D02*
X837Y811D01*
X907Y811D02*
X1059Y811D01*
X657Y810D02*
X666Y810D01*
X776Y810D02*
X838Y810D01*
X904Y810D02*
X1057Y810D01*
X657Y809D02*
X666Y809D01*
X777Y809D02*
X839Y809D01*
X900Y809D02*
X1056Y809D01*
X657Y808D02*
X666Y808D01*
X777Y808D02*
X841Y808D01*
X896Y808D02*
X1055Y808D01*
X657Y807D02*
X666Y807D01*
X777Y807D02*
X844Y807D01*
X892Y807D02*
X1053Y807D01*
X657Y806D02*
X666Y806D01*
X778Y806D02*
X846Y806D01*
X887Y806D02*
X1052Y806D01*
X657Y805D02*
X666Y805D01*
X778Y805D02*
X850Y805D01*
X881Y805D02*
X1051Y805D01*
X657Y804D02*
X666Y804D01*
X779Y804D02*
X855Y804D01*
X873Y804D02*
X1049Y804D01*
X657Y803D02*
X666Y803D01*
X779Y803D02*
X1048Y803D01*
X657Y802D02*
X666Y802D01*
X779Y802D02*
X1047Y802D01*
X657Y801D02*
X666Y801D01*
X780Y801D02*
X1045Y801D01*
X657Y800D02*
X666Y800D01*
X780Y800D02*
X1044Y800D01*
X657Y799D02*
X666Y799D01*
X781Y799D02*
X1042Y799D01*
X657Y798D02*
X666Y798D01*
X781Y798D02*
X1041Y798D01*
X657Y797D02*
X666Y797D01*
X782Y797D02*
X1040Y797D01*
X657Y796D02*
X731Y796D01*
X782Y796D02*
X1038Y796D01*
X657Y795D02*
X732Y795D01*
X783Y795D02*
X1037Y795D01*
X657Y794D02*
X733Y794D01*
X783Y794D02*
X1036Y794D01*
X657Y793D02*
X734Y793D01*
X784Y793D02*
X1034Y793D01*
X657Y792D02*
X734Y792D01*
X784Y792D02*
X1033Y792D01*
X657Y791D02*
X734Y791D01*
X785Y791D02*
X1031Y791D01*
X657Y790D02*
X734Y790D01*
X785Y790D02*
X1030Y790D01*
X657Y789D02*
X733Y789D01*
X786Y789D02*
X1028Y789D01*
X657Y788D02*
X732Y788D01*
X787Y788D02*
X1027Y788D01*
X657Y787D02*
X731Y787D01*
X787Y787D02*
X1026Y787D01*
X788Y786D02*
X1024Y786D01*
X789Y785D02*
X1023Y785D01*
X789Y784D02*
X1021Y784D01*
X790Y783D02*
X1020Y783D01*
X791Y782D02*
X1018Y782D01*
X792Y781D02*
X1017Y781D01*
X792Y780D02*
X1015Y780D01*
X793Y779D02*
X1014Y779D01*
X794Y778D02*
X1012Y778D01*
X795Y777D02*
X1011Y777D01*
X796Y776D02*
X1010Y776D01*
X797Y775D02*
X1008Y775D01*
X798Y774D02*
X1007Y774D01*
X799Y773D02*
X1005Y773D01*
X800Y772D02*
X1004Y772D01*
X801Y771D02*
X1002Y771D01*
X802Y770D02*
X1001Y770D01*
X803Y769D02*
X999Y769D01*
X805Y768D02*
X998Y768D01*
X806Y767D02*
X996Y767D01*
X807Y766D02*
X995Y766D01*
X809Y765D02*
X994Y765D01*
X810Y764D02*
X992Y764D01*
X812Y763D02*
X991Y763D01*
X813Y762D02*
X989Y762D01*
X815Y761D02*
X988Y761D01*
X817Y760D02*
X986Y760D01*
X819Y759D02*
X985Y759D01*
X821Y758D02*
X983Y758D01*
X824Y757D02*
X982Y757D01*
X826Y756D02*
X981Y756D01*
X829Y755D02*
X979Y755D01*
X833Y754D02*
X882Y754D01*
X884Y754D02*
X978Y754D01*
X837Y753D02*
X877Y753D01*
X883Y753D02*
X976Y753D01*
X843Y752D02*
X870Y752D01*
X882Y752D02*
X975Y752D01*
X881Y751D02*
X973Y751D01*
X880Y750D02*
X972Y750D01*
X879Y749D02*
X971Y749D01*
X878Y748D02*
X969Y748D01*
X877Y747D02*
X968Y747D01*
X876Y746D02*
X966Y746D01*
X875Y745D02*
X965Y745D01*
X874Y744D02*
X963Y744D01*
X873Y743D02*
X962Y743D01*
X872Y742D02*
X961Y742D01*
X870Y741D02*
X959Y741D01*
X869Y740D02*
X958Y740D01*
X868Y739D02*
X957Y739D01*
X867Y738D02*
X955Y738D01*
X866Y737D02*
X954Y737D01*
X865Y736D02*
X952Y736D01*
X863Y735D02*
X951Y735D01*
X862Y734D02*
X950Y734D01*
X861Y733D02*
X948Y733D01*
X1068Y733D02*
X1074Y733D01*
X860Y732D02*
X947Y732D01*
X1062Y732D02*
X1074Y732D01*
X858Y731D02*
X946Y731D01*
X1056Y731D02*
X1074Y731D01*
X857Y730D02*
X944Y730D01*
X1051Y730D02*
X1074Y730D01*
X856Y729D02*
X943Y729D01*
X1046Y729D02*
X1074Y729D01*
X854Y728D02*
X942Y728D01*
X1041Y728D02*
X1074Y728D01*
X853Y727D02*
X940Y727D01*
X1036Y727D02*
X1074Y727D01*
X852Y726D02*
X939Y726D01*
X1032Y726D02*
X1074Y726D01*
X850Y725D02*
X938Y725D01*
X1027Y725D02*
X1074Y725D01*
X849Y724D02*
X937Y724D01*
X1023Y724D02*
X1074Y724D01*
X848Y723D02*
X935Y723D01*
X1019Y723D02*
X1074Y723D01*
X846Y722D02*
X934Y722D01*
X1014Y722D02*
X1074Y722D01*
X845Y721D02*
X933Y721D01*
X1010Y721D02*
X1074Y721D01*
X844Y720D02*
X932Y720D01*
X1006Y720D02*
X1074Y720D01*
X842Y719D02*
X930Y719D01*
X1002Y719D02*
X1074Y719D01*
X841Y718D02*
X929Y718D01*
X998Y718D02*
X1074Y718D01*
X839Y717D02*
X928Y717D01*
X994Y717D02*
X1074Y717D01*
X838Y716D02*
X927Y716D01*
X990Y716D02*
X1074Y716D01*
X836Y715D02*
X925Y715D01*
X986Y715D02*
X1074Y715D01*
X835Y714D02*
X924Y714D01*
X982Y714D02*
X1074Y714D01*
X834Y713D02*
X923Y713D01*
X977Y713D02*
X1074Y713D01*
X832Y712D02*
X922Y712D01*
X973Y712D02*
X1074Y712D01*
X831Y711D02*
X921Y711D01*
X969Y711D02*
X1074Y711D01*
X829Y710D02*
X920Y710D01*
X965Y710D02*
X1074Y710D01*
X828Y709D02*
X919Y709D01*
X960Y709D02*
X1074Y709D01*
X826Y708D02*
X917Y708D01*
X956Y708D02*
X1074Y708D01*
X825Y707D02*
X916Y707D01*
X952Y707D02*
X1074Y707D01*
X823Y706D02*
X915Y706D01*
X947Y706D02*
X1074Y706D01*
X822Y705D02*
X914Y705D01*
X942Y705D02*
X1074Y705D01*
X821Y704D02*
X913Y704D01*
X937Y704D02*
X1074Y704D01*
X819Y703D02*
X912Y703D01*
X932Y703D02*
X1074Y703D01*
X818Y702D02*
X911Y702D01*
X927Y702D02*
X1074Y702D01*
X816Y701D02*
X910Y701D01*
X922Y701D02*
X1074Y701D01*
X815Y700D02*
X909Y700D01*
X916Y700D02*
X1074Y700D01*
X813Y699D02*
X1074Y699D01*
X812Y698D02*
X1074Y698D01*
X811Y697D02*
X1074Y697D01*
X809Y696D02*
X1074Y696D01*
X808Y695D02*
X1074Y695D01*
X806Y694D02*
X1074Y694D01*
X805Y693D02*
X1074Y693D01*
X669Y692D02*
X730Y692D01*
X803Y692D02*
X1074Y692D01*
X666Y691D02*
X732Y691D01*
X802Y691D02*
X1074Y691D01*
X664Y690D02*
X733Y690D01*
X801Y690D02*
X1074Y690D01*
X663Y689D02*
X733Y689D01*
X799Y689D02*
X1074Y689D01*
X661Y688D02*
X734Y688D01*
X798Y688D02*
X1074Y688D01*
X661Y687D02*
X734Y687D01*
X796Y687D02*
X1074Y687D01*
X660Y686D02*
X734Y686D01*
X795Y686D02*
X1074Y686D01*
X659Y685D02*
X733Y685D01*
X794Y685D02*
X1074Y685D01*
X659Y684D02*
X733Y684D01*
X792Y684D02*
X1074Y684D01*
X658Y683D02*
X731Y683D01*
X791Y683D02*
X1074Y683D01*
X658Y682D02*
X670Y682D01*
X790Y682D02*
X1074Y682D01*
X657Y681D02*
X668Y681D01*
X789Y681D02*
X1074Y681D01*
X657Y680D02*
X667Y680D01*
X787Y680D02*
X1074Y680D01*
X657Y679D02*
X666Y679D01*
X786Y679D02*
X1074Y679D01*
X657Y678D02*
X666Y678D01*
X785Y678D02*
X1074Y678D01*
X657Y677D02*
X666Y677D01*
X783Y677D02*
X1074Y677D01*
X657Y676D02*
X666Y676D01*
X782Y676D02*
X1072Y676D01*
X657Y675D02*
X666Y675D01*
X781Y675D02*
X1071Y675D01*
X657Y674D02*
X666Y674D01*
X780Y674D02*
X1069Y674D01*
X657Y673D02*
X666Y673D01*
X778Y673D02*
X1067Y673D01*
X657Y672D02*
X666Y672D01*
X777Y672D02*
X1065Y672D01*
X657Y671D02*
X666Y671D01*
X776Y671D02*
X1064Y671D01*
X657Y670D02*
X666Y670D01*
X775Y670D02*
X1062Y670D01*
X657Y669D02*
X666Y669D01*
X774Y669D02*
X1060Y669D01*
X657Y668D02*
X666Y668D01*
X773Y668D02*
X1058Y668D01*
X657Y667D02*
X666Y667D01*
X772Y667D02*
X1057Y667D01*
X657Y666D02*
X666Y666D01*
X770Y666D02*
X1055Y666D01*
X657Y665D02*
X666Y665D01*
X770Y665D02*
X1053Y665D01*
X657Y664D02*
X666Y664D01*
X770Y664D02*
X1052Y664D01*
X657Y663D02*
X666Y663D01*
X770Y663D02*
X1050Y663D01*
X657Y662D02*
X666Y662D01*
X770Y662D02*
X1048Y662D01*
X657Y661D02*
X666Y661D01*
X770Y661D02*
X1047Y661D01*
X657Y660D02*
X666Y660D01*
X770Y660D02*
X1045Y660D01*
X657Y659D02*
X666Y659D01*
X770Y659D02*
X1043Y659D01*
X657Y658D02*
X666Y658D01*
X770Y658D02*
X1041Y658D01*
X657Y657D02*
X666Y657D01*
X770Y657D02*
X1040Y657D01*
X657Y656D02*
X666Y656D01*
X770Y656D02*
X1038Y656D01*
X657Y655D02*
X667Y655D01*
X770Y655D02*
X1036Y655D01*
X657Y654D02*
X668Y654D01*
X770Y654D02*
X1035Y654D01*
X658Y653D02*
X669Y653D01*
X770Y653D02*
X1033Y653D01*
X658Y652D02*
X731Y652D01*
X770Y652D02*
X1031Y652D01*
X658Y651D02*
X732Y651D01*
X770Y651D02*
X1030Y651D01*
X659Y650D02*
X733Y650D01*
X770Y650D02*
X1028Y650D01*
X660Y649D02*
X734Y649D01*
X770Y649D02*
X1027Y649D01*
X660Y648D02*
X734Y648D01*
X770Y648D02*
X1025Y648D01*
X661Y647D02*
X734Y647D01*
X770Y647D02*
X1023Y647D01*
X662Y646D02*
X734Y646D01*
X770Y646D02*
X1022Y646D01*
X664Y645D02*
X733Y645D01*
X770Y645D02*
X1020Y645D01*
X666Y644D02*
X732Y644D01*
X770Y644D02*
X1018Y644D01*
X668Y643D02*
X731Y643D01*
X770Y643D02*
X1017Y643D01*
X770Y642D02*
X1015Y642D01*
X770Y641D02*
X906Y641D01*
X911Y641D02*
X1014Y641D01*
X770Y640D02*
X899Y640D01*
X910Y640D02*
X1012Y640D01*
X770Y639D02*
X893Y639D01*
X909Y639D02*
X1010Y639D01*
X770Y638D02*
X887Y638D01*
X908Y638D02*
X1009Y638D01*
X770Y637D02*
X882Y637D01*
X907Y637D02*
X1007Y637D01*
X770Y636D02*
X876Y636D01*
X906Y636D02*
X1006Y636D01*
X770Y635D02*
X871Y635D01*
X904Y635D02*
X1004Y635D01*
X770Y634D02*
X867Y634D01*
X903Y634D02*
X1003Y634D01*
X770Y633D02*
X862Y633D01*
X902Y633D02*
X1001Y633D01*
X770Y632D02*
X857Y632D01*
X901Y632D02*
X999Y632D01*
X770Y631D02*
X853Y631D01*
X899Y631D02*
X998Y631D01*
X770Y630D02*
X849Y630D01*
X898Y630D02*
X996Y630D01*
X770Y629D02*
X845Y629D01*
X897Y629D02*
X995Y629D01*
X770Y628D02*
X840Y628D01*
X896Y628D02*
X993Y628D01*
X770Y627D02*
X836Y627D01*
X894Y627D02*
X992Y627D01*
X770Y626D02*
X832Y626D01*
X893Y626D02*
X990Y626D01*
X770Y625D02*
X828Y625D01*
X892Y625D02*
X989Y625D01*
X770Y624D02*
X824Y624D01*
X890Y624D02*
X987Y624D01*
X770Y623D02*
X819Y623D01*
X889Y623D02*
X986Y623D01*
X770Y622D02*
X815Y622D01*
X887Y622D02*
X984Y622D01*
X770Y621D02*
X811Y621D01*
X886Y621D02*
X983Y621D01*
X711Y620D02*
X730Y620D01*
X770Y620D02*
X807Y620D01*
X885Y620D02*
X981Y620D01*
X708Y619D02*
X732Y619D01*
X770Y619D02*
X803Y619D01*
X883Y619D02*
X979Y619D01*
X706Y618D02*
X733Y618D01*
X770Y618D02*
X798Y618D01*
X882Y618D02*
X978Y618D01*
X703Y617D02*
X733Y617D01*
X770Y617D02*
X794Y617D01*
X881Y617D02*
X976Y617D01*
X701Y616D02*
X734Y616D01*
X770Y616D02*
X789Y616D01*
X879Y616D02*
X975Y616D01*
X698Y615D02*
X734Y615D01*
X770Y615D02*
X785Y615D01*
X878Y615D02*
X973Y615D01*
X696Y614D02*
X734Y614D01*
X770Y614D02*
X779Y614D01*
X876Y614D02*
X972Y614D01*
X693Y613D02*
X733Y613D01*
X770Y613D02*
X774Y613D01*
X875Y613D02*
X970Y613D01*
X690Y612D02*
X733Y612D01*
X873Y612D02*
X969Y612D01*
X688Y611D02*
X731Y611D01*
X872Y611D02*
X967Y611D01*
X685Y610D02*
X712Y610D01*
X871Y610D02*
X966Y610D01*
X683Y609D02*
X710Y609D01*
X869Y609D02*
X964Y609D01*
X680Y608D02*
X707Y608D01*
X868Y608D02*
X963Y608D01*
X678Y607D02*
X704Y607D01*
X866Y607D02*
X961Y607D01*
X675Y606D02*
X702Y606D01*
X865Y606D02*
X960Y606D01*
X672Y605D02*
X699Y605D01*
X863Y605D02*
X958Y605D01*
X670Y604D02*
X697Y604D01*
X862Y604D02*
X957Y604D01*
X667Y603D02*
X694Y603D01*
X860Y603D02*
X955Y603D01*
X665Y602D02*
X692Y602D01*
X859Y602D02*
X954Y602D01*
X662Y601D02*
X689Y601D01*
X857Y601D02*
X952Y601D01*
X660Y600D02*
X687Y600D01*
X856Y600D02*
X951Y600D01*
X658Y599D02*
X684Y599D01*
X854Y599D02*
X949Y599D01*
X658Y598D02*
X681Y598D01*
X853Y598D02*
X948Y598D01*
X657Y597D02*
X679Y597D01*
X851Y597D02*
X946Y597D01*
X657Y596D02*
X676Y596D01*
X850Y596D02*
X945Y596D01*
X657Y595D02*
X676Y595D01*
X848Y595D02*
X944Y595D01*
X657Y594D02*
X679Y594D01*
X847Y594D02*
X942Y594D01*
X657Y593D02*
X681Y593D01*
X845Y593D02*
X941Y593D01*
X658Y592D02*
X684Y592D01*
X844Y592D02*
X939Y592D01*
X659Y591D02*
X686Y591D01*
X842Y591D02*
X938Y591D01*
X662Y590D02*
X689Y590D01*
X841Y590D02*
X936Y590D01*
X664Y589D02*
X691Y589D01*
X839Y589D02*
X935Y589D01*
X667Y588D02*
X694Y588D01*
X838Y588D02*
X933Y588D01*
X669Y587D02*
X696Y587D01*
X836Y587D02*
X932Y587D01*
X672Y586D02*
X699Y586D01*
X835Y586D02*
X930Y586D01*
X675Y585D02*
X702Y585D01*
X833Y585D02*
X929Y585D01*
X677Y584D02*
X704Y584D01*
X832Y584D02*
X928Y584D01*
X680Y583D02*
X707Y583D01*
X830Y583D02*
X926Y583D01*
X682Y582D02*
X709Y582D01*
X829Y582D02*
X925Y582D01*
X685Y581D02*
X712Y581D01*
X827Y581D02*
X923Y581D01*
X687Y580D02*
X731Y580D01*
X826Y580D02*
X922Y580D01*
X690Y579D02*
X732Y579D01*
X824Y579D02*
X920Y579D01*
X693Y578D02*
X733Y578D01*
X823Y578D02*
X919Y578D01*
X695Y577D02*
X734Y577D01*
X821Y577D02*
X917Y577D01*
X698Y576D02*
X734Y576D01*
X820Y576D02*
X916Y576D01*
X700Y575D02*
X734Y575D01*
X818Y575D02*
X914Y575D01*
X703Y574D02*
X734Y574D01*
X817Y574D02*
X913Y574D01*
X705Y573D02*
X733Y573D01*
X815Y573D02*
X912Y573D01*
X708Y572D02*
X732Y572D01*
X814Y572D02*
X910Y572D01*
X711Y571D02*
X731Y571D01*
X812Y571D02*
X909Y571D01*
X811Y570D02*
X907Y570D01*
X810Y569D02*
X906Y569D01*
X808Y568D02*
X905Y568D01*
X807Y567D02*
X903Y567D01*
X805Y566D02*
X902Y566D01*
X804Y565D02*
X900Y565D01*
X802Y564D02*
X899Y564D01*
X801Y563D02*
X897Y563D01*
X800Y562D02*
X896Y562D01*
X798Y561D02*
X895Y561D01*
X797Y560D02*
X893Y560D01*
X796Y559D02*
X892Y559D01*
X794Y558D02*
X890Y558D01*
X793Y557D02*
X889Y557D01*
X792Y556D02*
X888Y556D01*
X790Y555D02*
X886Y555D01*
X789Y554D02*
X885Y554D01*
X788Y553D02*
X883Y553D01*
X787Y552D02*
X882Y552D01*
X785Y551D02*
X880Y551D01*
X784Y550D02*
X879Y550D01*
X783Y549D02*
X878Y549D01*
X782Y548D02*
X876Y548D01*
X780Y547D02*
X875Y547D01*
X779Y546D02*
X873Y546D01*
X778Y545D02*
X872Y545D01*
X777Y544D02*
X871Y544D01*
X776Y543D02*
X869Y543D01*
X775Y542D02*
X868Y542D01*
X773Y541D02*
X866Y541D01*
X772Y540D02*
X865Y540D01*
X771Y539D02*
X864Y539D01*
X770Y538D02*
X862Y538D01*
X769Y537D02*
X861Y537D01*
X768Y536D02*
X859Y536D01*
X767Y535D02*
X858Y535D01*
X766Y534D02*
X857Y534D01*
X766Y533D02*
X855Y533D01*
X766Y532D02*
X854Y532D01*
X766Y531D02*
X852Y531D01*
X766Y530D02*
X851Y530D01*
X766Y529D02*
X850Y529D01*
X766Y528D02*
X848Y528D01*
X766Y527D02*
X847Y527D01*
X766Y526D02*
X845Y526D01*
X766Y525D02*
X844Y525D01*
X766Y524D02*
X843Y524D01*
X766Y523D02*
X841Y523D01*
X766Y522D02*
X840Y522D01*
X766Y521D02*
X838Y521D01*
X766Y520D02*
X837Y520D01*
X766Y519D02*
X836Y519D01*
X766Y518D02*
X834Y518D01*
X766Y517D02*
X833Y517D01*
X766Y516D02*
X831Y516D01*
X766Y515D02*
X830Y515D01*
X766Y514D02*
X829Y514D01*
X766Y513D02*
X827Y513D01*
X766Y512D02*
X826Y512D01*
X766Y511D02*
X824Y511D01*
X766Y510D02*
X823Y510D01*
X766Y509D02*
X822Y509D01*
X766Y508D02*
X820Y508D01*
X766Y507D02*
X819Y507D01*
X766Y506D02*
X817Y506D01*
X766Y505D02*
X816Y505D01*
X765Y504D02*
X815Y504D01*
X765Y503D02*
X813Y503D01*
X765Y502D02*
X812Y502D01*
X765Y501D02*
X810Y501D01*
X765Y500D02*
X809Y500D01*
X765Y499D02*
X808Y499D01*
X765Y498D02*
X806Y498D01*
X765Y497D02*
X805Y497D01*
X765Y496D02*
X803Y496D01*
X765Y495D02*
X802Y495D01*
X765Y494D02*
X801Y494D01*
X765Y493D02*
X799Y493D01*
X765Y492D02*
X798Y492D01*
X765Y491D02*
X796Y491D01*
X765Y490D02*
X795Y490D01*
X765Y489D02*
X793Y489D01*
X764Y488D02*
X792Y488D01*
X764Y487D02*
X791Y487D01*
X764Y486D02*
X789Y486D01*
X764Y485D02*
X788Y485D01*
X764Y484D02*
X786Y484D01*
X764Y483D02*
X785Y483D01*
X764Y482D02*
X783Y482D01*
X764Y481D02*
X782Y481D01*
X764Y480D02*
X781Y480D01*
X764Y479D02*
X779Y479D01*
X764Y478D02*
X778Y478D01*
X764Y477D02*
X776Y477D01*
X764Y476D02*
X775Y476D01*
X764Y475D02*
X773Y475D01*
X764Y474D02*
X772Y474D01*
X764Y473D02*
X771Y473D01*
X764Y472D02*
X769Y472D01*
X764Y471D02*
X768Y471D01*
X764Y470D02*
X766Y470D01*
X764Y469D02*
X765Y469D01*
D02*
G04 End of Silk0*
M02*